<svg xmlns="http://www.w3.org/2000/svg" width="240" height="200" viewBox="0 0 240 200">
  <path fill="#1BCEBE" fill-rule="evenodd" d="M179.546,25.477 C180.462,27.019 181.752,28.308 183.294,29.224 C181.751,30.14 180.462,31.43 179.546,32.972 C178.629,31.43 177.34,30.14 175.798,29.224 C177.34,28.309 178.63,27.019 179.546,25.477 L179.546,25.477 Z M170.066,30.693 C170.164,30.713 170.265,30.724 170.369,30.724 L170.37,30.724 C174.603,30.726 178.046,34.17 178.046,38.402 C178.046,39.23 178.718,39.902 179.546,39.902 C180.374,39.902 181.046,39.23 181.046,38.402 C181.046,34.169 184.489,30.725 188.722,30.724 L188.724,30.724 C189.552,30.724 190.224,30.052 190.224,29.224 C190.224,28.396 189.552,27.724 188.724,27.724 L188.722,27.724 C184.493,27.723 181.051,24.285 181.046,20.056 C181.046,20.053 181.046,20.049 181.046,20.046 C181.046,19.218 180.375,18.546 179.546,18.546 L179.546,18.546 L179.546,18.546 C178.718,18.546 178.046,19.218 178.046,20.046 C178.046,20.049 178.046,20.053 178.046,20.056 C178.041,24.285 174.599,27.724 170.37,27.724 L170.368,27.724 C169.54,27.724 168.868,28.396 168.868,29.224 C168.868,29.949 169.382,30.554 170.066,30.693 L170.066,30.693 Z M204.612,86.13 C204.599,86.117 204.586,86.103 204.572,86.09 C204.586,86.077 204.599,86.064 204.612,86.05 C204.626,86.064 204.639,86.077 204.652,86.09 C204.639,86.104 204.626,86.117 204.612,86.13 L204.612,86.13 Z M209.789,86.09 C209.789,85.262 209.116,84.59 208.289,84.59 L208.288,84.59 C207.088,84.589 206.112,83.613 206.112,82.413 C206.112,81.584 205.441,80.913 204.612,80.913 C203.785,80.913 203.112,81.584 203.112,82.413 C203.112,83.613 202.136,84.589 200.936,84.59 L200.935,84.59 C200.107,84.59 199.435,85.262 199.435,86.09 C199.435,86.918 200.107,87.59 200.935,87.59 L200.936,87.59 C202.136,87.59 203.112,88.568 203.112,89.767 C203.112,90.595 203.785,91.267 204.612,91.267 C205.441,91.267 206.112,90.595 206.112,89.767 C206.112,88.568 207.088,87.59 208.288,87.59 L208.289,87.59 C209.116,87.59 209.789,86.918 209.789,86.09 L209.789,86.09 Z M35.178,86.13 C35.164,86.117 35.151,86.104 35.138,86.09 C35.151,86.077 35.164,86.064 35.178,86.05 C35.191,86.064 35.204,86.077 35.217,86.09 C35.204,86.104 35.191,86.117 35.178,86.13 L35.178,86.13 Z M38.855,84.59 L38.854,84.59 C37.654,84.589 36.678,83.613 36.678,82.413 C36.678,81.584 36.005,80.913 35.178,80.913 C34.35,80.913 33.678,81.584 33.678,82.413 C33.678,83.613 32.701,84.589 31.501,84.59 L31.5,84.59 C30.671,84.59 30,85.262 30,86.09 C30,86.918 30.671,87.59 31.5,87.59 L31.501,87.59 C32.701,87.59 33.678,88.568 33.678,89.767 C33.678,90.595 34.35,91.267 35.178,91.267 C36.005,91.267 36.678,90.595 36.678,89.767 C36.678,88.568 37.654,87.59 38.854,87.59 L38.855,87.59 C39.683,87.59 40.355,86.918 40.355,86.09 C40.355,85.262 39.683,84.59 38.855,84.59 L38.855,84.59 Z M58.442,25.476 C59.358,27.018 60.647,28.308 62.189,29.224 C60.647,30.14 59.358,31.43 58.442,32.972 C57.525,31.43 56.236,30.14 54.694,29.224 C56.236,28.308 57.525,27.018 58.442,25.476 L58.442,25.476 Z M49.265,30.724 L49.267,30.724 C53.5,30.725 56.942,34.169 56.942,38.402 C56.942,39.23 57.614,39.902 58.442,39.902 C59.27,39.902 59.942,39.23 59.942,38.402 C59.942,34.169 63.384,30.725 67.617,30.724 L67.619,30.724 C68.447,30.724 69.119,30.052 69.119,29.224 C69.119,28.396 68.447,27.724 67.619,27.724 L67.617,27.724 C63.385,27.723 59.942,24.28 59.942,20.046 C59.942,19.218 59.27,18.546 58.442,18.546 C57.614,18.546 56.942,19.218 56.942,20.046 C56.942,24.28 53.499,27.723 49.267,27.724 L49.265,27.724 C48.437,27.724 47.765,28.396 47.765,29.224 C47.765,30.052 48.437,30.724 49.265,30.724 L49.265,30.724 Z M117.494,84.251 L117.494,52.835 C117.494,52.007 118.166,51.335 118.994,51.335 C119.822,51.335 120.494,52.007 120.494,52.835 L120.494,84.251 C120.494,85.08 119.822,85.751 118.994,85.751 C118.166,85.751 117.494,85.08 117.494,84.251 L117.494,84.251 Z M117.494,34.501 L117.494,31.751 C117.494,30.923 118.166,30.251 118.994,30.251 C119.822,30.251 120.494,30.923 120.494,31.751 L120.494,34.501 C120.494,35.33 119.822,36.001 118.994,36.001 C118.166,36.001 117.494,35.33 117.494,34.501 L117.494,34.501 Z M120.494,146.252 L120.494,150.834 C120.494,151.663 119.822,152.334 118.994,152.334 C118.166,152.334 117.494,151.663 117.494,150.834 L117.494,146.252 C117.494,145.424 118.166,144.752 118.994,144.752 C119.822,144.752 120.494,145.424 120.494,146.252 L120.494,146.252 Z M117.494,129.446 L117.494,97.751 C117.494,96.924 118.166,96.251 118.994,96.251 C119.822,96.251 120.494,96.924 120.494,97.751 L120.494,129.446 C120.494,130.274 119.822,130.946 118.994,130.946 C118.166,130.946 117.494,130.274 117.494,129.446 L117.494,129.446 Z M187.372,128.946 C187.353,128.946 187.335,128.951 187.316,128.952 C187.296,128.952 187.278,128.948 187.258,128.95 C187.224,128.952 187.193,128.962 187.16,128.967 C187.111,128.974 187.063,128.982 187.015,128.994 C186.967,129.005 186.921,129.02 186.875,129.037 C186.828,129.053 186.782,129.071 186.737,129.091 C186.693,129.112 186.653,129.135 186.612,129.159 C186.569,129.184 186.527,129.21 186.487,129.24 C186.451,129.267 186.416,129.296 186.382,129.327 C186.344,129.361 186.307,129.395 186.273,129.432 C186.242,129.465 186.215,129.499 186.188,129.535 C186.156,129.576 186.126,129.617 186.099,129.661 C186.076,129.699 186.056,129.738 186.036,129.778 C186.012,129.825 185.99,129.872 185.971,129.92 C185.956,129.963 185.943,130.006 185.931,130.05 C185.917,130.1 185.905,130.151 185.896,130.204 C185.889,130.25 185.885,130.297 185.882,130.345 C185.879,130.379 185.872,130.412 185.872,130.446 C185.872,130.467 185.877,130.486 185.878,130.507 C185.879,130.525 185.875,130.542 185.877,130.561 C185.897,130.822 187.109,149.575 174.666,162.872 C174.399,162.461 173.937,162.19 173.412,162.19 C172.584,162.19 171.912,162.862 171.912,163.69 L171.912,165.494 C170.1,167.063 168.052,168.514 165.744,169.81 L165.744,166.69 C165.744,165.862 165.072,165.19 164.244,165.19 C163.416,165.19 162.744,165.862 162.744,166.69 L162.744,171.332 C160.845,172.199 158.799,172.967 156.578,173.611 L156.578,168.012 C156.578,167.184 155.906,166.512 155.078,166.512 C154.25,166.512 153.578,167.184 153.578,168.012 L153.578,174.374 C153.359,174.424 153.155,174.486 152.933,174.533 C150.975,174.947 149.145,175.352 147.411,175.753 L147.411,168.702 C147.411,167.873 146.739,167.202 145.911,167.202 C145.083,167.202 144.411,167.873 144.411,168.702 L144.411,176.469 C142.161,177.023 140.11,177.573 138.244,178.127 L138.244,168.286 C138.244,167.457 137.572,166.786 136.744,166.786 C135.916,166.786 135.244,167.457 135.244,168.286 L135.244,179.077 C132.869,179.879 130.826,180.703 129.078,181.58 L129.078,167.034 C129.078,166.206 128.406,165.534 127.578,165.534 C126.75,165.534 126.078,166.206 126.078,167.034 L126.078,183.324 C123.545,185.037 121.798,186.98 120.494,189.326 L120.494,160.668 C120.494,159.84 119.822,159.168 118.994,159.168 C118.166,159.168 117.494,159.84 117.494,160.668 L117.494,189.326 C116.248,187.085 114.596,185.212 112.244,183.556 L112.244,167.034 C112.244,166.206 111.572,165.534 110.744,165.534 C109.916,165.534 109.244,166.206 109.244,167.034 L109.244,181.755 C107.5,180.855 105.465,180.009 103.078,179.19 L103.078,168.286 C103.078,167.457 102.406,166.786 101.578,166.786 C100.75,166.786 100.078,167.457 100.078,168.286 L100.078,178.225 C98.215,177.664 96.162,177.11 93.912,176.551 L93.912,168.702 C93.912,167.873 93.24,167.202 92.412,167.202 C91.584,167.202 90.912,167.873 90.912,168.702 L90.912,175.831 C89.079,175.405 87.14,174.974 85.055,174.533 C84.947,174.51 84.85,174.48 84.744,174.456 L84.744,168.012 C84.744,167.184 84.072,166.512 83.244,166.512 C82.416,166.512 81.744,167.184 81.744,168.012 L81.744,173.718 C79.524,173.098 77.48,172.353 75.578,171.518 L75.578,166.69 C75.578,165.862 74.906,165.19 74.078,165.19 C73.25,165.19 72.578,165.862 72.578,166.69 L72.578,170.047 C70.277,168.806 68.226,167.417 66.41,165.913 L66.41,163.69 C66.41,162.862 65.737,162.19 64.91,162.19 C64.245,162.19 63.688,162.625 63.491,163.224 C50.871,150.181 52.03,131.632 52.11,130.558 C52.112,130.54 52.108,130.521 52.109,130.501 C52.11,130.483 52.115,130.465 52.115,130.446 C52.115,130.414 52.107,130.384 52.105,130.352 C52.102,130.3 52.098,130.248 52.09,130.198 C52.082,130.15 52.07,130.103 52.057,130.056 C52.044,130.008 52.031,129.962 52.014,129.916 C51.996,129.87 51.975,129.826 51.953,129.781 C51.932,129.74 51.911,129.699 51.887,129.659 C51.86,129.616 51.83,129.576 51.799,129.536 C51.772,129.5 51.744,129.465 51.714,129.432 C51.679,129.394 51.641,129.359 51.602,129.325 C51.569,129.296 51.537,129.268 51.501,129.242 C51.459,129.21 51.414,129.182 51.368,129.156 C51.331,129.134 51.294,129.113 51.254,129.094 C51.205,129.071 51.153,129.051 51.101,129.034 C51.06,129.019 51.02,129.006 50.978,128.996 C50.924,128.982 50.869,128.973 50.812,128.965 C50.783,128.961 50.756,128.953 50.727,128.951 C50.71,128.95 50.693,128.953 50.677,128.952 C50.656,128.952 50.636,128.946 50.615,128.946 L44.532,128.946 L53.763,113.485 L62.993,128.946 L56.912,128.946 C56.891,128.946 56.871,128.951 56.851,128.952 C56.824,128.954 56.798,128.95 56.772,128.953 C56.744,128.955 56.718,128.964 56.691,128.968 C56.64,128.976 56.59,128.985 56.541,128.998 C56.493,129.01 56.446,129.025 56.4,129.041 C56.355,129.058 56.311,129.076 56.268,129.096 C56.222,129.119 56.177,129.143 56.133,129.169 C56.096,129.193 56.06,129.216 56.025,129.243 C55.981,129.274 55.94,129.308 55.9,129.344 C55.87,129.373 55.841,129.402 55.813,129.432 C55.775,129.472 55.741,129.514 55.709,129.558 C55.684,129.591 55.661,129.625 55.639,129.661 C55.61,129.706 55.585,129.754 55.561,129.804 C55.543,129.842 55.526,129.88 55.512,129.919 C55.492,129.971 55.476,130.024 55.463,130.079 C55.452,130.12 55.443,130.161 55.436,130.203 C55.427,130.258 55.422,130.315 55.419,130.373 C55.418,130.398 55.412,130.42 55.412,130.446 C55.412,130.467 55.417,130.488 55.418,130.509 C55.419,130.535 55.415,130.559 55.418,130.585 C57.142,149.021 73.293,157.011 89.254,157.011 C90.002,157.011 90.748,156.994 91.492,156.959 C106.492,156.259 114.34,149.68 114.34,143.543 L114.34,137.12 C117.434,138.366 120.609,139.463 123.745,140.479 L123.745,143.543 C123.745,149.68 131.594,156.259 146.594,156.959 C147.338,156.995 148.083,157.011 148.831,157.011 C151.319,157.011 153.812,156.817 156.254,156.418 C156.269,156.416 156.284,156.414 156.3,156.412 C169.504,154.247 181.214,146.127 182.668,130.585 C182.745,129.76 182.14,129.03 181.314,128.953 C181.253,128.946 181.195,128.951 181.135,128.952 C181.115,128.951 181.096,128.946 181.076,128.946 L174.993,128.946 L184.224,113.485 L193.454,128.946 L187.372,128.946 Z M91.907,106.766 C91.907,93.207 103.207,83.404 111.34,78.104 L111.34,132.579 C100.425,127.497 91.907,120.099 91.907,106.766 L91.907,106.766 Z M119.213,12.684 C118.394,12.56 117.631,13.128 117.51,13.946 C117.388,14.767 117.953,15.529 118.773,15.651 C118.816,15.658 119.575,15.779 120.794,16.06 C120.324,16.508 119.692,16.787 118.994,16.787 C117.549,16.787 116.374,15.611 116.374,14.167 C116.374,12.722 117.549,11.546 118.994,11.546 C120.068,11.546 120.993,12.199 121.396,13.128 C120.078,12.822 119.261,12.691 119.213,12.684 L119.213,12.684 Z M76.506,61.774 C76.506,60.319 77.692,59.134 79.147,59.134 L79.151,59.134 C79.176,59.134 79.203,59.133 79.231,59.132 L112.826,57.255 C112.831,57.256 112.835,57.257 112.84,57.257 C112.858,57.257 112.875,57.252 112.892,57.252 L112.924,57.25 C112.933,57.249 112.941,57.247 112.95,57.247 C113.041,57.24 113.13,57.226 113.215,57.205 C113.226,57.202 113.236,57.198 113.246,57.195 C113.331,57.17 113.412,57.141 113.49,57.104 C113.502,57.098 113.513,57.09 113.525,57.084 C113.599,57.046 113.669,57.004 113.735,56.955 C113.749,56.945 113.761,56.933 113.774,56.922 C113.835,56.873 113.892,56.823 113.944,56.765 C113.96,56.748 113.973,56.73 113.988,56.712 C114.033,56.658 114.076,56.602 114.114,56.54 C114.13,56.515 114.142,56.489 114.157,56.462 C114.187,56.406 114.216,56.349 114.239,56.289 C114.253,56.251 114.263,56.213 114.274,56.175 C114.29,56.122 114.305,56.069 114.315,56.012 C114.323,55.963 114.326,55.914 114.33,55.864 C114.332,55.828 114.34,55.793 114.34,55.757 L114.34,24.078 C114.34,24.065 114.337,24.054 114.337,24.041 C114.336,24.009 114.33,23.978 114.327,23.946 C114.321,23.878 114.315,23.81 114.3,23.744 C114.297,23.732 114.292,23.72 114.289,23.708 C114.268,23.625 114.242,23.544 114.208,23.468 C114.206,23.464 114.203,23.46 114.202,23.456 C114.163,23.372 114.118,23.292 114.066,23.217 C114.061,23.21 114.055,23.205 114.049,23.198 C113.997,23.125 113.94,23.058 113.875,22.997 C113.867,22.989 113.857,22.982 113.848,22.974 C113.783,22.914 113.713,22.86 113.638,22.812 C113.635,22.81 113.633,22.808 113.63,22.807 C110.624,20.935 108.828,17.706 108.828,14.167 C108.828,8.56 113.388,4 118.994,4 C124.599,4 129.16,8.56 129.16,14.167 C129.16,14.64 129.123,15.104 129.06,15.563 C127.459,14.914 125.946,14.395 124.605,13.989 C124.509,10.972 122.033,8.546 118.994,8.546 C115.895,8.546 113.374,11.067 113.374,14.167 C113.374,17.267 115.895,19.787 118.994,19.787 C121.104,19.787 122.944,18.617 123.905,16.893 C125.203,17.287 126.67,17.792 128.212,18.426 C127.395,20.199 126.084,21.731 124.356,22.806 C124.351,22.808 124.348,22.812 124.344,22.814 C124.275,22.858 124.213,22.909 124.152,22.962 C124.138,22.975 124.122,22.985 124.109,22.998 C124.049,23.055 123.997,23.119 123.947,23.185 C123.939,23.196 123.928,23.206 123.92,23.218 C123.868,23.291 123.825,23.37 123.787,23.452 C123.784,23.457 123.781,23.462 123.778,23.467 C123.744,23.545 123.718,23.626 123.697,23.71 C123.694,23.721 123.689,23.731 123.687,23.743 C123.671,23.81 123.665,23.88 123.659,23.951 C123.656,23.98 123.65,24.009 123.65,24.039 C123.649,24.052 123.646,24.065 123.646,24.078 L123.646,55.757 C123.646,55.793 123.654,55.828 123.656,55.864 C123.66,55.914 123.663,55.963 123.671,56.012 C123.681,56.069 123.697,56.123 123.713,56.177 C123.724,56.214 123.733,56.251 123.747,56.288 C123.77,56.349 123.799,56.407 123.83,56.463 C123.844,56.49 123.857,56.516 123.872,56.54 C123.91,56.602 123.953,56.659 123.999,56.713 C124.014,56.731 124.026,56.748 124.042,56.765 C124.094,56.823 124.151,56.873 124.212,56.922 C124.225,56.933 124.238,56.945 124.251,56.955 C124.317,57.004 124.388,57.046 124.461,57.084 C124.473,57.09 124.484,57.098 124.496,57.104 C124.574,57.141 124.655,57.17 124.74,57.195 C124.75,57.198 124.76,57.202 124.771,57.205 C124.857,57.226 124.945,57.24 125.036,57.247 C125.045,57.247 125.053,57.249 125.062,57.25 L125.094,57.252 C125.111,57.252 125.128,57.257 125.146,57.257 C125.151,57.257 125.155,57.256 125.161,57.255 L140.091,58.089 C140.092,58.089 140.093,58.09 140.094,58.09 L140.096,58.09 L158.754,59.132 C158.782,59.133 158.808,59.134 158.834,59.134 L158.838,59.134 C160.295,59.134 161.48,60.319 161.48,61.774 C161.48,63.229 160.295,64.414 158.838,64.414 C158.825,64.414 158.812,64.417 158.798,64.417 C158.783,64.418 158.769,64.415 158.754,64.415 L125.062,66.296 C124.234,66.343 123.602,67.051 123.648,67.878 C123.656,68.031 123.693,68.174 123.744,68.311 L123.745,137.328 C120.554,136.283 117.382,135.162 114.34,133.898 L114.34,67.794 C114.34,67.759 114.333,67.726 114.33,67.692 C114.326,67.637 114.323,67.583 114.314,67.531 C114.306,67.485 114.293,67.441 114.28,67.396 C114.266,67.346 114.253,67.296 114.234,67.248 C114.217,67.205 114.195,67.164 114.174,67.122 C114.152,67.078 114.13,67.034 114.104,66.993 C114.078,66.952 114.049,66.915 114.02,66.877 C113.99,66.839 113.961,66.801 113.927,66.766 C113.895,66.731 113.859,66.701 113.823,66.669 C113.787,66.638 113.751,66.606 113.712,66.578 C113.672,66.549 113.631,66.526 113.589,66.501 C113.547,66.477 113.506,66.453 113.462,66.432 C113.417,66.412 113.37,66.397 113.323,66.38 C113.277,66.365 113.232,66.349 113.184,66.337 C113.135,66.326 113.084,66.321 113.034,66.314 C112.997,66.309 112.962,66.298 112.924,66.296 L79.231,64.415 C79.216,64.415 79.202,64.418 79.188,64.417 C79.174,64.417 79.161,64.414 79.147,64.414 C77.692,64.414 76.506,63.229 76.506,61.774 L76.506,61.774 Z M145.243,39.917 C145.243,45.498 143.324,50.453 139.424,55.047 L126.646,54.333 L126.646,24.851 C128.539,23.497 130.004,21.711 130.944,19.66 C137.897,23.11 145.243,29.273 145.243,39.917 L145.243,39.917 Z M129.852,142.401 C140.163,145.59 149.936,148.628 153.63,153.816 C151.481,154.016 149.19,154.078 146.733,153.962 C135.525,153.44 126.745,148.863 126.745,143.543 L126.745,141.435 C127.791,141.762 128.829,142.084 129.852,142.401 L129.852,142.401 Z M185.512,109.79 C185.242,109.336 184.752,109.059 184.224,109.059 C183.695,109.059 183.206,109.336 182.936,109.79 L171.063,129.677 C170.786,130.14 170.779,130.717 171.046,131.186 C171.313,131.656 171.811,131.946 172.351,131.946 L179.468,131.946 C178.003,141.144 171.313,150.851 156.893,153.383 C153.242,146.512 142.783,143.261 130.739,139.535 C129.417,139.126 128.083,138.712 126.745,138.29 L126.744,69.207 L158.922,67.412 C158.929,67.411 158.935,67.409 158.942,67.409 C162.004,67.353 164.48,64.849 164.48,61.774 C164.48,58.701 162.006,56.198 158.946,56.14 C158.938,56.139 158.931,56.137 158.922,56.136 L143.105,55.252 C146.554,50.581 148.243,45.539 148.243,39.917 C148.243,27.554 139.691,20.596 131.87,16.81 C132.045,15.95 132.16,15.07 132.16,14.167 C132.16,6.907 126.253,1 118.994,1 C111.733,1 105.828,6.907 105.828,14.167 C105.828,18.458 107.885,22.378 111.34,24.849 L111.34,54.333 L79.063,56.136 C79.055,56.137 79.047,56.139 79.039,56.14 C75.98,56.198 73.506,58.701 73.506,61.774 C73.506,64.849 75.983,67.353 79.044,67.409 C79.05,67.409 79.056,67.411 79.063,67.412 L111.34,69.213 L111.34,74.553 C102.636,79.902 88.907,90.862 88.907,106.766 C88.907,122.165 99.116,130.392 111.34,135.846 L111.34,143.543 C111.34,148.863 102.561,153.44 91.353,153.962 C69.818,154.958 60.391,143.079 58.617,131.946 L65.636,131.946 C66.176,131.946 66.673,131.656 66.941,131.186 C67.207,130.717 67.2,130.14 66.923,129.677 L55.051,109.79 C54.781,109.336 54.291,109.059 53.763,109.059 C53.234,109.059 52.745,109.336 52.475,109.79 L40.602,129.677 C40.325,130.14 40.318,130.717 40.585,131.186 C40.852,131.656 41.35,131.946 41.89,131.946 L49.076,131.946 C49.058,139.392 51.026,170.396 84.433,177.468 C112.69,183.451 115.003,187.544 117.532,198.503 C117.534,198.515 117.542,198.524 117.545,198.536 C117.549,198.55 117.554,198.564 117.558,198.579 C117.573,198.628 117.585,198.678 117.604,198.726 C117.622,198.771 117.646,198.812 117.669,198.855 C117.688,198.893 117.704,198.932 117.727,198.968 C117.732,198.976 117.737,198.982 117.742,198.99 C117.765,199.026 117.794,199.057 117.821,199.091 C117.853,199.131 117.883,199.172 117.918,199.208 C117.948,199.24 117.983,199.266 118.015,199.294 C118.023,199.301 118.03,199.308 118.037,199.314 C118.053,199.328 118.067,199.342 118.084,199.355 C118.102,199.369 118.119,199.383 118.138,199.396 C118.176,199.422 118.217,199.443 118.257,199.465 C118.301,199.491 118.344,199.517 118.391,199.539 C118.417,199.549 118.444,199.557 118.471,199.568 C118.495,199.577 118.519,199.582 118.544,199.59 C118.582,199.602 118.617,199.62 118.657,199.628 C118.662,199.629 118.668,199.629 118.674,199.63 C118.776,199.653 118.882,199.665 118.991,199.666 L118.993,199.666 L118.993,199.666 L118.994,199.666 L118.994,199.666 L118.995,199.666 L118.996,199.666 C119.105,199.666 119.211,199.653 119.314,199.63 C119.319,199.629 119.325,199.629 119.331,199.628 C119.37,199.62 119.406,199.602 119.444,199.59 C119.468,199.582 119.492,199.577 119.516,199.568 C119.543,199.557 119.57,199.549 119.597,199.538 C119.643,199.518 119.684,199.492 119.728,199.467 C119.769,199.444 119.811,199.422 119.85,199.396 C119.868,199.382 119.886,199.369 119.904,199.355 C119.92,199.342 119.934,199.328 119.95,199.314 C119.956,199.309 119.963,199.303 119.969,199.297 C120.003,199.268 120.038,199.241 120.07,199.208 C120.104,199.172 120.133,199.132 120.164,199.093 C120.192,199.059 120.222,199.026 120.246,198.989 C120.251,198.982 120.255,198.976 120.26,198.969 C120.282,198.934 120.298,198.895 120.317,198.858 C120.34,198.814 120.365,198.771 120.384,198.725 C120.402,198.68 120.413,198.632 120.427,198.585 C120.432,198.568 120.439,198.551 120.443,198.533 C120.446,198.522 120.453,198.514 120.456,198.503 C121.78,192.764 123.052,188.909 128.017,185.677 C128.271,185.599 128.496,185.459 128.672,185.27 C133.254,182.513 140.725,180.184 153.555,177.468 C162.483,175.579 169.163,171.978 174.162,167.575 C174.348,167.467 174.51,167.324 174.634,167.149 C187.891,155.081 188.924,137.338 188.911,131.946 L196.097,131.946 C196.637,131.946 197.135,131.656 197.401,131.186 C197.668,130.717 197.661,130.14 197.385,129.677 L185.512,109.79 Z"/>
</svg>
