<svg xmlns="http://www.w3.org/2000/svg" width="30" height="30" viewBox="0 0 30 30">
  <path fill="#FFF" d="M15,13.0409198 L7.72820143,5.31463386 C7.34968496,4.91246011 6.71681049,4.8932821 6.31463674,5.27179857 C5.91246299,5.65031504 5.89328497,6.28318951 6.27180144,6.68536326 L13.6267523,14.4999986 L6.27180144,22.3146339 C5.89328497,22.7168076 5.91246299,23.3496821 6.31463674,23.7281986 C6.71681049,24.106715 7.34968496,24.087537 7.72820143,23.6853633 L15,15.9590773 L22.2717986,23.6853633 C22.650315,24.087537 23.2831895,24.106715 23.6853633,23.7281986 C24.087537,23.3496821 24.106715,22.7168076 23.7281986,22.3146339 L16.3732477,14.4999986 L23.7281986,6.68536326 C24.106715,6.28318951 24.087537,5.65031504 23.6853633,5.27179857 C23.2831895,4.8932821 22.650315,4.91246011 22.2717986,5.31463386 L15,13.0409198 Z"/>
</svg>
