<svg xmlns="http://www.w3.org/2000/svg" width="240" height="200" viewBox="0 0 240 200">
  <path fill="#868998" fill-rule="evenodd" d="M176.255726,115.855 C176.255726,114.302 174.992726,113.039 173.440726,113.038 L173.439726,113.038 L167.328726,113.038 L167.328726,113.038 C165.506726,113.038 163.880726,112.195 162.812726,110.881 L155.873726,110.881 C155.873726,110.92 155.879726,110.959 155.879726,110.999 L155.879726,119.015 C155.879726,119.018 155.878726,119.021 155.878726,119.024 C155.873726,122.227 153.267726,124.83 150.064726,124.83 L142.601726,124.83 L142.600726,124.83 C141.047726,124.831 139.785726,126.094 139.785726,127.647 C139.785726,129.199 141.048726,130.462 142.601726,130.462 L150.064726,130.462 C150.067726,130.462 150.068726,130.462 150.071726,130.462 C152.857726,130.466 155.188726,132.439 155.749726,135.063 L161.511726,135.063 L161.511726,124.486 C161.511726,121.282 164.116726,118.675 167.319726,118.671 C167.322726,118.671 167.325726,118.67 167.328726,118.67 L173.439726,118.67 C174.992726,118.67 176.255726,117.407 176.255726,115.855 L176.255726,115.855 Z M161.511726,147.273 C161.511726,147.272 161.511726,147.27 161.511726,147.268 L161.511726,138.063 L155.879726,138.063 L155.879726,138.641 C155.879726,138.644 155.878726,138.647 155.878726,138.65 C155.873726,141.853 153.267726,144.456 150.064726,144.456 L134.777726,144.456 C131.574726,144.456 128.968726,141.853 128.963726,138.65 C128.963726,138.647 128.963726,138.644 128.963726,138.641 L128.963726,138.063 L123.330726,138.063 L123.330726,157.538 C123.330726,157.541 123.329726,157.544 123.329726,157.547 C123.327726,158.566 123.061726,159.522 122.598726,160.355 L128.963726,160.355 L128.963726,155.904 C128.963726,152.7 131.567726,150.093 134.771726,150.089 C134.774726,150.089 134.776726,150.088 134.779726,150.088 L158.695726,150.088 C160.248726,150.088 161.511726,148.825 161.511726,147.273 L161.511726,147.273 Z M128.963726,168.696 C128.963726,168.692 128.963726,168.689 128.963726,168.687 L128.963726,163.355 L117.788726,163.355 C117.754726,163.355 117.723726,163.348 117.690726,163.346 C117.630726,163.347 117.573726,163.355 117.513726,163.355 L99.0007258,163.355 C98.9967258,163.355 98.9937258,163.355 98.9907258,163.355 C96.8647258,163.355 95.0067258,162.205 93.9927258,160.498 L87.5427258,160.498 L87.5427258,166.102 C87.5427258,166.104 87.5427258,166.105 87.5427258,166.107 C87.5427258,167.659 88.8057258,168.923 90.3587258,168.923 C90.5017258,168.923 90.6367258,168.949 90.7667258,168.986 L117.513726,168.986 C117.516726,168.986 117.519726,168.987 117.521726,168.987 C120.725726,168.991 123.329726,171.597 123.330726,174.801 L123.330726,174.802 L123.330726,184.723 L129.095726,184.723 C129.660726,182.106 131.989726,180.138 134.771726,180.135 C134.774726,180.135 134.776726,180.134 134.779726,180.134 L143.951726,180.134 C145.503726,180.134 146.765726,178.871 146.765726,177.319 C146.765726,175.766 145.504726,174.502 143.952726,174.502 L143.951726,174.502 L134.777726,174.502 C131.574726,174.502 128.968726,171.898 128.963726,168.696 L128.963726,168.696 Z M123.330726,191.274 L128.963726,191.274 L128.963726,187.723 L123.330726,187.723 L123.330726,191.274 Z M86.8627258,157.498 L93.1737258,157.498 L93.1737258,149.041 C93.1737258,149.035 93.1757258,149.028 93.1757258,149.022 C93.1807258,147.475 93.7837258,146.022 94.8787258,144.929 C95.9677258,143.839 97.4147258,143.24 98.9527258,143.23 C98.9657258,143.23 98.9777258,143.227 98.9907258,143.227 L108.793726,143.227 L108.794726,143.227 L108.795726,143.227 C109.546726,143.227 110.252726,142.934 110.782726,142.402 C111.315726,141.872 111.607726,141.166 111.608726,140.415 C111.608726,140.414 111.607726,140.413 111.607726,140.412 L111.607726,128.584 L105.975726,128.584 L105.975726,131.779 C105.975726,131.783 105.974726,131.786 105.974726,131.789 C105.972726,133.338 105.368726,134.795 104.273726,135.892 C103.175726,136.991 101.716726,137.595 100.163726,137.595 L100.160726,137.595 L98.9907258,137.595 L98.9887258,137.595 C97.4357258,137.595 95.9767258,136.991 94.8787258,135.892 C93.7867258,134.8 93.1837258,133.35 93.1767258,131.808 C93.1767258,131.798 93.1737258,131.789 93.1737258,131.779 L93.1737258,129.241 C93.1737258,127.688 91.9107258,126.426 90.3597258,126.426 C88.8057258,126.426 87.5427258,127.688 87.5427258,129.241 L87.5427258,129.242 L87.5427258,142.942 C87.5427258,142.947 87.5437258,142.952 87.5437258,142.957 C87.5437258,142.966 87.5427258,142.976 87.5427258,142.985 L87.5427258,143.225 C87.5427258,143.308 87.5307258,143.387 87.5177258,143.466 C87.2577258,146.435 84.7627258,148.772 81.7277258,148.772 L73.9507258,148.772 L73.9497258,148.772 C72.3977258,148.773 71.1357258,150.036 71.1357258,151.588 C71.1357258,153.14 72.3977258,154.404 73.9507258,154.404 L73.9507258,154.404 L81.7267258,154.404 C81.7297258,154.404 81.7327258,154.405 81.7357258,154.405 C83.9567258,154.409 85.8857258,155.663 86.8627258,157.498 L86.8627258,157.498 Z M105.975726,116.048 L105.975726,116.048 L105.975726,116.048 L105.975726,125.584 L111.607726,125.584 L111.607726,116.048 C111.607726,114.495 110.344726,113.233 108.792726,113.233 C107.239726,113.233 105.975726,114.495 105.975726,116.048 L105.975726,116.048 Z M123.330726,108.416 L123.330726,108.416 L123.330726,110.232 L128.963726,110.232 L128.963726,88.402 L123.330726,88.402 L123.330726,91.152 C123.330726,91.156 123.329726,91.159 123.329726,91.162 C123.324726,94.365 120.717726,96.969 117.513726,96.969 L113.918726,96.969 C110.713726,96.969 108.107726,94.364 108.102726,91.162 C108.102726,91.159 108.101726,91.156 108.101726,91.152 L108.101726,88.402 L102.469726,88.402 L102.469726,99.781 C102.469726,99.782 102.470726,99.784 102.470726,99.786 C102.470726,101.337 103.733726,102.601 105.286726,102.601 L117.513726,102.601 C117.516726,102.601 117.519726,102.602 117.521726,102.602 C120.725726,102.605 123.330726,105.211 123.330726,108.416 L123.330726,108.416 Z M102.469726,58.502 L102.469726,58.502 L102.469726,60.075 L108.101726,60.075 L108.101726,58.502 L108.101726,58.502 C108.101726,56.949 106.838726,55.687 105.286726,55.687 C103.733726,55.687 102.469726,56.949 102.469726,58.502 L102.469726,58.502 Z M102.469726,85.402 L108.101726,85.402 L108.101726,63.075 L102.469726,63.075 L102.469726,85.402 Z M123.330726,81.302 L123.330726,85.402 L128.963726,85.402 L128.963726,81.302 C128.963726,79.749 127.698726,78.487 126.147726,78.487 C124.593726,78.487 123.330726,79.749 123.330726,81.302 L123.330726,81.302 Z M123.330726,135.063 L128.963726,135.063 L128.963726,113.233 L123.330726,113.233 L123.330726,135.063 Z M154.964726,107.881 L161.552726,107.881 C161.527726,107.667 161.513726,107.452 161.512726,107.232 C161.512726,107.229 161.511726,107.226 161.511726,107.223 L161.511726,89.061 C161.511726,87.508 160.247726,86.245 158.695726,86.245 C157.142726,86.245 155.879726,87.508 155.879726,89.061 L155.879726,93.735 C155.879726,93.739 155.878726,93.742 155.878726,93.745 C155.873726,96.826 153.460726,99.346 150.425726,99.534 C150.365726,99.541 150.306726,99.552 150.244726,99.552 L146.107726,99.552 L146.106726,99.552 C144.554726,99.553 143.293726,100.815 143.293726,102.368 C143.293726,103.919 144.555726,105.184 146.107726,105.184 L150.062726,105.184 C150.064726,105.184 150.066726,105.184 150.068726,105.184 C152.125726,105.186 153.931726,106.263 154.964726,107.881 L154.964726,107.881 Z M179.255726,115.855 C179.255726,119.062 176.646726,121.67 173.439726,121.67 L167.332726,121.67 C167.331726,121.67 167.329726,121.67 167.327726,121.67 C165.776726,121.67 164.511726,122.934 164.511726,124.486 L164.511726,147.272 C164.511726,147.276 164.510726,147.279 164.510726,147.282 C164.505726,150.485 161.899726,153.088 158.695726,153.088 L134.783726,153.088 C134.781726,153.088 134.780726,153.088 134.778726,153.088 C133.227726,153.088 131.963726,154.352 131.963726,155.904 L131.963726,168.682 C131.963726,168.684 131.963726,168.686 131.963726,168.687 C131.963726,170.239 133.225726,171.502 134.777726,171.502 L143.948726,171.502 L143.951726,171.502 C147.157726,171.502 149.765726,174.112 149.765726,177.319 C149.765726,180.526 147.157726,183.134 143.951726,183.134 L134.783726,183.134 C134.781726,183.134 134.780726,183.134 134.778726,183.134 C133.227726,183.134 131.963726,184.397 131.963726,185.95 L131.963726,185.951 L131.963726,192.773 C131.963726,193.602 131.291726,194.273 130.463726,194.273 L121.830726,194.273 C121.002726,194.273 120.330726,193.602 120.330726,192.773 L120.330726,174.802 C120.330726,173.249 119.066726,171.987 117.514726,171.987 C117.512726,171.987 117.511726,171.986 117.509726,171.986 L90.3597258,171.986 C90.1877258,171.986 90.0257258,171.951 89.8717258,171.898 C86.8957258,171.649 84.5487258,169.155 84.5437258,166.118 C84.5437258,166.114 84.5427258,166.111 84.5427258,166.107 L84.5427258,160.22 C84.5427258,158.667 83.2797258,157.405 81.7277258,157.405 C81.7257258,157.405 81.7237258,157.404 81.7227258,157.404 L73.9507258,157.404 L73.9507258,157.404 C70.7437258,157.404 68.1357258,154.795 68.1357258,151.588 C68.1357258,148.381 70.7437258,145.772 73.9507258,145.772 L73.9527258,145.772 L81.7277258,145.772 C83.2757258,145.772 84.5347258,144.516 84.5427258,142.971 L84.5427258,129.242 L84.5427258,129.241 C84.5427258,126.034 87.1517258,123.426 90.3597258,123.426 C93.5667258,123.426 96.1737258,126.034 96.1737258,129.241 L96.1737258,131.766 C96.1737258,131.772 96.1757258,131.776 96.1757258,131.781 C96.1757258,132.533 96.4677258,133.24 96.9997258,133.771 C97.5307258,134.302 98.2377258,134.595 98.9887258,134.595 L98.9897258,134.595 L100.161726,134.595 L100.162726,134.595 C100.914726,134.595 101.620726,134.302 102.151726,133.771 C102.683726,133.24 102.975726,132.534 102.976726,131.783 C102.976726,131.781 102.975726,131.78 102.975726,131.779 L102.975726,116.048 L102.975726,116.048 C102.975726,112.841 105.585726,110.233 108.792726,110.233 C111.999726,110.233 114.607726,112.841 114.607726,116.048 L114.607726,127.064 C114.607726,127.071 114.609726,127.077 114.609726,127.084 C114.609726,127.091 114.607726,127.097 114.607726,127.104 L114.607726,140.412 C114.607726,140.416 114.606726,140.418 114.606726,140.422 C114.604726,141.971 114.000726,143.428 112.903726,144.523 C111.807726,145.623 110.347726,146.227 108.795726,146.227 L108.793726,146.227 L108.792726,146.227 L98.9937258,146.227 C98.9927258,146.227 98.9917258,146.227 98.9897258,146.227 L98.9887258,146.227 L98.9877258,146.227 C98.2377258,146.227 97.5297258,146.52 96.9997258,147.051 C96.4667258,147.582 96.1747258,148.289 96.1747258,149.04 C96.1747258,149.043 96.1737258,149.046 96.1737258,149.05 L96.1737258,157.535 C96.1737258,157.536 96.1747258,157.538 96.1747258,157.54 C96.1747258,159.09 97.4347258,160.353 98.9857258,160.355 C98.9877258,160.355 98.9897258,160.355 98.9907258,160.355 L117.513726,160.355 C119.067726,160.355 120.329726,159.09 120.329726,157.539 C120.329726,157.537 120.330726,157.535 120.330726,157.534 L120.330726,108.416 C120.330726,106.863 119.066726,105.601 117.514726,105.601 C117.512726,105.601 117.511726,105.601 117.509726,105.601 L105.285726,105.601 L105.285726,105.601 C102.081726,105.6 99.4757258,102.997 99.4707258,99.794 C99.4707258,99.792 99.4697258,99.789 99.4697258,99.785 L99.4697258,58.502 C99.4697258,55.295 102.079726,52.687 105.286726,52.687 C108.493726,52.687 111.101726,55.295 111.101726,58.502 L111.101726,58.502 L111.101726,86.893 C111.101726,86.896 111.102726,86.899 111.102726,86.902 C111.102726,86.906 111.101726,86.909 111.101726,86.912 L111.101726,91.148 C111.101726,91.149 111.102726,91.151 111.102726,91.153 C111.102726,92.705 112.365726,93.969 113.918726,93.969 L117.513726,93.969 C119.067726,93.969 120.329726,92.705 120.329726,91.153 C120.329726,91.151 120.330726,91.149 120.330726,91.148 L120.330726,81.029 C120.330726,80.936 120.341726,80.844 120.358726,80.755 C120.634726,77.804 123.124726,75.487 126.147726,75.487 C129.169726,75.487 131.658726,77.804 131.935726,80.754 C131.951726,80.844 131.963726,80.936 131.963726,81.03 L131.963726,138.636 C131.963726,138.638 131.963726,138.64 131.963726,138.641 C131.963726,140.193 133.225726,141.456 134.777726,141.456 L150.064726,141.456 C151.616726,141.456 152.878726,140.193 152.878726,138.641 C152.878726,138.64 152.879726,138.638 152.879726,138.636 L152.879726,136.279 L152.879726,136.278 C152.879726,134.725 151.615726,133.462 150.065726,133.462 C150.063726,133.462 150.062726,133.462 150.061726,133.462 L142.601726,133.462 C139.394726,133.462 136.785726,130.854 136.785726,127.647 C136.785726,124.44 139.394726,121.83 142.601726,121.83 L142.603726,121.83 L150.064726,121.83 C151.616726,121.83 152.878726,120.567 152.878726,119.015 C152.878726,119.014 152.879726,119.012 152.879726,119.01 L152.879726,110.999 C152.879726,109.446 151.615726,108.184 150.065726,108.184 C150.063726,108.184 150.062726,108.184 150.060726,108.184 L146.107726,108.184 C142.901726,108.184 140.293726,105.575 140.293726,102.368 C140.293726,99.161 142.901726,96.552 146.107726,96.552 L146.109726,96.552 L150.064726,96.552 C151.616726,96.552 152.878726,95.288 152.878726,93.736 C152.878726,93.734 152.879726,93.732 152.879726,93.731 L152.879726,89.061 L152.879726,89.06 C152.879726,85.854 155.488726,83.245 158.695726,83.245 C161.902726,83.245 164.511726,85.854 164.511726,89.061 L164.511726,107.218 C164.511726,107.22 164.512726,107.222 164.512726,107.223 C164.512726,108.775 165.775726,110.038 167.328726,110.038 L167.328726,110.038 L173.437726,110.038 L173.439726,110.038 C176.646726,110.038 179.255726,112.648 179.255726,115.855 L179.255726,115.855 Z M156.359726,70.835 C156.359726,72.121 157.406726,73.168 158.693726,73.168 C159.980726,73.168 161.027726,72.121 161.027726,70.835 C161.027726,69.548 159.980726,68.501 158.693726,68.501 C157.406726,68.501 156.359726,69.548 156.359726,70.835 L156.359726,70.835 Z M153.359726,70.835 C153.359726,67.894 155.752726,65.501 158.693726,65.501 C161.634726,65.501 164.027726,67.894 164.027726,70.835 C164.027726,73.775 161.634726,76.168 158.693726,76.168 C155.752726,76.168 153.359726,73.775 153.359726,70.835 L153.359726,70.835 Z M86.7717258,110.891 C86.7717258,112.868 88.3807258,114.477 90.3587258,114.477 C92.3367258,114.477 93.9457258,112.868 93.9457258,110.891 C93.9457258,108.913 92.3367258,107.305 90.3587258,107.305 C88.3807258,107.305 86.7717258,108.913 86.7717258,110.891 L86.7717258,110.891 Z M90.3587258,104.305 C93.9907258,104.305 96.9457258,107.259 96.9457258,110.891 C96.9457258,114.522 93.9907258,117.477 90.3587258,117.477 C86.7267258,117.477 83.7717258,114.522 83.7717258,110.891 C83.7717258,107.259 86.7267258,104.305 90.3587258,104.305 L90.3587258,104.305 Z M122.534726,58.179 C122.534726,60.169 124.153726,61.788 126.144726,61.788 C128.135726,61.788 129.755726,60.169 129.755726,58.179 C129.755726,56.188 128.135726,54.569 126.144726,54.569 C124.153726,54.569 122.534726,56.188 122.534726,58.179 L122.534726,58.179 Z M119.534726,58.179 C119.534726,54.535 122.499726,51.569 126.144726,51.569 C129.790726,51.569 132.755726,54.535 132.755726,58.179 C132.755726,61.823 129.790726,64.788 126.144726,64.788 C122.499726,64.788 119.534726,61.823 119.534726,58.179 L119.534726,58.179 Z M162.107726,177.318 C162.107726,176.031 161.060726,174.984 159.773726,174.984 C158.486726,174.984 157.439726,176.031 157.439726,177.318 C157.439726,178.605 158.486726,179.651 159.773726,179.651 C161.060726,179.651 162.107726,178.605 162.107726,177.318 L162.107726,177.318 Z M165.107726,177.318 C165.107726,180.258 162.714726,182.651 159.773726,182.651 C156.832726,182.651 154.439726,180.258 154.439726,177.318 C154.439726,174.377 156.832726,171.984 159.773726,171.984 C162.714726,171.984 165.107726,174.377 165.107726,177.318 L165.107726,177.318 Z M184.065726,35.799 C183.224726,35.065 181.542726,33.919 179.036726,33.792 C176.874726,33.681 174.567726,34.372 172.147726,35.799 C174.567726,37.224 176.874726,37.915 179.036726,37.807 C181.542726,37.681 183.224726,36.534 184.065726,35.799 L184.065726,35.799 Z M187.313726,35.806 C187.408726,36.231 187.324726,36.691 187.032726,37.06 C186.921726,37.2 184.238726,40.514 179.268726,40.798 C179.038726,40.813 178.805726,40.818 178.573726,40.818 C175.638726,40.818 172.586726,39.755 169.448726,37.658 C168.447726,38.45 167.432726,39.347 166.399726,40.38 C166.106726,40.673 165.721726,40.819 165.338726,40.819 C164.954726,40.819 164.569726,40.673 164.276726,40.38 C163.692726,39.794 163.692726,38.844 164.276726,38.258 C165.178726,37.356 166.075726,36.541 166.967726,35.802 C166.076726,35.062 165.179726,34.243 164.277726,33.34 C163.691726,32.755 163.691726,31.806 164.277726,31.219 C164.863726,30.633 165.812726,30.633 166.398726,31.219 C167.433726,32.254 168.449726,33.151 169.450726,33.943 C172.842726,31.68 176.135726,30.621 179.269726,30.799 C184.237726,31.086 186.921726,34.398 187.031726,34.54 C187.327726,34.911 187.411726,35.377 187.313726,35.806 L187.313726,35.806 Z M53.2077258,93.31 C49.7127258,91.114 46.3847258,90.09 43.2547258,90.259 C39.5237258,90.474 37.1157258,92.38 36.1527258,93.311 C37.1237258,94.251 39.5427258,96.168 43.3167258,96.366 C46.4237258,96.52 49.7337258,95.493 53.2077258,93.31 L53.2077258,93.31 Z M55.8427258,95.165 C51.7457258,97.963 47.7687258,99.383 43.9607258,99.383 C43.6667258,99.383 43.3747258,99.374 43.0837258,99.358 C36.8257258,98.998 33.4637258,94.845 33.3227258,94.669 C33.0077258,94.271 32.9287258,93.763 33.0627258,93.311 C32.9287258,92.858 33.0067258,92.351 33.3227258,91.954 C33.4637258,91.778 36.8247258,87.624 43.0817258,87.264 C47.1617258,87.037 51.4327258,88.443 55.8457258,91.456 C57.2377258,90.373 58.6537258,89.117 60.0917258,87.679 C60.6777258,87.093 61.6277258,87.093 62.2137258,87.679 C62.7987258,88.265 62.7987258,89.214 62.2137258,89.8 C60.9087258,91.105 59.6137258,92.27 58.3297258,93.309 C59.6137258,94.348 60.9087258,95.516 62.2137258,96.821 C62.7987258,97.407 62.7987258,98.357 62.2137258,98.943 C61.9207258,99.236 61.5367258,99.382 61.1527258,99.382 C60.7687258,99.382 60.3847258,99.236 60.0917258,98.943 C58.6517258,97.503 57.2357258,96.248 55.8427258,95.165 L55.8427258,95.165 Z M70.2077258,36.821 C71.9867258,37.837 73.4637258,39.314 74.4797258,41.093 C75.4957258,39.314 76.9727258,37.837 78.7517258,36.821 C76.9727258,35.806 75.4947258,34.328 74.4797258,32.549 C73.4647258,34.328 71.9867258,35.806 70.2077258,36.821 L70.2077258,36.821 Z M63.0777258,36.821 C63.0777258,35.993 63.7497258,35.321 64.5777258,35.321 C69.2107258,35.321 72.9797258,31.551 72.9797258,26.919 C72.9797258,26.091 73.6517258,25.419 74.4797258,25.419 L74.4797258,25.419 L74.4807258,25.419 C75.3077258,25.419 75.9807258,26.091 75.9807258,26.919 C75.9807258,31.551 79.7497258,35.321 84.3817258,35.321 C85.2107258,35.321 85.8817258,35.993 85.8817258,36.821 C85.8817258,37.339 85.6197258,37.795 85.2207258,38.065 C84.9807258,38.227 84.6927258,38.322 84.3817258,38.322 C79.7497258,38.322 75.9797258,42.091 75.9797258,46.725 C75.9797258,47.553 75.3077258,48.225 74.4797258,48.225 C73.6517258,48.225 72.9797258,47.553 72.9797258,46.725 C72.9797258,42.091 69.2097258,38.322 64.5777258,38.322 C64.2677258,38.322 63.9787258,38.227 63.7397258,38.065 C63.3397258,37.795 63.0777258,37.339 63.0777258,36.821 L63.0777258,36.821 Z M64.0467258,171.144 C64.0457258,171.144 64.0447258,171.145 64.0447258,171.145 C63.2777258,171.143 62.6557258,170.522 62.6527258,169.755 C62.6527258,169.754 62.6527258,169.752 62.6527258,169.751 C62.6527258,168.923 61.9817258,168.251 61.1527258,168.251 L61.1527258,168.251 L61.1517258,168.251 C60.3237258,168.251 59.6517258,168.923 59.6517258,169.751 C59.6517258,169.752 59.6527258,169.754 59.6527258,169.755 C59.6497258,170.522 59.0267258,171.143 58.2597258,171.145 C58.2597258,171.145 58.2587258,171.144 58.2577258,171.144 C57.4297258,171.144 56.7577258,171.816 56.7577258,172.644 C56.7577258,173.18 57.0407258,173.647 57.4637258,173.912 C57.6937258,174.057 57.9647258,174.145 58.2577258,174.145 L58.2597258,174.145 C59.0277258,174.146 59.6527258,174.77 59.6527258,175.538 C59.6527258,176.366 60.3247258,177.038 61.1527258,177.038 C61.9807258,177.038 62.6527258,176.366 62.6527258,175.538 C62.6527258,174.77 63.2767258,174.146 64.0447258,174.145 L64.0467258,174.145 C64.3387258,174.145 64.6107258,174.057 64.8417258,173.912 C65.2637258,173.647 65.5467258,173.18 65.5467258,172.644 C65.5467258,171.816 64.8747258,171.144 64.0467258,171.144 L64.0467258,171.144 Z M199.877726,73.223 C200.079726,73.324 200.303726,73.387 200.545726,73.387 L200.546726,73.387 C200.878726,73.388 201.148726,73.658 201.148726,73.99 C201.148726,74.818 201.820726,75.49 202.648726,75.49 C203.476726,75.49 204.148726,74.818 204.148726,73.99 C204.148726,73.658 204.419726,73.387 204.752726,73.387 L204.754726,73.387 C205.582726,73.387 206.254726,72.715 206.254726,71.887 C206.254726,71.576 206.159726,71.288 205.997726,71.048 C205.728726,70.649 205.272726,70.386 204.753726,70.386 L204.752726,70.386 C204.419726,70.386 204.149726,70.115 204.149726,69.783 C204.149726,68.954 203.477726,68.283 202.649726,68.283 C201.819726,68.283 201.149726,68.954 201.149726,69.783 C201.149726,70.115 200.878726,70.386 200.546726,70.387 C200.545726,70.387 200.545726,70.386 200.544726,70.386 C199.716726,70.386 199.044726,71.058 199.044726,71.886 C199.044726,72.474 199.385726,72.977 199.877726,73.223 L199.877726,73.223 Z M201.221726,144.727 C200.560726,144.245 199.979726,143.664 199.498726,143.003 C199.016726,143.664 198.435726,144.245 197.774726,144.727 C198.435726,145.208 199.016726,145.789 199.498726,146.45 C199.979726,145.789 200.560726,145.208 201.221726,144.727 L201.221726,144.727 Z M206.863726,145.787 C206.591726,146.059 206.216726,146.227 205.802726,146.227 L205.800726,146.227 C203.151726,146.228 200.998726,148.383 200.998726,151.031 C200.998726,151.859 200.326726,152.531 199.498726,152.531 C198.670726,152.531 197.998726,151.859 197.998726,151.031 C197.998726,148.383 195.842726,146.228 193.193726,146.227 L193.191726,146.227 C192.777726,146.227 192.402726,146.059 192.130726,145.787 C191.859726,145.516 191.691726,145.141 191.691726,144.727 C191.691726,143.898 192.363726,143.227 193.191726,143.227 L193.193726,143.227 C195.839726,143.226 197.994726,141.073 197.998726,138.427 C197.998726,138.425 197.997726,138.423 197.997726,138.42 C197.997726,137.593 198.670726,136.92 199.497726,136.92 L199.498726,136.921 L199.498726,136.92 C200.326726,136.92 200.998726,137.593 200.998726,138.42 C200.998726,138.423 200.998726,138.425 200.998726,138.427 C201.002726,141.073 203.155726,143.226 205.800726,143.227 L205.803726,143.227 C206.630726,143.227 207.303726,143.898 207.303726,144.727 C207.303726,145.141 207.134726,145.516 206.863726,145.787 L206.863726,145.787 Z M134.367726,42.638 C135.195726,42.638 135.867726,41.966 135.867726,41.138 L135.867726,30.462 C135.867726,29.634 135.195726,28.962 134.367726,28.962 C133.539726,28.962 132.867726,29.634 132.867726,30.462 L132.867726,41.138 C132.867726,41.966 133.539726,42.638 134.367726,42.638 L134.367726,42.638 Z M126.146726,38.321 C126.974726,38.321 127.646726,37.649 127.646726,36.821 L127.646726,17.759 C127.646726,16.931 126.974726,16.259 126.146726,16.259 C125.318726,16.259 124.646726,16.931 124.646726,17.759 L124.646726,36.821 C124.646726,37.649 125.318726,38.321 126.146726,38.321 L126.146726,38.321 Z M126.146726,12.29 C126.974726,12.29 127.646726,11.618 127.646726,10.79 L127.646726,6.5 C127.646726,5.672 126.974726,5 126.146726,5 C125.318726,5 124.646726,5.672 124.646726,6.5 L124.646726,10.79 C124.646726,11.618 125.318726,12.29 126.146726,12.29 L126.146726,12.29 Z M116.424726,41.138 L116.424726,30.462 C116.424726,29.634 117.096726,28.962 117.924726,28.962 C118.753726,28.962 119.424726,29.634 119.424726,30.462 L119.424726,41.138 C119.424726,41.966 118.753726,42.638 117.924726,42.638 C117.096726,42.638 116.424726,41.966 116.424726,41.138 L116.424726,41.138 Z"/>
</svg>
