<svg xmlns="http://www.w3.org/2000/svg" width="240" height="200" viewBox="0 0 240 200">
  <path fill="#6131B7" fill-rule="evenodd" d="M105.440527,55.61 L108.188527,54.023 C109.241527,55.505 110.535527,56.799 112.016527,57.853 L110.429527,60.6 C108.477527,59.256 106.784527,57.563 105.440527,55.61 L105.440527,55.61 Z M110.431527,28.796 L112.019527,31.544 C110.538527,32.597 109.244527,33.89 108.191527,35.37 L105.442527,33.784 C106.787527,31.832 108.479527,30.139 110.431527,28.796 L110.431527,28.796 Z M137.250527,33.781 L134.500527,35.369 C133.447527,33.888 132.153527,32.594 130.671527,31.542 L132.259527,28.793 C134.212527,30.137 135.905527,31.829 137.250527,33.781 L137.250527,33.781 Z M132.261527,60.603 L130.674527,57.855 C132.155527,56.801 133.450527,55.506 134.503527,54.025 L137.252527,55.612 C135.907527,57.566 134.214527,59.258 132.261527,60.603 L132.261527,60.603 Z M119.845527,60.769 L119.845527,63.925 C117.419527,63.737 115.125527,63.097 113.032527,62.091 L114.612527,59.355 C116.232527,60.102 117.991527,60.597 119.845527,60.769 L119.845527,60.769 Z M122.845527,60.769 C124.699527,60.598 126.457527,60.104 128.078527,59.356 L129.658527,62.093 C127.565527,63.098 125.270527,63.737 122.845527,63.925 L122.845527,60.769 Z M138.742527,53.009 L136.004527,51.428 C136.752527,49.808 137.245527,48.05 137.417527,46.196 L140.574527,46.196 C140.387527,48.621 139.747527,50.916 138.742527,53.009 L138.742527,53.009 Z M140.574527,43.196 L137.417527,43.196 C137.245527,41.342 136.750527,39.585 136.002527,37.965 L138.740527,36.383 C139.745527,38.476 140.386527,40.771 140.574527,43.196 L140.574527,43.196 Z M119.845527,28.63 C117.992527,28.801 116.234527,29.296 114.615527,30.043 L113.034527,27.305 C115.127527,26.301 117.420527,25.661 119.845527,25.473 L119.845527,28.63 Z M122.845527,28.629 L122.845527,25.473 C125.269527,25.661 127.563527,26.3 129.656527,27.303 L128.074527,30.041 C126.455527,29.294 124.698527,28.8 122.845527,28.629 L122.845527,28.629 Z M108.200527,44.698 C108.200527,37.449 114.097527,31.553 121.347527,31.553 C128.596527,31.553 134.493527,37.449 134.493527,44.698 C134.493527,51.948 128.596527,57.845 121.347527,57.845 C114.097527,57.845 108.200527,51.948 108.200527,44.698 L108.200527,44.698 Z M103.952527,36.386 L106.690527,37.967 C105.942527,39.586 105.448527,41.343 105.276527,43.196 L102.120527,43.196 C102.308527,40.772 102.948527,38.479 103.952527,36.386 L103.952527,36.386 Z M102.120527,46.196 L105.275527,46.196 C105.447527,48.049 105.941527,49.806 106.688527,51.426 L103.950527,53.006 C102.946527,50.914 102.307527,48.62 102.120527,46.196 L102.120527,46.196 Z M143.650527,44.698 C143.650527,32.401 133.645527,22.397 121.347527,22.397 C109.049527,22.397 99.0445272,32.401 99.0445272,44.698 C99.0445272,56.996 109.049527,67.001 121.347527,67.001 C133.645527,67.001 143.650527,56.996 143.650527,44.698 L143.650527,44.698 Z M127.265527,45.481 L127.265527,43.169 C127.265527,42.341 127.937527,41.669 128.765527,41.669 C129.593527,41.669 130.265527,42.341 130.265527,43.169 L130.265527,45.481 C130.265527,46.309 129.593527,46.981 128.765527,46.981 C127.937527,46.981 127.265527,46.309 127.265527,45.481 L127.265527,45.481 Z M112.424527,45.481 L112.424527,43.169 C112.424527,42.341 113.096527,41.669 113.924527,41.669 C114.752527,41.669 115.424527,42.341 115.424527,43.169 L115.424527,45.481 C115.424527,46.309 114.752527,46.981 113.924527,46.981 C113.096527,46.981 112.424527,46.309 112.424527,45.481 L112.424527,45.481 Z M180.962527,189.542 C180.962527,191.285 179.543527,192.704 177.798527,192.704 C176.055527,192.704 174.636527,191.285 174.636527,189.542 L174.636527,187.156 C174.636527,186.328 173.964527,185.656 173.136527,185.656 L170.755527,185.656 C170.306527,185.656 169.862527,185.64 169.417527,185.628 L169.417527,179.289 C170.049527,179.315 170.689527,179.331 171.338527,179.331 L171.339527,179.331 L177.800527,179.331 C179.543527,179.331 180.962527,180.75 180.962527,182.494 C180.962527,182.594 180.973527,182.693 180.992527,182.787 C180.973527,182.882 180.962527,182.98 180.962527,183.081 L180.962527,189.542 Z M153.451527,182.201 C153.288527,182.089 153.102527,182.007 152.901527,181.966 C147.565527,179.614 142.982527,176.241 139.523527,172.164 C139.432527,172.009 139.315527,171.872 139.176527,171.759 C135.010527,166.683 132.571527,160.557 132.571527,153.966 L132.571527,137.945 C132.571527,137.943 132.571527,137.942 132.571527,137.94 C132.571527,137.63 132.477527,137.34 132.315527,137.101 C132.045527,136.702 131.589527,136.44 131.071527,136.44 C131.070527,136.44 131.069527,136.44 131.068527,136.44 L111.621527,136.44 C110.794527,136.44 110.121527,137.112 110.121527,137.94 C110.121527,137.945 110.123527,137.95 110.123527,137.955 L110.123527,144.146 C110.123527,160.944 120.208527,172.359 136.560527,174.266 L136.560527,180.661 C117.540527,178.868 102.711527,165.438 102.711527,149.183 L102.711527,129.725 C102.711527,129.723 102.712527,129.722 102.712527,129.72 L102.712527,122.475 C102.913527,122.68 103.122527,122.916 103.369527,123.214 C104.259527,124.287 105.476527,125.757 107.839527,125.757 C110.202527,125.757 111.420527,124.287 112.309527,123.214 C113.125527,122.231 113.557527,121.757 114.469527,121.757 C115.381527,121.757 115.812527,122.231 116.628527,123.214 C117.517527,124.287 118.735527,125.757 121.096527,125.757 C123.460527,125.757 124.678527,124.287 125.568527,123.214 C126.384527,122.231 126.816527,121.757 127.728527,121.757 C128.643527,121.757 129.076527,122.232 129.893527,123.215 C130.783527,124.289 132.003527,125.757 134.366527,125.757 C136.729527,125.757 137.949527,124.287 138.839527,123.215 C139.285527,122.678 139.621527,122.306 139.980527,122.067 L139.980527,129.72 C139.980527,129.722 139.980527,129.723 139.980527,129.725 L139.980527,148.93 C139.980527,166.034 149.981527,177.224 166.417527,179.059 L166.417527,185.445 C161.795527,185.009 157.425527,183.885 153.451527,182.201 L153.451527,182.201 Z M113.123527,139.44 L129.571527,139.44 L129.571527,153.966 C129.571527,160.145 131.508527,165.947 134.884527,170.977 C121.191527,168.599 113.123527,158.795 113.123527,144.146 L113.123527,139.44 Z M151.103527,184.759 C151.104527,185.604 150.774527,186.398 150.177527,186.994 C149.581527,187.591 148.787527,187.921 147.940527,187.921 C146.197527,187.921 144.778527,186.502 144.778527,184.758 L144.778527,182.372 C144.778527,181.544 144.107527,180.872 143.278527,180.872 L140.896527,180.872 C140.447527,180.872 140.004527,180.856 139.560527,180.843 L139.560527,176.576 C142.804527,179.747 146.708527,182.426 151.103527,184.444 L151.103527,184.759 Z M80.0675272,113.308 L73.6985272,113.308 C74.4395272,94.233 89.4705272,76.59 105.352527,76.59 L109.428527,76.59 C109.430527,76.59 109.431527,76.59 109.433527,76.59 L133.261527,76.59 C133.264527,76.59 133.267527,76.589 133.270527,76.589 L139.001527,76.589 C155.604527,76.589 169.225527,63.62 170.286527,47.282 L176.647527,47.282 C175.905527,66.357 160.876527,84 144.993527,84 L141.479527,84 C140.651527,84 139.979527,84.672 139.979527,85.5 C139.979527,85.501 139.980527,85.503 139.980527,85.505 L139.980527,95.818 C138.273527,96.169 137.280527,97.345 136.530527,98.249 C135.714527,99.233 135.280527,99.707 134.366527,99.707 C133.452527,99.707 133.019527,99.233 132.202527,98.249 C131.312527,97.177 130.093527,95.707 127.728527,95.707 C125.366527,95.707 124.148527,97.177 123.259527,98.249 C122.442527,99.233 122.010527,99.707 121.096527,99.707 C120.185527,99.707 119.754527,99.234 118.939527,98.25 C118.049527,97.177 116.831527,95.707 114.469527,95.707 C112.107527,95.707 110.888527,97.177 109.999527,98.25 C109.183527,99.234 108.751527,99.707 107.839527,99.707 C106.927527,99.707 106.495527,99.234 105.679527,98.25 C105.002527,97.433 104.130527,96.389 102.712527,95.937 L102.712527,87.265 C102.712527,87.221 102.703527,87.179 102.699527,87.135 C102.695527,87.097 102.694527,87.058 102.687527,87.02 C102.676527,86.952 102.658527,86.887 102.638527,86.822 C102.631527,86.8 102.629527,86.778 102.621527,86.756 C102.618527,86.748 102.613527,86.741 102.610527,86.733 C102.585527,86.668 102.554527,86.608 102.522527,86.548 C102.506527,86.52 102.492527,86.49 102.475527,86.463 C102.442527,86.411 102.404527,86.364 102.365527,86.317 C102.341527,86.288 102.319527,86.257 102.294527,86.231 C102.253527,86.188 102.208527,86.152 102.162527,86.114 C102.134527,86.09 102.107527,86.065 102.077527,86.044 C102.028527,86.009 101.975527,85.981 101.922527,85.952 C101.891527,85.935 101.861527,85.916 101.828527,85.901 C101.776527,85.878 101.722527,85.861 101.668527,85.843 C101.628527,85.831 101.590527,85.817 101.550527,85.807 C101.502527,85.796 101.454527,85.791 101.404527,85.785 C101.353527,85.778 101.302527,85.771 101.250527,85.769 C101.237527,85.769 101.225527,85.765 101.212527,85.765 C101.179527,85.765 101.148527,85.773 101.114527,85.775 C101.060527,85.778 101.005527,85.782 100.951527,85.792 C100.902527,85.8 100.856527,85.814 100.809527,85.827 C100.773527,85.837 100.737527,85.841 100.701527,85.854 C100.678527,85.862 100.656527,85.873 100.633527,85.881 C100.630527,85.883 100.628527,85.884 100.625527,85.885 C88.9245272,90.142 80.8795272,100.992 80.0675272,113.308 L80.0675272,113.308 Z M76.8245272,124.983 C75.0815272,124.983 73.6625272,123.564 73.6625272,121.821 L73.6625272,116.308 L79.9865272,116.308 L79.9865272,121.821 C79.9865272,123.564 78.5675272,124.983 76.8245272,124.983 L76.8245272,124.983 Z M92.4555272,44.698 C92.4555272,28.767 105.416527,15.807 121.347527,15.807 C137.278527,15.807 150.238527,28.767 150.238527,44.698 C150.238527,60.629 137.278527,73.59 121.347527,73.59 C105.416527,73.59 92.4555272,60.629 92.4555272,44.698 L92.4555272,44.698 Z M87.2815272,55.846 L87.2815272,33.55 L91.4705272,33.55 C90.1705272,37.023 89.4555272,40.778 89.4555272,44.698 C89.4555272,48.619 90.1695272,52.374 91.4705272,55.846 L87.2815272,55.846 Z M110.198527,11.033 L132.495527,11.033 L132.495527,14.822 C129.023527,13.522 125.267527,12.807 121.347527,12.807 C117.426527,12.807 113.671527,13.522 110.198527,14.822 L110.198527,11.033 Z M155.663527,33.548 L155.663527,55.844 L151.224527,55.844 C152.523527,52.373 153.238527,48.618 153.238527,44.698 C153.238527,40.777 152.523527,37.021 151.222527,33.548 L155.663527,33.548 Z M173.521527,35.607 C175.264527,35.607 176.683527,37.026 176.683527,38.769 L176.683527,44.282 L170.360527,44.282 L170.360527,38.769 C170.360527,37.026 171.779527,35.607 173.521527,35.607 L173.521527,35.607 Z M102.712527,99.424 C102.913527,99.63 103.122527,99.865 103.369527,100.164 C104.259527,101.237 105.476527,102.707 107.839527,102.707 C110.202527,102.707 111.420527,101.237 112.309527,100.164 C113.125527,99.18 113.557527,98.707 114.469527,98.707 C115.381527,98.707 115.812527,99.18 116.628527,100.164 C117.517527,101.237 118.735527,102.707 121.096527,102.707 C123.460527,102.707 124.678527,101.237 125.568527,100.164 C126.384527,99.18 126.816527,98.707 127.728527,98.707 C128.643527,98.707 129.076527,99.181 129.893527,100.165 C130.783527,101.238 132.003527,102.707 134.366527,102.707 C136.729527,102.707 137.949527,101.237 138.839527,100.165 C139.285527,99.627 139.621527,99.256 139.980527,99.016 L139.980527,118.869 C138.273527,119.22 137.280527,120.396 136.530527,121.299 C135.714527,122.283 135.280527,122.757 134.366527,122.757 C133.452527,122.757 133.019527,122.283 132.202527,121.299 C131.312527,120.227 130.093527,118.757 127.728527,118.757 C125.366527,118.757 124.148527,120.227 123.259527,121.299 C122.442527,122.283 122.010527,122.757 121.096527,122.757 C120.185527,122.757 119.754527,122.284 118.939527,121.3 C118.049527,120.227 116.831527,118.757 114.469527,118.757 C112.107527,118.757 110.888527,120.227 109.999527,121.3 C109.183527,122.284 108.751527,122.757 107.839527,122.757 C106.927527,122.757 106.495527,122.284 105.679527,121.3 C105.002527,120.483 104.130527,119.44 102.712527,118.987 L102.712527,99.424 Z M177.800527,176.331 L171.339527,176.331 L171.339527,176.331 C170.700527,176.331 170.059527,176.31 169.417527,176.278 L169.417527,175.535 C169.417527,174.707 168.745527,174.035 167.917527,174.035 C167.089527,174.035 166.417527,174.707 166.417527,175.535 L166.417527,176.01 C154.341527,174.424 142.980527,166.722 142.980527,148.93 L142.980527,126.598 C142.980527,126.596 142.980527,126.594 142.980527,126.593 L142.980527,87 L144.993527,87 C153.804527,87 162.717527,82.245 169.448527,73.954 C175.631527,66.339 179.299527,56.696 179.648527,47.282 L180.478527,47.282 C181.306527,47.282 181.978527,46.61 181.978527,45.782 C181.978527,44.954 181.306527,44.282 180.478527,44.282 L179.683527,44.282 L179.683527,38.769 C179.683527,35.372 176.918527,32.607 173.521527,32.607 C170.124527,32.607 167.360527,35.372 167.360527,38.769 L167.360527,44.282 L166.564527,44.282 C165.735527,44.282 165.064527,44.954 165.064527,45.782 C165.064527,46.61 165.735527,47.282 166.564527,47.282 L167.278527,47.282 C166.223527,61.964 153.949527,73.589 139.001527,73.589 L134.832527,73.589 C141.373527,70.524 146.708527,65.303 149.918527,58.844 L157.163527,58.844 C157.991527,58.844 158.663527,58.173 158.663527,57.344 L158.663527,32.048 C158.663527,31.22 157.991527,30.548 157.163527,30.548 L149.916527,30.548 C146.815527,24.312 141.732527,19.23 135.495527,16.129 L135.495527,9.533 C135.495527,8.706 134.823527,8.033 133.995527,8.033 L108.698527,8.033 C107.870527,8.033 107.198527,8.706 107.198527,9.533 L107.198527,16.128 C100.961527,19.23 95.8775272,24.313 92.7765272,30.55 L85.7815272,30.55 C84.9535272,30.55 84.2815272,31.222 84.2815272,32.05 L84.2815272,57.346 C84.2815272,58.174 84.9535272,58.846 85.7815272,58.846 L92.7755272,58.846 C95.9875272,65.305 101.321527,70.525 107.862527,73.59 L105.352527,73.59 C96.5425272,73.59 87.6295272,78.345 80.8975272,86.636 C74.7145272,94.251 71.0455272,103.895 70.6965272,113.308 L69.8685272,113.308 C69.0405272,113.308 68.3685272,113.98 68.3685272,114.808 C68.3685272,115.636 69.0405272,116.308 69.8685272,116.308 L70.6625272,116.308 L70.6625272,121.821 C70.6625272,125.218 73.4275272,127.983 76.8245272,127.983 C80.2215272,127.983 82.9865272,125.218 82.9865272,121.821 L82.9865272,116.308 L83.7835272,116.308 C84.6115272,116.308 85.2835272,115.636 85.2835272,114.808 C85.2835272,113.98 84.6115272,113.308 83.7835272,113.308 L83.0675272,113.308 C83.8235272,102.944 90.2475272,93.753 99.7125272,89.49 L99.7125272,97.187 C99.7125272,97.194 99.7105272,97.2 99.7105272,97.207 C99.7105272,97.214 99.7125272,97.219 99.7125272,97.226 L99.7125272,120.238 C99.7125272,120.245 99.7105272,120.251 99.7105272,120.257 C99.7105272,120.264 99.7125272,120.27 99.7125272,120.277 L99.7125272,129.715 C99.7125272,129.717 99.7115272,129.719 99.7115272,129.72 L99.7115272,149.183 C99.7115272,167.077 115.881527,181.847 136.560527,183.678 L136.560527,184.667 C136.560527,185.495 137.232527,186.167 138.060527,186.167 C138.888527,186.167 139.560527,185.495 139.560527,184.667 L139.560527,183.843 C140.004527,183.855 140.447527,183.872 140.896527,183.872 L141.778527,183.872 L141.778527,184.758 C141.778527,188.155 144.544527,190.921 147.940527,190.921 C149.586527,190.921 151.134527,190.279 152.298527,189.115 C153.248527,188.166 153.842527,186.959 154.031527,185.655 C157.887527,187.105 162.049527,188.075 166.417527,188.462 L166.417527,189.45 C166.417527,190.278 167.089527,190.95 167.917527,190.95 C168.745527,190.95 169.417527,190.278 169.417527,189.45 L169.417527,188.627 C169.862527,188.639 170.306527,188.656 170.755527,188.656 L171.636527,188.656 L171.636527,189.542 C171.636527,192.939 174.401527,195.704 177.798527,195.704 C181.196527,195.704 183.962527,192.939 183.962527,189.542 L183.962527,183.081 C183.962527,182.98 183.951527,182.882 183.932527,182.787 C183.951527,182.693 183.962527,182.594 183.962527,182.494 C183.962527,179.096 181.197527,176.331 177.800527,176.331 L177.800527,176.331 Z M83.7835272,8 C85.0705272,8 86.1175272,9.047 86.1175272,10.334 C86.1175272,11.62 85.0705272,12.667 83.7835272,12.667 C82.4965272,12.667 81.4495272,11.62 81.4495272,10.334 C81.4495272,9.047 82.4965272,8 83.7835272,8 L83.7835272,8 Z M83.7835272,15.667 C86.7245272,15.667 89.1175272,13.274 89.1175272,10.334 C89.1175272,7.393 86.7245272,5 83.7835272,5 C80.8425272,5 78.4495272,7.393 78.4495272,10.334 C78.4495272,13.274 80.8425272,15.667 83.7835272,15.667 L83.7835272,15.667 Z M208.538527,84.329 C206.559527,84.329 204.950527,82.72 204.950527,80.743 C204.950527,78.765 206.559527,77.157 208.538527,77.157 C210.516527,77.157 212.124527,78.765 212.124527,80.743 C212.124527,82.72 210.516527,84.329 208.538527,84.329 L208.538527,84.329 Z M208.538527,74.157 C204.905527,74.157 201.950527,77.111 201.950527,80.743 C201.950527,84.375 204.905527,87.329 208.538527,87.329 C212.170527,87.329 215.124527,84.375 215.124527,80.743 C215.124527,77.111 212.170527,74.157 208.538527,74.157 L208.538527,74.157 Z M101.212527,191.406 C99.9255272,191.406 98.8785272,190.359 98.8785272,189.073 C98.8785272,187.786 99.9255272,186.739 101.212527,186.739 C102.499527,186.739 103.546527,187.786 103.546527,189.073 C103.546527,190.359 102.499527,191.406 101.212527,191.406 L101.212527,191.406 Z M101.212527,183.739 C98.2715272,183.739 95.8785272,186.132 95.8785272,189.073 C95.8785272,192.013 98.2715272,194.406 101.212527,194.406 C104.153527,194.406 106.546527,192.013 106.546527,189.073 C106.546527,186.132 104.153527,183.739 101.212527,183.739 L101.212527,183.739 Z M174.777527,124.264 C172.623527,124.375 170.315527,123.684 167.892527,122.258 C170.315527,120.832 172.623527,120.141 174.777527,120.25 C177.283527,120.377 178.966527,121.523 179.806527,122.257 C178.966527,122.992 177.283527,124.138 174.777527,124.264 L174.777527,124.264 Z M165.194527,120.402 C164.191527,119.609 163.174527,118.712 162.140527,117.677 C161.554527,117.091 160.605527,117.091 160.019527,117.677 C159.433527,118.263 159.433527,119.213 160.019527,119.798 C160.921527,120.7 161.818527,121.52 162.709527,122.259 C161.817527,122.999 160.920527,123.814 160.018527,124.716 C159.433527,125.302 159.433527,126.252 160.018527,126.838 C160.311527,127.131 160.695527,127.277 161.079527,127.277 C161.463527,127.277 161.847527,127.131 162.140527,126.838 C163.173527,125.804 164.190527,124.908 165.190527,124.116 C168.328527,126.213 171.380527,127.276 174.315527,127.276 C174.546527,127.276 174.779527,127.27 175.010527,127.256 C179.980527,126.971 182.663527,123.658 182.773527,123.517 C183.066527,123.149 183.150527,122.688 183.055527,122.263 C183.152527,121.835 183.068527,121.368 182.773527,120.997 C182.662527,120.856 179.979527,117.544 175.010527,117.257 C171.881527,117.083 168.587527,118.14 165.194527,120.402 L165.194527,120.402 Z M34.3165272,62.765 C30.5425272,62.568 28.1235272,60.65 27.1525272,59.71 C28.1165272,58.779 30.5235272,56.873 34.2545272,56.658 C37.3855272,56.485 40.7155272,57.51 44.2115272,59.71 C40.7365272,61.896 37.4265272,62.923 34.3165272,62.765 L34.3165272,62.765 Z M51.0915272,65.342 C51.3845272,65.635 51.7695272,65.781 52.1525272,65.781 C52.5365272,65.781 52.9205272,65.635 53.2135272,65.342 C53.7985272,64.756 53.7985272,63.806 53.2135272,63.22 C51.9095272,61.915 50.6145272,60.748 49.3305272,59.708 C50.6145272,58.669 51.9085272,57.504 53.2135272,56.199 C53.7995272,55.613 53.7995272,54.664 53.2135272,54.078 C52.6275272,53.492 51.6785272,53.492 51.0925272,54.078 C49.6535272,55.516 48.2385272,56.772 46.8465272,57.855 C42.4325272,54.84 38.1595272,53.432 34.0815272,53.663 C27.8245272,54.023 24.4635272,58.177 24.3225272,58.353 C24.0075272,58.75 23.9285272,59.257 24.0625272,59.71 C23.9295272,60.162 24.0085272,60.67 24.3235272,61.068 C24.4635272,61.244 27.8255272,65.397 34.0835272,65.757 C34.3745272,65.773 34.6665272,65.782 34.9605272,65.782 C38.7695272,65.782 42.7465272,64.362 46.8435272,61.563 C48.2365272,62.647 49.6525272,63.902 51.0915272,65.342 L51.0915272,65.342 Z M48.7295272,173.961 C47.7135272,172.183 46.2355272,170.705 44.4575272,169.689 C46.2355272,168.673 47.7135272,167.196 48.7295272,165.417 C49.7445272,167.196 51.2225272,168.673 53.0015272,169.689 C51.2225272,170.705 49.7445272,172.183 48.7295272,173.961 L48.7295272,173.961 Z M58.6315272,168.189 C53.9985272,168.189 50.2295272,164.419 50.2295272,159.787 C50.2295272,158.959 49.5575272,158.287 48.7295272,158.287 L48.7295272,158.287 L48.7285272,158.287 C47.9005272,158.287 47.2285272,158.959 47.2285272,159.787 C47.2285272,164.419 43.4595272,168.189 38.8265272,168.189 C37.9985272,168.189 37.3265272,168.861 37.3265272,169.689 C37.3265272,170.207 37.5895272,170.664 37.9885272,170.933 C38.2285272,171.095 38.5165272,171.19 38.8275272,171.19 C43.4595272,171.19 47.2295272,174.959 47.2295272,179.592 C47.2295272,180.421 47.9005272,181.092 48.7295272,181.092 C49.5575272,181.092 50.2295272,180.421 50.2295272,179.592 C50.2295272,174.959 53.9995272,171.19 58.6305272,171.19 C58.9415272,171.19 59.2305272,171.095 59.4695272,170.933 C59.8685272,170.664 60.1315272,170.207 60.1315272,169.689 C60.1315272,168.861 59.4595272,168.189 58.6315272,168.189 L58.6315272,168.189 Z M210.856527,167.469 C211.002527,167.7 211.089527,167.971 211.089527,168.264 C211.089527,169.092 210.417527,169.764 209.589527,169.764 L209.587527,169.764 C209.253527,169.765 208.983527,170.035 208.983527,170.368 C208.983527,171.196 208.312527,171.868 207.483527,171.868 C206.655527,171.868 205.983527,171.196 205.983527,170.368 C205.983527,170.035 205.713527,169.765 205.381527,169.764 L205.380527,169.764 C205.087527,169.764 204.816527,169.677 204.585527,169.532 C204.163527,169.266 203.879527,168.8 203.879527,168.264 C203.879527,167.436 204.551527,166.764 205.379527,166.764 C205.380527,166.764 205.381527,166.764 205.381527,166.764 C205.714527,166.763 205.984527,166.493 205.984527,166.16 C205.984527,165.331 206.655527,164.66 207.484527,164.66 C208.312527,164.66 208.984527,165.331 208.984527,166.16 C208.984527,166.493 209.254527,166.763 209.587527,166.764 L209.588527,166.764 C210.124527,166.764 210.591527,167.047 210.856527,167.469 L210.856527,167.469 Z M197.857527,16.03 C197.375527,15.37 196.794527,14.789 196.133527,14.307 C196.794527,13.826 197.375527,13.245 197.857527,12.584 C198.338527,13.245 198.919527,13.826 199.579527,14.307 C198.919527,14.789 198.337527,15.37 197.857527,16.03 L197.857527,16.03 Z M204.161527,15.807 C204.989527,15.807 205.661527,15.135 205.661527,14.307 L205.661527,14.307 C205.661527,13.479 204.989527,12.807 204.161527,12.807 C204.161527,12.807 204.160527,12.807 204.159527,12.807 C201.513527,12.806 199.360527,10.654 199.357527,8.007 C199.357527,8.006 199.357527,8.004 199.357527,8.001 C199.357527,7.173 198.685527,6.501 197.857527,6.501 L197.857527,6.501 L197.856527,6.501 C197.028527,6.501 196.356527,7.173 196.356527,8.001 C196.356527,8.004 196.357527,8.006 196.357527,8.007 C196.353527,10.654 194.198527,12.806 191.552527,12.807 C191.551527,12.807 191.550527,12.807 191.549527,12.807 C190.721527,12.807 190.049527,13.479 190.049527,14.307 C190.049527,14.825 190.312527,15.281 190.711527,15.551 C190.951527,15.713 191.239527,15.807 191.550527,15.807 L191.552527,15.807 C194.201527,15.808 196.357527,17.964 196.357527,20.612 C196.357527,21.44 197.028527,22.112 197.857527,22.112 C198.685527,22.112 199.357527,21.44 199.357527,20.612 C199.357527,17.964 201.510527,15.808 204.159527,15.807 L204.161527,15.807 Z"/>
</svg>
