<svg xmlns="http://www.w3.org/2000/svg" width="240" height="200" viewBox="0 0 240 200">
  <path fill="#868998" fill-rule="evenodd" d="M61.674,94.595 C61.674,99.078 65.32,102.725 69.802,102.728 C69.804,102.728 69.805,102.727 69.807,102.727 C70.221,102.727 70.596,102.895 70.867,103.167 C71.003,103.303 71.113,103.464 71.189,103.644 C71.265,103.823 71.307,104.02 71.307,104.227 L71.307,104.228 C71.307,105.057 70.635,105.728 69.807,105.728 L69.802,105.728 C65.32,105.73 61.674,109.378 61.674,113.861 C61.674,118.345 65.323,121.993 69.807,121.993 C70.635,121.993 71.307,122.664 71.307,123.493 C71.307,124.323 70.635,124.993 69.807,124.993 C63.668,124.993 58.674,119.999 58.674,113.861 C58.674,109.747 60.923,106.155 64.25,104.228 C60.923,102.301 58.674,98.709 58.674,94.595 C58.674,88.457 63.668,83.462 69.807,83.462 C70.635,83.462 71.307,84.134 71.307,84.962 C71.307,85.791 70.635,86.462 69.807,86.462 C65.323,86.462 61.674,90.111 61.674,94.595 L61.674,94.595 Z M79.033,84.962 C79.033,89.446 82.68,93.093 87.162,93.095 C87.163,93.095 87.165,93.095 87.166,93.095 C87.684,93.095 88.14,93.357 88.41,93.756 C88.464,93.836 88.51,93.921 88.548,94.011 C88.624,94.19 88.666,94.387 88.666,94.595 L88.666,94.595 C88.666,95.424 87.994,96.095 87.166,96.095 L87.162,96.095 C82.68,96.097 79.033,99.745 79.033,104.228 C79.033,108.711 82.68,112.358 87.162,112.361 C87.163,112.361 87.165,112.36 87.166,112.36 C87.58,112.36 87.955,112.528 88.227,112.8 C88.362,112.935 88.472,113.097 88.548,113.277 C88.624,113.456 88.666,113.653 88.666,113.86 L88.666,113.861 C88.666,114.69 87.994,115.361 87.166,115.361 L87.162,115.361 C82.68,115.363 79.033,119.011 79.033,123.493 C79.033,127.978 82.682,131.626 87.166,131.626 C87.994,131.626 88.666,132.297 88.666,133.126 C88.666,133.955 87.994,134.626 87.166,134.626 C81.027,134.626 76.033,129.632 76.033,123.493 C76.033,119.38 78.282,115.788 81.61,113.861 C78.282,111.933 76.033,108.342 76.033,104.228 C76.033,100.114 78.282,96.522 81.61,94.595 C78.282,92.668 76.033,89.076 76.033,84.962 C76.033,78.824 81.027,73.829 87.166,73.829 C87.994,73.829 88.666,74.501 88.666,75.329 C88.666,76.158 87.994,76.829 87.166,76.829 C82.682,76.829 79.033,80.478 79.033,84.962 L79.033,84.962 Z M95.352,75.329 C95.352,79.813 98.999,83.46 103.481,83.462 C103.482,83.462 103.484,83.462 103.485,83.462 C103.899,83.462 104.274,83.63 104.545,83.902 C104.715,84.071 104.837,84.284 104.91,84.519 C104.954,84.66 104.985,84.806 104.985,84.962 L104.985,84.962 C104.985,85.791 104.313,86.462 103.485,86.462 L103.481,86.462 C98.999,86.464 95.352,90.112 95.352,94.595 C95.352,99.078 98.998,102.725 103.48,102.728 C103.482,102.728 103.483,102.727 103.485,102.727 C103.899,102.727 104.274,102.895 104.545,103.167 C104.681,103.303 104.791,103.464 104.866,103.644 C104.943,103.823 104.985,104.02 104.985,104.227 L104.985,104.228 C104.985,105.057 104.313,105.728 103.485,105.728 L103.48,105.728 C98.998,105.73 95.352,109.378 95.352,113.861 C95.352,118.344 98.999,121.991 103.481,121.993 C103.482,121.993 103.484,121.993 103.485,121.993 C103.899,121.993 104.274,122.161 104.545,122.432 C104.715,122.602 104.837,122.815 104.91,123.05 C104.954,123.191 104.985,123.338 104.985,123.493 L104.985,123.493 C104.985,124.323 104.313,124.993 103.485,124.993 L103.481,124.993 C98.999,124.995 95.352,128.643 95.352,133.126 C95.352,137.611 99.001,141.26 103.485,141.26 C104.313,141.26 104.985,141.931 104.985,142.76 C104.985,143.589 104.313,144.26 103.485,144.26 C97.346,144.26 92.352,139.265 92.352,133.126 C92.352,129.012 94.601,125.421 97.928,123.493 C94.601,121.566 92.352,117.975 92.352,113.861 C92.352,109.747 94.601,106.155 97.928,104.228 C94.601,102.301 92.352,98.709 92.352,94.595 C92.352,90.481 94.601,86.889 97.928,84.962 C94.601,83.035 92.352,79.444 92.352,75.329 C92.352,69.191 97.346,64.196 103.485,64.196 C104.313,64.196 104.985,64.868 104.985,65.696 C104.985,66.525 104.313,67.196 103.485,67.196 C99.001,67.196 95.352,70.845 95.352,75.329 L95.352,75.329 Z M113.78,113.861 C110.453,111.933 108.204,108.342 108.204,104.228 C108.204,100.114 110.453,96.522 113.78,94.595 C110.453,92.668 108.204,89.076 108.204,84.962 C108.204,78.824 113.198,73.829 119.337,73.829 C120.165,73.829 120.837,74.501 120.837,75.329 C120.837,76.158 120.165,76.829 119.337,76.829 C114.853,76.829 111.204,80.478 111.204,84.962 C111.204,89.446 114.851,93.093 119.333,93.095 C119.334,93.095 119.336,93.095 119.337,93.095 C119.855,93.095 120.311,93.357 120.581,93.756 C120.635,93.836 120.681,93.921 120.719,94.011 C120.795,94.19 120.837,94.387 120.837,94.595 L120.837,94.595 C120.837,95.424 120.165,96.095 119.337,96.095 L119.333,96.095 C114.851,96.097 111.204,99.745 111.204,104.228 C111.204,108.711 114.851,112.358 119.333,112.361 C119.334,112.361 119.336,112.36 119.337,112.36 C119.751,112.36 120.126,112.528 120.398,112.8 C120.533,112.935 120.643,113.097 120.719,113.277 C120.795,113.456 120.837,113.653 120.837,113.86 L120.837,113.861 C120.837,114.69 120.165,115.361 119.337,115.361 L119.333,115.361 C114.851,115.363 111.204,119.011 111.204,123.493 C111.204,127.978 114.853,131.626 119.337,131.626 C120.165,131.626 120.837,132.297 120.837,133.126 C120.837,133.955 120.165,134.626 119.337,134.626 C113.198,134.626 108.204,129.632 108.204,123.493 C108.204,119.38 110.453,115.788 113.78,113.861 L113.78,113.861 Z M130.098,123.493 C126.771,121.566 124.522,117.975 124.522,113.861 C124.522,109.747 126.771,106.155 130.098,104.228 C126.771,102.301 124.522,98.709 124.522,94.595 C124.522,90.481 126.771,86.889 130.098,84.962 C126.771,83.035 124.522,79.444 124.522,75.329 C124.522,69.191 129.515,64.196 135.654,64.196 C136.483,64.196 137.154,64.868 137.154,65.696 C137.154,66.525 136.483,67.196 135.654,67.196 C131.171,67.196 127.522,70.845 127.522,75.329 C127.522,79.813 131.169,83.46 135.651,83.462 C135.652,83.462 135.653,83.462 135.654,83.462 C136.069,83.462 136.444,83.63 136.715,83.902 C136.885,84.071 137.007,84.284 137.08,84.519 C137.124,84.66 137.154,84.806 137.154,84.962 L137.154,84.962 C137.154,85.791 136.483,86.462 135.654,86.462 L135.651,86.462 C131.169,86.464 127.522,90.112 127.522,94.595 C127.522,99.078 131.168,102.725 135.65,102.728 C135.652,102.728 135.653,102.727 135.654,102.727 C136.069,102.727 136.444,102.895 136.715,103.167 C136.851,103.303 136.961,103.464 137.036,103.644 C137.112,103.823 137.154,104.02 137.154,104.227 L137.154,104.228 C137.154,105.057 136.483,105.728 135.654,105.728 L135.65,105.728 C131.168,105.73 127.522,109.378 127.522,113.861 C127.522,118.344 131.169,121.991 135.651,121.993 C135.652,121.993 135.653,121.993 135.654,121.993 C136.069,121.993 136.444,122.161 136.715,122.432 C136.885,122.602 137.007,122.815 137.08,123.05 C137.124,123.191 137.154,123.338 137.154,123.493 L137.154,123.493 C137.154,124.323 136.483,124.993 135.654,124.993 L135.651,124.993 C131.169,124.995 127.522,128.643 127.522,133.126 C127.522,137.611 131.171,141.26 135.654,141.26 C136.483,141.26 137.154,141.931 137.154,142.76 C137.154,143.589 136.483,144.26 135.654,144.26 C129.515,144.26 124.522,139.265 124.522,133.126 C124.522,129.012 126.771,125.421 130.098,123.493 L130.098,123.493 Z M163.025,92.677 C161.814,92.677 160.83,91.692 160.83,90.48 C160.83,89.27 161.814,88.286 163.025,88.286 C164.235,88.286 165.218,89.27 165.218,90.48 C165.218,91.692 164.235,92.677 163.025,92.677 L163.025,92.677 Z M168.218,90.48 C168.218,87.616 165.889,85.286 163.025,85.286 C160.161,85.286 157.83,87.616 157.83,90.48 C157.83,93.345 160.161,95.677 163.025,95.677 C165.889,95.677 168.218,93.345 168.218,90.48 L168.218,90.48 Z M155.454,138.655 C151.344,133.344 148.23,127.348 146.245,120.986 C153.754,119.143 159.226,112.322 159.226,104.44 C159.226,96.497 153.705,89.662 146.128,87.864 C148.107,81.36 151.262,75.23 155.455,69.814 C174.591,82.021 188.414,99.576 191.754,104.033 C188.553,106.807 184.518,108.335 180.239,108.335 C175.532,108.335 171.108,106.502 167.779,103.174 C167.194,102.588 166.244,102.588 165.658,103.173 C165.072,103.759 165.072,104.709 165.658,105.295 C169.551,109.19 174.731,111.335 180.239,111.335 C182.665,111.335 185.019,110.896 187.236,110.098 C181.012,117.504 169.706,129.563 155.454,138.655 L155.454,138.655 Z M90.494,150.837 L90.494,147.256 C93.434,148.622 96.48,149.834 99.615,150.837 L90.494,150.837 Z M76.434,142.704 L76.434,139.199 C79.882,141.549 83.583,143.797 87.494,145.797 L87.494,150.837 L84.567,150.837 C80.083,150.837 76.434,147.189 76.434,142.704 L76.434,142.704 Z M143.683,104.234 C143.683,99.668 144.255,95.143 145.339,90.755 C151.631,92.199 156.226,97.861 156.226,104.44 C156.226,110.97 151.671,116.621 145.433,118.101 C144.284,113.593 143.683,108.934 143.683,104.234 L143.683,104.234 Z M44.658,104.234 C49.457,97.791 80.918,57.574 118.281,57.574 C130.729,57.574 142.518,62.04 152.887,68.23 C148.274,74.257 144.883,81.113 142.864,88.375 C142.795,88.517 142.741,88.669 142.719,88.834 C142.717,88.852 142.719,88.869 142.718,88.887 C141.382,93.866 140.683,99.026 140.683,104.234 C140.683,109.576 141.423,114.868 142.828,119.966 C142.83,119.991 142.827,120.015 142.831,120.04 C142.851,120.189 142.907,120.322 142.966,120.451 C144.997,127.58 148.35,134.31 152.886,140.238 C142.619,146.367 130.958,150.801 118.645,150.887 C118.528,150.858 118.407,150.837 118.281,150.837 L116.004,150.837 C79.647,149.261 49.359,110.545 44.658,104.234 L44.658,104.234 Z M47.957,129.959 C47.957,134.145 45.239,137.701 41.479,138.976 L41.479,105.731 C41.495,105.731 41.511,105.729 41.527,105.729 L42.032,105.729 C42.889,106.895 44.931,109.598 47.957,113.15 L47.957,129.959 Z M32,139.488 L32,115.258 C32,111.071 34.718,107.513 38.479,106.238 L38.479,139.483 C38.463,139.483 38.446,139.486 38.43,139.486 L32,139.488 Z M32.001,93.2 L32.001,68.97 L38.431,68.971 C38.447,68.971 38.463,68.973 38.479,68.973 L38.479,102.218 C34.718,100.942 32.001,97.386 32.001,93.2 L32.001,93.2 Z M47.96,78.498 L47.96,95.315 C44.942,98.857 42.903,101.554 42.041,102.727 L41.528,102.727 C41.511,102.727 41.495,102.724 41.479,102.724 L41.479,69.48 C45.24,70.754 47.96,74.311 47.96,78.498 L47.96,78.498 Z M76.434,58.459 C76.434,53.975 80.082,50.326 84.567,50.326 L87.494,50.326 L87.494,62.671 C83.583,64.671 79.882,66.919 76.434,69.269 L76.434,58.459 Z M129.556,50.326 L139.576,50.326 L139.576,58.525 C136.333,57.349 132.986,56.393 129.556,55.714 L129.556,50.326 Z M116.535,50.326 L126.556,50.326 L126.556,55.191 C123.841,54.792 121.08,54.574 118.281,54.574 C117.697,54.574 117.116,54.589 116.535,54.608 L116.535,50.326 Z M103.515,50.326 L113.535,50.326 L113.535,54.786 C110.123,55.077 106.777,55.67 103.515,56.506 L103.515,50.326 Z M90.494,61.211 L90.494,50.326 L100.515,50.326 L100.515,57.344 C97.062,58.399 93.716,59.715 90.494,61.211 L90.494,61.211 Z M153.637,58.459 L153.637,65.17 C150.137,63.134 146.438,61.268 142.576,59.685 L142.576,50.326 L145.504,50.326 C149.989,50.326 153.637,53.975 153.637,58.459 L153.637,58.459 Z M195.161,103.722 C195.143,103.672 195.114,103.628 195.091,103.579 C195.057,103.51 195.034,103.436 194.988,103.372 C194.903,103.251 186.28,91.048 172.646,79.029 C168.134,75.053 162.724,70.806 156.637,66.985 L156.637,58.459 C156.637,52.32 151.643,47.326 145.504,47.326 L84.567,47.326 C78.428,47.326 73.434,52.32 73.434,58.459 L73.434,71.383 C69.945,73.924 66.753,76.53 63.918,79.029 C58.843,83.501 54.464,87.998 50.96,91.89 L50.96,78.498 C50.96,71.59 45.34,65.971 38.431,65.971 L30.501,65.969 C30.103,65.969 29.72,66.127 29.44,66.408 C29.158,66.69 29.001,67.071 29.001,67.469 L29.001,93.2 C29.001,97.961 31.672,102.109 35.593,104.228 C31.672,106.347 29,110.495 29,115.258 L29,140.988 C29,141.386 29.158,141.767 29.439,142.049 C29.721,142.33 30.103,142.488 30.5,142.488 L38.43,142.486 C38.82,142.486 39.205,142.462 39.586,142.427 C39.712,142.461 39.842,142.486 39.979,142.486 C40.267,142.486 40.533,142.401 40.762,142.26 C46.557,141.163 50.957,136.068 50.957,129.959 L50.957,116.574 C54.462,120.467 58.842,124.965 63.918,129.439 C66.753,131.938 69.945,134.544 73.434,137.084 L73.434,142.704 C73.434,148.843 78.427,153.837 84.567,153.837 L115.92,153.837 C116.704,153.871 117.491,153.893 118.281,153.893 C132.073,153.893 144.962,148.667 155.778,142.02 C155.882,141.97 155.989,141.925 156.083,141.849 C156.103,141.833 156.118,141.813 156.137,141.796 C162.428,137.894 168.011,133.524 172.646,129.439 C186.28,117.42 194.903,105.217 194.988,105.096 C195.032,105.033 195.054,104.962 195.088,104.894 C195.113,104.844 195.143,104.797 195.162,104.744 C195.222,104.579 195.26,104.409 195.26,104.237 C195.26,104.236 195.261,104.235 195.261,104.234 C195.261,104.06 195.222,103.888 195.161,103.722 L195.161,103.722 Z M200.757,48.203 C199.841,46.661 198.551,45.371 197.009,44.455 C198.551,43.539 199.841,42.25 200.757,40.708 C201.673,42.25 202.963,43.539 204.505,44.455 C202.963,45.371 201.673,46.661 200.757,48.203 L200.757,48.203 Z M211.434,44.455 C211.434,44.393 211.423,44.334 211.416,44.274 C211.356,43.782 211.062,43.368 210.645,43.142 C210.432,43.027 210.193,42.955 209.934,42.955 L209.932,42.955 C205.701,42.954 202.26,39.513 202.257,35.282 C202.257,35.281 202.257,35.279 202.257,35.278 C202.257,34.449 201.585,33.778 200.757,33.778 L200.757,33.778 C199.929,33.778 199.257,34.449 199.257,35.278 L199.257,35.282 C199.255,39.513 195.811,42.954 191.581,42.955 L191.579,42.955 C190.751,42.955 190.079,43.627 190.079,44.455 C190.079,44.973 190.341,45.43 190.741,45.699 C190.98,45.861 191.269,45.955 191.579,45.955 L191.581,45.955 C195.814,45.956 199.257,49.401 199.257,53.633 C199.257,54.462 199.929,55.133 200.757,55.133 C201.585,55.133 202.257,54.462 202.257,53.633 C202.257,49.401 205.699,45.956 209.932,45.955 L209.934,45.955 C210.762,45.955 211.434,45.284 211.434,44.455 L211.434,44.455 Z M177.799,161.414 C177.799,161.828 177.63,162.204 177.359,162.475 C177.087,162.746 176.712,162.914 176.298,162.914 L176.298,162.914 C175.646,162.915 175.116,163.446 175.116,164.096 C175.116,164.925 174.445,165.596 173.616,165.596 C172.788,165.596 172.116,164.925 172.116,164.096 C172.116,163.446 171.587,162.915 170.935,162.914 L170.935,162.914 C170.521,162.914 170.146,162.746 169.874,162.475 C169.603,162.204 169.434,161.828 169.434,161.414 C169.434,160.586 170.107,159.914 170.934,159.914 C170.935,159.914 170.935,159.914 170.936,159.914 C171.585,159.914 172.114,159.386 172.116,158.736 C172.116,158.735 172.116,158.734 172.116,158.732 C172.116,157.905 172.788,157.232 173.616,157.232 L173.616,157.233 L173.617,157.232 C174.445,157.232 175.117,157.905 175.117,158.732 C175.117,158.734 175.116,158.735 175.116,158.736 C175.118,159.386 175.648,159.914 176.297,159.914 C176.298,159.914 176.298,159.914 176.299,159.914 C177.126,159.914 177.799,160.586 177.799,161.414 L177.799,161.414 Z M68.442,181.572 L68.442,181.572 C68.442,181.593 68.436,181.612 68.436,181.633 C68.411,182.227 68.046,182.734 67.525,182.954 C67.346,183.03 67.149,183.072 66.942,183.072 C66.693,183.072 66.49,183.274 66.49,183.522 C66.49,184.351 65.819,185.022 64.99,185.022 C64.162,185.022 63.49,184.351 63.49,183.522 C63.49,183.274 63.288,183.072 63.039,183.072 C62.832,183.072 62.635,183.03 62.456,182.954 C61.971,182.749 61.624,182.295 61.558,181.753 C61.55,181.693 61.539,181.634 61.539,181.572 C61.539,180.742 62.211,180.072 63.039,180.072 C63.288,180.072 63.49,179.869 63.49,179.621 C63.49,179.518 63.501,179.417 63.521,179.319 C63.661,178.635 64.266,178.121 64.99,178.121 C65.819,178.121 66.49,178.793 66.49,179.621 C66.49,179.869 66.693,180.072 66.942,180.072 C67.77,180.072 68.442,180.742 68.442,181.572 L68.442,181.572 Z M49.457,20.93 C49.862,21.464 50.338,21.939 50.871,22.344 C50.338,22.749 49.862,23.225 49.457,23.759 C49.052,23.225 48.576,22.75 48.043,22.344 C48.577,21.939 49.052,21.464 49.457,20.93 L49.457,20.93 Z M43.613,23.844 L43.615,23.844 C46.01,23.845 47.957,25.793 47.957,28.188 C47.957,29.017 48.629,29.688 49.457,29.688 C50.285,29.688 50.957,29.017 50.957,28.188 C50.957,25.793 52.904,23.845 55.299,23.844 L55.301,23.844 C56.129,23.844 56.801,23.173 56.801,22.344 C56.801,22.261 56.79,22.181 56.777,22.102 C56.709,21.686 56.475,21.326 56.139,21.1 C55.9,20.938 55.612,20.844 55.301,20.844 L55.299,20.844 C52.905,20.843 50.959,18.896 50.958,16.503 L50.958,16.5 C50.958,15.672 50.285,15 49.458,15 L49.457,15 C48.629,15 47.957,15.672 47.957,16.5 L47.957,16.503 C47.956,18.896 46.009,20.843 43.615,20.844 L43.613,20.844 C43.303,20.844 43.014,20.938 42.775,21.1 C42.44,21.326 42.206,21.686 42.138,22.102 C42.125,22.181 42.113,22.261 42.113,22.344 C42.113,23.173 42.785,23.844 43.613,23.844 L43.613,23.844 Z"/>
</svg>
