<svg xmlns="http://www.w3.org/2000/svg" width="240" height="200" viewBox="0 0 240 200">
  <path fill="#34B2DC" fill-rule="evenodd" d="M23.208,127.625 C22.174,127.625 21.332,128.466 21.332,129.5 C21.332,130.535 22.174,131.377 23.208,131.377 C24.242,131.377 25.084,130.535 25.084,129.5 C25.084,128.466 24.242,127.625 23.208,127.625 L23.208,127.625 Z M200.478,59.377 C201.512,59.377 202.353,58.535 202.353,57.5 C202.353,56.467 201.512,55.625 200.478,55.625 C199.444,55.625 198.602,56.467 198.602,57.5 C198.602,58.535 199.444,59.377 200.478,59.377 L200.478,59.377 Z M71.982,147.291 C70.44,146.375 69.15,145.085 68.234,143.543 C67.318,145.085 66.029,146.375 64.487,147.291 C66.029,148.207 67.318,149.497 68.234,151.039 C69.15,149.497 70.44,148.207 71.982,147.291 L71.982,147.291 Z M77.409,145.791 L77.412,145.791 C78.24,145.791 78.912,146.463 78.912,147.291 C78.912,148.119 78.24,148.791 77.412,148.791 L77.409,148.791 C73.177,148.793 69.734,152.237 69.734,156.469 C69.734,157.297 69.062,157.969 68.234,157.969 C67.406,157.969 66.734,157.297 66.734,156.469 C66.734,152.237 63.292,148.793 59.06,148.791 L59.057,148.791 C58.229,148.791 57.557,148.119 57.557,147.291 C57.557,146.463 58.229,145.791 59.057,145.791 L59.06,145.791 C63.291,145.789 66.734,142.346 66.734,138.113 C66.734,137.285 67.406,136.613 68.234,136.613 C69.062,136.613 69.734,137.285 69.734,138.113 C69.734,142.346 73.178,145.789 77.409,145.791 L77.409,145.791 Z M56.375,73.461 L56.376,73.461 C57.028,73.462 57.556,73.99 57.557,74.64 C57.557,74.641 57.557,74.642 57.557,74.643 C57.557,75.471 58.229,76.143 59.057,76.143 L59.058,76.143 L59.058,76.143 C59.886,76.143 60.558,75.471 60.558,74.643 C60.558,74.642 60.558,74.641 60.558,74.64 C60.56,73.99 61.087,73.462 61.738,73.461 L61.739,73.461 C62.567,73.461 63.239,72.789 63.239,71.961 C63.239,71.133 62.567,70.461 61.739,70.461 L61.738,70.461 C61.089,70.46 60.56,69.933 60.558,69.282 C60.558,69.281 60.558,69.28 60.558,69.279 C60.558,68.451 59.886,67.779 59.058,67.779 L59.058,67.779 L59.057,67.779 C58.229,67.779 57.557,68.451 57.557,69.279 C57.557,69.28 57.557,69.281 57.557,69.282 C57.556,69.933 57.027,70.46 56.376,70.461 L56.375,70.461 C55.547,70.461 54.875,71.133 54.875,71.961 C54.875,72.789 55.547,73.461 56.375,73.461 L56.375,73.461 Z M160.91,145.432 C160.661,145.432 160.459,145.229 160.459,144.981 C160.459,144.153 159.787,143.481 158.959,143.481 C158.131,143.481 157.459,144.153 157.459,144.981 C157.459,145.229 157.257,145.432 157.009,145.432 C156.181,145.432 155.509,146.104 155.509,146.932 C155.509,147.76 156.181,148.432 157.009,148.432 C157.257,148.432 157.459,148.634 157.459,148.882 C157.459,149.71 158.131,150.382 158.959,150.382 C159.787,150.382 160.459,149.71 160.459,148.882 C160.459,148.634 160.661,148.432 160.91,148.432 C161.738,148.432 162.41,147.76 162.41,146.932 C162.41,146.104 161.738,145.432 160.91,145.432 L160.91,145.432 Z M174.103,81.502 C173.57,81.097 173.095,80.622 172.689,80.089 C172.284,80.622 171.809,81.097 171.275,81.502 C171.809,81.907 172.284,82.383 172.689,82.916 C173.094,82.383 173.57,81.907 174.103,81.502 L174.103,81.502 Z M178.532,80.002 L178.533,80.002 C179.361,80.002 180.033,80.674 180.033,81.502 C180.033,82.33 179.361,83.002 178.533,83.002 L178.532,83.002 C176.136,83.003 174.189,84.95 174.189,87.346 C174.189,88.174 173.517,88.846 172.689,88.846 C171.861,88.846 171.189,88.174 171.189,87.346 C171.189,84.95 169.242,83.003 166.847,83.002 L166.846,83.002 C166.743,83.002 166.641,82.991 166.543,82.972 C165.86,82.831 165.345,82.227 165.345,81.502 C165.345,80.674 166.017,80.002 166.845,80.002 L166.847,80.002 C169.24,80.001 171.186,78.057 171.189,75.664 C171.189,75.662 171.189,75.66 171.189,75.658 C171.189,74.83 171.861,74.158 172.689,74.158 L172.689,74.158 L172.69,74.158 C173.518,74.158 174.19,74.83 174.19,75.658 C174.19,75.66 174.19,75.662 174.19,75.664 C174.193,78.057 176.139,80.001 178.532,80.002 L178.532,80.002 Z M121.581,169.18 L116.581,169.18 C115.753,169.18 115.081,169.852 115.081,170.68 C115.081,171.508 115.753,172.18 116.581,172.18 L121.581,172.18 C122.409,172.18 123.081,171.508 123.081,170.68 C123.081,169.852 122.409,169.18 121.581,169.18 L121.581,169.18 Z M112.331,163.049 L107.813,163.049 C106.985,163.049 106.313,163.721 106.313,164.549 C106.313,165.377 106.985,166.049 107.813,166.049 L112.331,166.049 C113.159,166.049 113.831,165.377 113.831,164.549 C113.831,163.721 113.159,163.049 112.331,163.049 L112.331,163.049 Z M170.029,194.098 C165.877,194.098 163.891,192.409 161.592,190.455 C159.19,188.412 156.468,186.098 151.213,186.098 C145.958,186.098 143.235,188.412 140.834,190.455 C138.535,192.409 136.55,194.098 132.398,194.098 C128.246,194.098 126.261,192.409 123.963,190.455 C121.561,188.412 118.84,186.098 113.585,186.098 C108.332,186.098 105.61,188.412 103.21,190.455 C100.912,192.409 98.927,194.098 94.777,194.098 C90.626,194.098 88.641,192.411 86.343,190.455 C83.942,188.413 81.22,186.098 75.966,186.098 C70.711,186.098 67.99,188.413 65.589,190.455 C63.291,192.411 61.306,194.098 57.156,194.098 C56.328,194.098 55.656,194.77 55.656,195.598 C55.656,196.426 56.328,197.098 57.156,197.098 C62.41,197.098 65.131,194.783 67.532,192.74 C69.83,190.786 71.814,189.098 75.966,189.098 C80.117,189.098 82.102,190.786 84.4,192.74 C86.801,194.783 89.523,197.098 94.777,197.098 C100.031,197.098 102.753,194.782 105.153,192.74 C107.451,190.786 109.435,189.098 113.585,189.098 C117.736,189.098 119.72,190.786 122.019,192.74 C124.421,194.782 127.143,197.098 132.398,197.098 C137.653,197.098 140.376,194.783 142.777,192.74 C145.076,190.786 147.06,189.098 151.213,189.098 C155.365,189.098 157.35,190.786 159.649,192.74 C162.051,194.783 164.773,197.098 170.029,197.098 C170.857,197.098 171.529,196.426 171.529,195.598 C171.529,194.77 170.857,194.098 170.029,194.098 L170.029,194.098 Z M123.963,177.204 C125.774,178.745 127.408,180.105 130.045,180.619 L130.045,178.31 L126.774,178.31 C125.946,178.31 125.274,177.638 125.274,176.81 C125.274,175.981 125.946,175.31 126.774,175.31 L130.045,175.31 L130.045,172.18 L129.159,172.18 C128.331,172.18 127.659,171.508 127.659,170.68 C127.659,169.852 128.331,169.18 129.159,169.18 L130.045,169.18 L130.045,166.049 L118.57,166.049 C117.742,166.049 117.07,165.377 117.07,164.549 C117.07,163.721 117.742,163.049 118.57,163.049 L130.045,163.049 L130.045,160.512 L113.596,160.512 L97.147,160.512 L97.147,163.049 L101.997,163.049 C102.825,163.049 103.497,163.721 103.497,164.549 C103.497,165.377 102.825,166.049 101.997,166.049 L97.147,166.049 L97.147,169.18 L108.972,169.18 C109.8,169.18 110.472,169.852 110.472,170.68 C110.472,171.508 109.8,172.18 108.972,172.18 L97.147,172.18 L97.147,180.616 C99.116,180.229 100.53,179.368 101.869,178.31 L100.747,178.31 C99.919,178.31 99.247,177.638 99.247,176.81 C99.247,175.981 99.919,175.31 100.747,175.31 L104.997,175.31 C105.165,175.31 105.323,175.344 105.474,175.395 C107.436,173.999 109.88,172.847 113.585,172.847 C118.84,172.847 121.561,175.161 123.963,177.204 L123.963,177.204 Z M103.556,50.734 L102.641,66.19 L123.247,50.734 L103.556,50.734 Z M103.733,47.734 L123.459,47.734 L123.293,44.929 L113.596,44.929 L103.899,44.929 L103.733,47.734 Z M99.027,41.928 L128.164,41.928 L128.164,37.688 L124.835,37.688 L124.833,37.688 L124.831,37.688 L102.36,37.688 L102.358,37.688 L102.356,37.688 L99.027,37.688 L99.027,41.928 Z M103.986,34.688 L123.205,34.688 C122.48,30.031 118.454,26.452 113.596,26.452 C108.739,26.452 104.711,30.031 103.986,34.688 L103.986,34.688 Z M98.653,133.621 L127.27,112.158 L125.516,82.506 L100.57,101.215 L98.653,133.621 Z M100.802,97.291 L125.303,78.915 L123.833,54.047 L102.409,70.114 L100.802,97.291 Z M119.914,139.67 L119.914,157.512 L129.953,157.512 L127.482,115.749 L98.421,137.545 L97.24,157.512 L107.278,157.512 L107.278,139.67 C107.278,136.186 110.112,133.352 113.595,133.352 C117.08,133.352 119.914,136.186 119.914,139.67 L119.914,139.67 Z M116.914,139.67 C116.914,137.84 115.425,136.352 113.595,136.352 C111.766,136.352 110.278,137.84 110.278,139.67 L110.278,157.511 L116.914,157.511 L116.914,139.67 Z M190.346,174.347 C190.346,175.175 189.675,175.847 188.846,175.847 C184.694,175.847 182.709,177.534 180.41,179.489 C178.008,181.531 175.285,183.847 170.029,183.847 C164.773,183.847 162.051,181.532 159.649,179.489 C157.35,177.534 155.365,175.847 151.213,175.847 C147.06,175.847 145.076,177.534 142.777,179.489 C140.376,181.532 137.653,183.847 132.398,183.847 C132.168,183.847 131.949,183.837 131.729,183.828 C131.668,183.836 131.608,183.847 131.545,183.847 C131.42,183.847 131.301,183.827 131.185,183.798 C126.713,183.472 124.228,181.368 122.019,179.489 C119.72,177.534 117.736,175.847 113.585,175.847 C109.435,175.847 107.451,177.534 105.153,179.489 C102.95,181.364 100.469,183.464 96.013,183.796 C95.896,183.826 95.774,183.847 95.647,183.847 C95.583,183.847 95.522,183.836 95.46,183.828 C95.235,183.837 95.012,183.847 94.777,183.847 C89.523,183.847 86.801,181.532 84.4,179.489 C82.102,177.534 80.117,175.847 75.966,175.847 C71.814,175.847 69.83,177.534 67.532,179.489 C65.131,181.532 62.41,183.847 57.156,183.847 C51.901,183.847 49.18,181.531 46.779,179.489 C44.481,177.534 42.497,175.847 38.346,175.847 C37.518,175.847 36.846,175.175 36.846,174.347 C36.846,173.519 37.518,172.847 38.346,172.847 C43.6,172.847 46.321,175.161 48.722,177.204 C51.02,179.158 53.005,180.847 57.156,180.847 C61.306,180.847 63.291,179.159 65.589,177.204 C67.99,175.162 70.711,172.847 75.966,172.847 C81.22,172.847 83.942,175.162 86.343,177.204 C88.517,179.054 90.434,180.646 94.147,180.813 L94.147,159.012 C94.147,158.993 94.152,158.976 94.153,158.956 C94.153,158.945 94.15,158.935 94.151,158.923 L100.551,50.734 L97.335,50.734 C96.507,50.734 95.835,50.062 95.835,49.234 C95.835,48.406 96.507,47.734 97.335,47.734 L100.728,47.734 L100.894,44.929 L97.527,44.929 C96.699,44.929 96.027,44.257 96.027,43.428 L96.027,36.188 C96.027,35.36 96.699,34.688 97.527,34.688 L100.955,34.688 C101.642,28.864 106.271,24.235 112.096,23.548 L112.096,15.383 C112.096,14.555 112.768,13.883 113.596,13.883 C114.424,13.883 115.096,14.555 115.096,15.383 L115.096,23.548 C120.921,24.235 125.549,28.864 126.237,34.688 L129.664,34.688 C130.492,34.688 131.164,35.36 131.164,36.188 L131.164,43.428 C131.164,44.257 130.492,44.929 129.664,44.929 L126.298,44.929 L126.464,47.734 L129.664,47.734 C130.492,47.734 131.164,48.406 131.164,49.234 C131.164,50.062 130.492,50.734 129.664,50.734 L126.642,50.734 L126.663,51.095 C126.663,51.096 126.663,51.097 126.663,51.098 L128.346,79.55 C128.346,79.553 128.347,79.557 128.347,79.561 L133.042,158.923 C133.043,158.937 133.04,158.95 133.04,158.965 C133.041,158.98 133.045,158.995 133.045,159.012 L133.045,180.813 C136.748,180.641 138.663,179.051 140.834,177.204 C143.235,175.161 145.958,172.847 151.213,172.847 C156.468,172.847 159.19,175.161 161.592,177.204 C163.891,179.158 165.877,180.847 170.029,180.847 C174.182,180.847 176.168,179.158 178.467,177.204 C180.869,175.161 183.591,172.847 188.846,172.847 C189.675,172.847 190.346,173.519 190.346,174.347 L190.346,174.347 Z M17.779,111.505 L48.069,111.505 C49.05,111.505 49.848,110.707 49.848,109.726 C49.848,108.744 49.05,107.945 48.069,107.945 L41.34,107.945 C40.511,107.945 39.84,107.273 39.84,106.445 C39.84,105.617 40.511,104.945 41.34,104.945 C42.321,104.945 43.119,104.147 43.119,103.166 C43.119,102.186 42.321,101.388 41.34,101.388 L31.15,101.388 C30.169,101.388 29.371,102.186 29.371,103.166 C29.371,104.147 30.169,104.945 31.15,104.945 C31.978,104.945 32.65,105.617 32.65,106.445 C32.65,107.273 31.978,107.945 31.15,107.945 L17.779,107.945 C16.798,107.945 16,108.744 16,109.726 C16,110.707 16.798,111.505 17.779,111.505 L17.779,111.505 Z M48.069,114.505 L17.779,114.505 C15.143,114.505 13,112.361 13,109.726 C13,107.091 15.143,104.945 17.779,104.945 L26.715,104.945 C26.493,104.396 26.371,103.795 26.371,103.166 C26.371,100.531 28.514,98.388 31.15,98.388 L41.34,98.388 C43.975,98.388 46.119,100.531 46.119,103.166 C46.119,103.795 45.997,104.396 45.775,104.945 L48.069,104.945 C50.705,104.945 52.848,107.091 52.848,109.726 C52.848,112.361 50.705,114.505 48.069,114.505 L48.069,114.505 Z M223.777,123.812 C223.777,122.842 222.987,122.052 222.016,122.052 L201.424,122.052 C200.596,122.052 199.924,121.38 199.924,120.552 C199.924,119.724 200.596,119.052 201.424,119.052 C202.396,119.052 203.186,118.261 203.186,117.289 C203.186,116.317 202.396,115.527 201.424,115.527 L178.94,115.527 C177.969,115.527 177.179,116.317 177.179,117.289 C177.179,118.261 177.969,119.052 178.94,119.052 L187.043,119.052 C187.871,119.052 188.543,119.724 188.543,120.552 C188.543,121.38 187.871,122.052 187.043,122.052 C186.071,122.052 185.281,122.842 185.281,123.812 C185.281,124.784 186.071,125.575 187.043,125.575 L222.016,125.575 C222.987,125.575 223.777,124.784 223.777,123.812 L223.777,123.812 Z M226.777,123.812 C226.777,126.438 224.642,128.575 222.016,128.575 L187.043,128.575 C184.417,128.575 182.281,126.438 182.281,123.812 C182.281,123.19 182.401,122.597 182.619,122.052 L178.94,122.052 C176.314,122.052 174.179,119.915 174.179,117.289 C174.179,114.663 176.314,112.527 178.94,112.527 L201.424,112.527 C204.05,112.527 206.186,114.663 206.186,117.289 C206.186,117.911 206.065,118.506 205.848,119.052 L222.016,119.052 C224.642,119.052 226.777,121.188 226.777,123.812 L226.777,123.812 Z M73.181,48.928 C74.009,48.928 74.681,48.256 74.681,47.428 C74.681,46.6 74.009,45.928 73.181,45.928 L63.286,45.928 C62.458,45.928 61.786,46.6 61.786,47.428 C61.786,48.256 62.458,48.928 63.286,48.928 L73.181,48.928 Z M51.515,41.309 L69.182,41.309 C70.01,41.309 70.682,40.637 70.682,39.809 C70.682,38.98 70.01,38.309 69.182,38.309 L51.515,38.309 C50.687,38.309 50.015,38.98 50.015,39.809 C50.015,40.637 50.687,41.309 51.515,41.309 L51.515,41.309 Z M63.286,33.689 L73.181,33.689 C74.009,33.689 74.681,33.018 74.681,32.189 C74.681,31.361 74.009,30.689 73.181,30.689 L63.286,30.689 C62.458,30.689 61.786,31.361 61.786,32.189 C61.786,33.018 62.458,33.689 63.286,33.689 L63.286,33.689 Z M154.011,48.928 L163.906,48.928 C164.734,48.928 165.406,48.256 165.406,47.428 C165.406,46.6 164.734,45.928 163.906,45.928 L154.011,45.928 C153.183,45.928 152.511,46.6 152.511,47.428 C152.511,48.256 153.183,48.928 154.011,48.928 L154.011,48.928 Z M156.512,39.809 C156.512,40.637 157.184,41.309 158.012,41.309 L175.679,41.309 C176.507,41.309 177.179,40.637 177.179,39.809 C177.179,38.98 176.507,38.309 175.679,38.309 L158.012,38.309 C157.184,38.309 156.512,38.98 156.512,39.809 L156.512,39.809 Z M36.25,41.309 L40.226,41.309 C41.054,41.309 41.726,40.637 41.726,39.809 C41.726,38.98 41.054,38.309 40.226,38.309 L36.25,38.309 C35.422,38.309 34.75,38.98 34.75,39.809 C34.75,40.637 35.422,41.309 36.25,41.309 L36.25,41.309 Z M186.772,41.309 L190.748,41.309 C191.576,41.309 192.248,40.637 192.248,39.809 C192.248,38.98 191.576,38.309 190.748,38.309 L186.772,38.309 C185.944,38.309 185.272,38.98 185.272,39.809 C185.272,40.637 185.944,41.309 186.772,41.309 L186.772,41.309 Z M154.011,33.689 L163.906,33.689 C164.734,33.689 165.406,33.018 165.406,32.189 C165.406,31.361 164.734,30.689 163.906,30.689 L154.011,30.689 C153.183,30.689 152.511,31.361 152.511,32.189 C152.511,33.018 153.183,33.689 154.011,33.689 L154.011,33.689 Z M115.12,101.889 C115.12,101.048 114.436,100.365 113.595,100.365 C112.756,100.365 112.072,101.048 112.072,101.889 L112.072,112.527 L115.12,112.527 L115.12,101.889 Z M118.12,101.889 L118.12,114.027 C118.12,114.855 117.448,115.527 116.62,115.527 L110.572,115.527 C109.744,115.527 109.072,114.855 109.072,114.027 L109.072,101.889 C109.072,99.395 111.101,97.365 113.595,97.365 C116.091,97.365 118.12,99.395 118.12,101.889 L118.12,101.889 Z M114.296,70.379 C114.296,69.992 113.982,69.678 113.595,69.678 C113.209,69.678 112.895,69.992 112.895,70.379 L112.895,77.715 L114.296,77.715 L114.296,70.379 Z M117.296,70.379 L117.296,79.215 C117.296,80.043 116.624,80.715 115.796,80.715 L111.395,80.715 C110.567,80.715 109.895,80.043 109.895,79.215 L109.895,70.379 C109.895,68.338 111.555,66.678 113.595,66.678 C115.636,66.678 117.296,68.338 117.296,70.379 L117.296,70.379 Z M112.096,8.284 L112.096,3.5 C112.096,2.672 112.768,2 113.596,2 C114.424,2 115.096,2.672 115.096,3.5 L115.096,8.284 C115.096,9.112 114.424,9.784 113.596,9.784 C112.768,9.784 112.096,9.112 112.096,8.284 L112.096,8.284 Z"/>
</svg>
