<svg xmlns="http://www.w3.org/2000/svg" width="30" height="30" viewBox="0 0 30 30">
  <g fill="#868998">
    <path d="M15,29 C22.7319865,29 29,22.7319865 29,15 C29,7.2680135 22.7319865,1 15,1 C7.2680135,1 1,7.2680135 1,15 C1,22.7319865 7.2680135,29 15,29 Z M15,30 C6.71572875,30 0,23.2842712 0,15 C0,6.71572875 6.71572875,0 15,0 C23.2842712,0 30,6.71572875 30,15 C30,23.2842712 23.2842712,30 15,30 Z"/>
    <path d="M9.95652174,7 C8.825,7 8.00318443,7.67718504 8.00318443,8.60855938 C8.00318443,9.54319031 8.84456522,10.250193 9.95652174,10.250193 C11.0880435,10.250193 11.9098589,9.55993095 11.9098589,8.589478 C11.857685,7.65484713 11.0521739,7 9.95652174,7 Z M8.32608696,10.904684 C8.14673913,10.904684 8,11.0512289 8,11.2303394 L8,20.6743446 C8,20.8534551 8.14673913,21 8.32608696,21 L11.5869565,21 C11.7663043,21 11.9130435,20.8534551 11.9130435,20.6743446 L11.9130435,11.2303394 C11.9130435,11.0512289 11.7663043,10.904684 11.5869565,10.904684 L8.32608696,10.904684 Z M13.2173913,10.904684 C13.0380435,10.904684 12.8913043,11.0512289 12.8913043,11.2303394 L12.8913043,20.6743446 C12.8913043,20.8534551 13.0380435,21 13.2173913,21 L16.1521739,21 C16.3321739,21 16.4782609,20.8541064 16.4782609,20.6743446 L16.4782609,15.7895143 L16.4782609,15.7081005 L16.4782609,15.6266867 C16.4782609,14.8548835 17.0719429,14.2262159 17.8284647,14.1675979 C17.8675951,14.1610848 17.9065217,14.1612376 17.9456522,14.1612376 C17.9847826,14.1612376 18.0237092,14.1610848 18.0628397,14.1675979 C18.8193614,14.2262159 19.4130435,14.8548835 19.4130435,15.6266867 L19.4130435,20.6743446 C19.4130435,20.8541064 19.5591304,21 19.7391304,21 L22.673913,21 C22.8532609,21 23,20.8534551 23,20.6743446 L23,15.1382036 C23,13.0312135 21.8681727,10.904684 19.3442593,10.904684 C18.1964333,10.904684 17.3293478,11.3476515 16.8043478,11.7156421 L16.8043478,11.2303394 C16.8043478,11.0512289 16.6576087,10.904684 16.4782609,10.904684 L13.2173913,10.904684 Z"/>
  </g>
</svg>
