<?xml version="1.0" encoding="utf-8"?>
<!-- Generator: Adobe Illustrator 22.0.0, SVG Export Plug-In . SVG Version: 6.00 Build 0)  -->
<svg version="1.1" id="Layer_1" xmlns="http://www.w3.org/2000/svg" xmlns:xlink="http://www.w3.org/1999/xlink" x="0px" y="0px"
	 viewBox="0 0 30 30" style="enable-background:new 0 0 30 30;" xml:space="preserve">
<style type="text/css">
	.st0{fill:#FF3333;}
</style>
<g>
	<path class="st0" d="M15,29c7.7,0,14-6.3,14-14S22.7,1,15,1S1,7.3,1,15S7.3,29,15,29z M15,30C6.7,30,0,23.3,0,15S6.7,0,15,0
		s15,6.7,15,15S23.3,30,15,30z"/>
	<path class="st0" d="M10,7C8.8,7,8,7.7,8,8.6c0,0.9,0.8,1.6,2,1.6c1.1,0,2-0.7,2-1.7C11.9,7.7,11.1,7,10,7z M8.3,10.9
		c-0.2,0-0.3,0.1-0.3,0.3v9.4C8,20.9,8.1,21,8.3,21h3.3c0.2,0,0.3-0.1,0.3-0.3v-9.4c0-0.2-0.1-0.3-0.3-0.3H8.3z M13.2,10.9
		c-0.2,0-0.3,0.1-0.3,0.3v9.4c0,0.2,0.1,0.3,0.3,0.3h2.9c0.2,0,0.3-0.1,0.3-0.3v-4.9v-0.1v-0.1c0-0.8,0.6-1.4,1.4-1.5
		c0,0,0.1,0,0.1,0s0.1,0,0.1,0c0.8,0.1,1.4,0.7,1.4,1.5v5c0,0.2,0.1,0.3,0.3,0.3h2.9c0.2,0,0.3-0.1,0.3-0.3v-5.5
		c0-2.1-1.1-4.2-3.7-4.2c-1.1,0-2,0.4-2.5,0.8v-0.5c0-0.2-0.1-0.3-0.3-0.3H13.2z"/>
</g>
</svg>
