<svg xmlns="http://www.w3.org/2000/svg" width="30" height="30" viewBox="0 0 30 30">
  <g fill="#868998" fill-rule="evenodd">
    <path d="M19,9.08108108 L17.5,9.08108108 C16.4275,9.08108108 16,9.33989189 16,10.1081081 L16,12 L19,12 L18.5,15 L16,15 L16,23.0036621 L12.5,23.0036621 L12.5,15 L11,15 L11,12 L12.5,12 L12.5,10.1081081 C12.5,7.70640541 13.2905,6 16,6 C17.451,6 19,6.51351351 19,6.51351351 L19,9.08108108 Z"/>
    <path fill-rule="nonzero" d="M15,29 C22.7319865,29 29,22.7319865 29,15 C29,7.2680135 22.7319865,1 15,1 C7.2680135,1 1,7.2680135 1,15 C1,22.7319865 7.2680135,29 15,29 Z M15,30 C6.71572875,30 0,23.2842712 0,15 C0,6.71572875 6.71572875,0 15,0 C23.2842712,0 30,6.71572875 30,15 C30,23.2842712 23.2842712,30 15,30 Z"/>
  </g>
</svg>
