<svg xmlns="http://www.w3.org/2000/svg" width="30" height="30" viewBox="0 0 30 30">
  <path fill="#FFF" fill-rule="evenodd" d="M15,30 C6.71572875,30 0,23.2842712 0,15 C0,6.71572875 6.71572875,0 15,0 C23.2842712,0 30,6.71572875 30,15 C30,23.2842712 23.2842712,30 15,30 Z M13.7878896,13.85 C14.3226267,13.59065 14.7407804,13.2052 14.9775161,12.8139 C15.2749227,12.35955 15.4051868,11.8389 15.4051868,11.1889 C15.4051868,10.6052 15.2868189,10.07675 15.1077802,9.68545 C14.9287414,9.2948 14.684868,8.9698 14.3273852,8.71045 C13.9693076,8.45175 13.6142041,8.2691 13.1377587,8.2028 C12.6613133,8.07345 12.1289555,8 11.5948132,8 L6,8 L6,21 L11.7619557,21 C12.2966928,21 12.8468951,20.9467 13.3233405,20.81735 C13.8580776,20.68735 14.264335,20.42605 14.6801094,20.1667 C15.0964787,19.8417 15.3915061,19.44325 15.6282417,18.9889 C15.8655722,18.53455 16,17.9528 16,17.3028 C15.9399239,16.3278 15.8209612,15.6726 15.4051868,15.0889 C15.047704,14.5052 14.5016655,14.1087 13.7878896,13.85 Z M11,18.9889 L8.97406614,18.9889 L8.97406614,15.0889 L11.0559124,15.0889 C12.7796812,15.0889 13.0818463,16.25955 13.0818463,17.0389 C13.0818463,17.81825 12.547704,18.9889 11,18.9889 Z M8.97406614,9.8889 L10.6466809,9.8889 C12.3710445,9.8889 12.5429455,10.99325 12.5429455,11.5139 C12.5429455,12.2302 12.3014513,13.1389 10.8144183,13.1389 L8.97406614,13.1389 L8.97406614,9.8889 Z M18.6,9 C18.267,9 18,9.2245 18,9.5 C18,9.7755 18.267,10 18.6,10 L23.4,10 C23.733,10 24,9.7755 24,9.5 C24,9.2245 23.733,9 23.4,9 L18.6,9 Z M21.1584438,19.2564 C19.5790809,19.2564 19.2424584,17.9394 19.184945,17.4 L25,17.4 C25,15.4194 24.7710741,12 21.1060051,12 C20.090499,12 17,12.4806 17,16.5 C17,20.2194 19.7533127,21 21.1060051,21 C24.2072174,21 24.9469975,18 24.9469975,18 L22.9734987,18 C22.9734987,18 22.6255991,19.2564 21.1584438,19.2564 Z M19.3084297,15.0564 C19.3659431,14.8176 19.4781505,14.637 19.590358,14.4564 C19.7600789,14.2758 19.9297998,14.1072 20.1542148,13.9878 C20.3786298,13.8684 20.6588666,13.8 21.0530025,13.8 C21.6168593,13.8 22.0042289,13.9878 22.2861573,14.2878 C22.5680857,14.5878 22.7423175,15.0564 22.7970116,15.6564 L19.184945,15.6564 C19.184945,15.4176 19.2509163,15.237 19.3084297,15.0564 Z"/>
</svg>
