<svg xmlns="http://www.w3.org/2000/svg" width="30" height="30" viewBox="0 0 30 30">
  <path fill="#FFF" fill-rule="evenodd" d="M15,30 C6.71572875,30 0,23.2842712 0,15 C0,6.71572875 6.71572875,0 15,0 C23.2842712,0 30,6.71572875 30,15 C30,23.2842712 23.2842712,30 15,30 Z M19,9.08108108 L19,6.51351351 C19,6.51351351 17.451,6 16,6 C13.2905,6 12.5,7.70640541 12.5,10.1081081 L12.5,12 L11,12 L11,15 L12.5,15 L12.5,23.0036621 L16,23.0036621 L16,15 L18.5,15 L19,12 L16,12 L16,10.1081081 C16,9.33989189 16.4275,9.08108108 17.5,9.08108108 L19,9.08108108 Z"/>
</svg>
