<svg xmlns="http://www.w3.org/2000/svg" width="30" height="30" viewBox="0 0 30 30">
  <g fill="#EF401E">
    <path d="M23,10.6573492 C22.412103,10.9384615 21.7791277,11.1285663 21.115161,11.2135067 C21.7932147,10.7766703 22.313494,10.0840014 22.5586077,9.25886602 C21.9237543,9.66334417 21.2222223,9.95760202 20.4727947,10.1153485 C19.8755063,9.42874684 19.0218347,9 18.0770677,9 C16.265481,9 14.7957387,10.5825208 14.7957387,12.5341278 C14.7957387,12.8111954 14.8239127,13.0801733 14.8802607,13.3390394 C12.1520807,13.1914048 9.73381467,11.7858433 8.113811,9.64514265 C7.83113233,10.1689419 7.66960133,10.7766703 7.66960133,11.4238353 C7.66960133,12.6494041 8.24904633,13.7313832 9.12995233,14.3654027 C8.59276867,14.3482123 8.085637,14.1874323 7.64236667,13.9245215 L7.64236667,13.9680029 C7.64236667,15.6809679 8.77402133,17.1097869 10.2766333,17.4333695 C10.0014673,17.5162875 9.71127533,17.5577465 9.41169233,17.5577465 C9.20038733,17.5577465 8.99377833,17.5365114 8.793743,17.4950524 C9.211657,18.8985915 10.423138,19.9209101 11.8600107,19.9482123 C10.736808,20.8967136 9.32059633,21.4619718 7.78323633,21.4619718 C7.518401,21.4619718 7.256383,21.4457927 7,21.4134345 C8.452838,22.4145179 10.1789633,23 12.0318717,23 C18.0704937,23 21.3715443,17.6153846 21.3715443,12.9446732 C21.3715443,12.7909715 21.368727,12.6372698 21.363092,12.4866017 C22.0045197,11.9880823 22.561425,11.3661972 23,10.6573492"/>
    <path d="M15,29 C22.7319865,29 29,22.7319865 29,15 C29,7.2680135 22.7319865,1 15,1 C7.2680135,1 1,7.2680135 1,15 C1,22.7319865 7.2680135,29 15,29 Z M15,30 C6.71572875,30 0,23.2842712 0,15 C0,6.71572875 6.71572875,0 15,0 C23.2842712,0 30,6.71572875 30,15 C30,23.2842712 23.2842712,30 15,30 Z"/>
  </g>
</svg>
