<svg xmlns="http://www.w3.org/2000/svg" width="30" height="30" viewBox="0 0 30 30">
  <g fill="#868998" fill-rule="evenodd">
    <path fill-rule="nonzero" d="M15,29 C22.7319865,29 29,22.7319865 29,15 C29,7.2680135 22.7319865,1 15,1 C7.2680135,1 1,7.2680135 1,15 C1,22.7319865 7.2680135,29 15,29 Z M15,30 C6.71572875,30 0,23.2842712 0,15 C0,6.71572875 6.71572875,0 15,0 C23.2842712,0 30,6.71572875 30,15 C30,23.2842712 23.2842712,30 15,30 Z"/>
    <path d="M7,11.182 L7,18.827 L11.537,15.453 L7,11.182 Z M16.714,17.1 C16.233,17.552 15.616,17.778 15,17.778 C14.384,17.778 13.767,17.552 13.286,17.1 L12.276,16.149 L7,20.074 L7,21 L23,21 L23,20.074 L17.724,16.149 L16.714,17.1 Z M23,11.182 L18.463,15.453 L23,18.827 L23,11.182 Z M13.972,16.371 L7.205,10 L22.795,10 L16.028,16.371 C15.452,16.914 14.548,16.914 13.972,16.371 L13.972,16.371 Z"/>
  </g>
</svg>
