<svg xmlns="http://www.w3.org/2000/svg" width="240" height="200" viewBox="0 0 240 200">
  <path fill="#868998" fill-rule="evenodd" d="M128.347,163.32 C121.363,163.32 115.68,157.638 115.68,150.654 C115.68,146.748 118.858,143.57 122.763,143.57 C126.669,143.57 129.847,146.748 129.847,150.654 C129.847,151.483 129.175,152.154 128.347,152.154 C127.519,152.154 126.847,151.483 126.847,150.654 C126.847,148.402 125.015,146.57 122.763,146.57 C120.512,146.57 118.68,148.402 118.68,150.654 C118.68,155.984 123.017,160.32 128.347,160.32 C133.677,160.32 138.013,155.984 138.013,150.654 L138.013,143.334 C138.013,142.505 138.685,141.834 139.513,141.834 C140.341,141.834 141.013,142.505 141.013,143.334 L141.013,150.654 C141.013,157.638 135.331,163.32 128.347,163.32 L128.347,163.32 Z M175.914,159.029 C175.914,166.013 170.231,171.695 163.247,171.695 C156.264,171.695 150.581,166.013 150.581,159.029 C150.581,159.012 150.586,158.996 150.586,158.979 C150.586,158.963 150.581,158.946 150.581,158.929 L150.581,138.597 C150.581,137.768 151.253,137.097 152.081,137.097 C152.909,137.097 153.581,137.768 153.581,138.597 L153.581,158.929 C153.581,158.946 153.577,158.963 153.576,158.979 C153.577,158.996 153.581,159.012 153.581,159.029 C153.581,164.359 157.917,168.695 163.247,168.695 C168.577,168.695 172.914,164.359 172.914,159.029 C172.914,156.777 171.082,154.945 168.831,154.945 C166.579,154.945 164.747,156.777 164.747,159.029 C164.747,159.858 164.076,160.529 163.247,160.529 C162.419,160.529 161.747,159.858 161.747,159.029 C161.747,155.123 164.925,151.945 168.831,151.945 C172.736,151.945 175.914,155.123 175.914,159.029 L175.914,159.029 Z M90.029,82.173 C90.984,82.382 91.974,82.501 92.992,82.501 C100.618,82.501 106.823,76.297 106.823,68.671 C106.823,61.045 100.618,54.841 92.992,54.841 C91.974,54.841 90.984,54.959 90.029,55.168 L90.029,38.276 C90.029,21.86 103.327,9 120.305,9 C137.283,9 150.581,21.86 150.581,38.276 L150.581,55.168 C149.626,54.959 148.636,54.841 147.618,54.841 C139.992,54.841 133.787,61.045 133.787,68.671 C133.787,76.297 139.992,82.501 147.618,82.501 C148.636,82.501 149.626,82.382 150.581,82.173 L150.581,87.501 L139.516,87.501 C139.515,87.501 139.514,87.5 139.513,87.5 C139.512,87.5 139.511,87.501 139.51,87.501 L101.1,87.501 C101.099,87.501 101.098,87.5 101.097,87.5 C101.096,87.5 101.095,87.501 101.094,87.501 L90.029,87.501 L90.029,82.173 Z M82.161,68.671 C82.161,62.698 87.019,57.841 92.992,57.841 C98.965,57.841 103.823,62.698 103.823,68.671 C103.823,74.642 98.965,79.501 92.992,79.501 C87.019,79.501 82.161,74.642 82.161,68.671 L82.161,68.671 Z M84.573,51.234 C81.114,51.391 78.618,51.503 77.541,50.474 C76.671,49.642 76.266,47.745 76.266,44.503 C76.266,27.464 85.379,15.918 101.831,11.283 C92.85,17.005 87.029,26.858 87.029,38.276 L87.029,51.138 C86.166,51.166 85.336,51.199 84.573,51.234 L84.573,51.234 Z M164.809,44.503 C164.809,47.745 164.405,49.642 163.535,50.474 C162.459,51.503 159.963,51.391 156.503,51.234 C155.605,51.193 154.617,51.154 153.581,51.125 L153.581,38.276 C153.581,26.709 147.604,16.751 138.423,11.064 C155.391,15.544 164.809,27.184 164.809,44.503 L164.809,44.503 Z M158.449,68.671 C158.449,74.642 153.591,79.501 147.618,79.501 C141.645,79.501 136.787,74.642 136.787,68.671 C136.787,62.698 141.645,57.841 147.618,57.841 C153.591,57.841 158.449,62.698 158.449,68.671 L158.449,68.671 Z M168.831,100.847 C164.925,100.847 161.747,104.025 161.747,107.929 C161.747,108.758 162.419,109.429 163.247,109.429 C164.076,109.429 164.747,108.758 164.747,107.929 C164.747,105.678 166.579,103.847 168.831,103.847 C171.082,103.847 172.914,105.678 172.914,107.929 C172.914,113.259 168.577,117.595 163.247,117.595 C157.917,117.595 153.581,113.259 153.581,107.929 L153.581,89.001 L153.581,81.13 C158.226,78.898 161.449,74.159 161.449,68.671 C161.449,63.182 158.226,58.444 153.581,56.211 L153.581,54.126 C154.567,54.154 155.51,54.192 156.368,54.231 C157.555,54.285 158.651,54.334 159.657,54.334 C162.203,54.334 164.171,54.016 165.607,52.643 C167.151,51.167 167.809,48.733 167.809,44.503 C167.809,20.394 150.308,6.001 120.994,6.001 C120.951,6.001 120.91,6.01 120.867,6.013 C120.68,6.01 120.494,6 120.305,6 C120.243,6 120.182,6.005 120.12,6.005 C120.107,6.004 120.095,6.001 120.081,6.001 C90.767,6.001 73.266,20.394 73.266,44.503 C73.266,48.733 73.925,51.167 75.469,52.643 C76.905,54.016 78.872,54.334 81.419,54.334 C82.424,54.334 83.52,54.285 84.708,54.231 C85.431,54.198 86.215,54.166 87.029,54.139 L87.029,56.211 C82.384,58.444 79.161,63.182 79.161,68.671 C79.161,74.159 82.384,78.898 87.029,81.13 L87.029,89.001 L87.029,107.929 C87.029,113.259 82.693,117.595 77.363,117.595 C72.033,117.595 67.696,113.259 67.696,107.929 C67.696,105.678 69.528,103.847 71.779,103.847 C74.031,103.847 75.863,105.678 75.863,107.929 C75.863,108.758 76.534,109.429 77.363,109.429 C78.191,109.429 78.863,108.758 78.863,107.929 C78.863,104.025 75.685,100.847 71.779,100.847 C67.874,100.847 64.696,104.025 64.696,107.929 C64.696,114.913 70.379,120.595 77.363,120.595 C84.347,120.595 90.029,114.913 90.029,107.929 L90.029,90.501 L99.597,90.501 L99.597,110.097 C99.597,110.926 100.269,111.597 101.097,111.597 C101.925,111.597 102.597,110.926 102.597,110.097 L102.597,90.501 L112.164,90.501 L112.164,123.912 C112.164,129.242 107.828,133.578 102.498,133.578 C97.168,133.578 92.831,129.242 92.831,123.912 C92.831,121.66 94.663,119.828 96.914,119.828 C99.166,119.828 100.998,121.66 100.998,123.912 C100.998,124.741 101.67,125.412 102.498,125.412 C103.326,125.412 103.998,124.741 103.998,123.912 C103.998,120.006 100.821,116.828 96.914,116.828 C93.009,116.828 89.831,120.006 89.831,123.912 C89.831,130.896 95.514,136.578 102.498,136.578 C109.482,136.578 115.164,130.896 115.164,123.912 L115.164,90.501 L125.446,90.501 L125.446,123.912 C125.446,130.896 131.128,136.578 138.112,136.578 C145.096,136.578 150.779,130.896 150.779,123.912 C150.779,120.006 147.601,116.828 143.696,116.828 C139.79,116.828 136.612,120.006 136.612,123.912 C136.612,124.741 137.284,125.412 138.112,125.412 C138.94,125.412 139.612,124.741 139.612,123.912 C139.612,121.66 141.444,119.828 143.696,119.828 C145.947,119.828 147.779,121.66 147.779,123.912 C147.779,129.242 143.442,133.578 138.112,133.578 C132.782,133.578 128.446,129.242 128.446,123.912 L128.446,90.501 L138.013,90.501 L138.013,110.097 C138.013,110.926 138.685,111.597 139.513,111.597 C140.341,111.597 141.013,110.926 141.013,110.097 L141.013,90.501 L150.581,90.501 L150.581,107.929 C150.581,114.913 156.264,120.595 163.247,120.595 C170.231,120.595 175.914,114.913 175.914,107.929 C175.914,104.025 172.736,100.847 168.831,100.847 L168.831,100.847 Z M124.93,178.679 C124.93,185.663 119.247,191.345 112.263,191.345 C105.279,191.345 99.597,185.663 99.597,178.679 C99.597,178.636 99.606,178.596 99.61,178.554 C99.606,178.512 99.597,178.472 99.597,178.429 L99.597,143.334 C99.597,142.506 100.269,141.834 101.097,141.834 C101.925,141.834 102.597,142.506 102.597,143.334 L102.597,178.429 C102.597,178.472 102.588,178.512 102.584,178.554 C102.588,178.596 102.597,178.636 102.597,178.679 C102.597,184.009 106.933,188.345 112.263,188.345 C117.593,188.345 121.93,184.009 121.93,178.679 C121.93,176.428 120.098,174.597 117.847,174.597 C115.595,174.597 113.763,176.428 113.763,178.679 C113.763,179.508 113.091,180.179 112.263,180.179 C111.435,180.179 110.763,179.508 110.763,178.679 C110.763,174.775 113.941,171.597 117.847,171.597 C121.752,171.597 124.93,174.775 124.93,178.679 L124.93,178.679 Z M90.029,138.597 L90.029,158.929 C90.029,158.946 90.024,158.963 90.024,158.979 C90.024,158.996 90.029,159.012 90.029,159.029 C90.029,166.013 84.347,171.695 77.363,171.695 C70.379,171.695 64.696,166.013 64.696,159.029 C64.696,155.123 67.874,151.945 71.779,151.945 C75.685,151.945 78.863,155.123 78.863,159.029 C78.863,159.858 78.191,160.529 77.363,160.529 C76.534,160.529 75.863,159.858 75.863,159.029 C75.863,156.777 74.031,154.945 71.779,154.945 C69.528,154.945 67.696,156.777 67.696,159.029 C67.696,164.359 72.033,168.695 77.363,168.695 C82.693,168.695 87.029,164.359 87.029,159.029 C87.029,159.012 87.033,158.996 87.034,158.979 C87.033,158.963 87.029,158.946 87.029,158.929 L87.029,138.597 C87.029,137.768 87.701,137.097 88.529,137.097 C89.357,137.097 90.029,137.768 90.029,138.597 L90.029,138.597 Z M126.116,70.087 C125.448,72.672 123.097,74.587 120.305,74.587 C117.514,74.587 115.162,72.672 114.494,70.087 L126.116,70.087 Z M120.305,77.587 C125.267,77.587 129.305,73.549 129.305,68.587 C129.305,67.757 128.634,67.087 127.805,67.087 L112.805,67.087 C111.976,67.087 111.305,67.757 111.305,68.587 C111.305,73.549 115.343,77.587 120.305,77.587 L120.305,77.587 Z M147.618,65.059 C149.767,65.059 151.727,66.157 152.86,67.995 C153.296,68.7 153.076,69.624 152.37,70.059 C151.667,70.494 150.742,70.275 150.306,69.569 C149.723,68.624 148.719,68.059 147.618,68.059 C146.517,68.059 145.512,68.623 144.93,69.569 C144.647,70.029 144.155,70.282 143.652,70.282 C143.383,70.282 143.112,70.21 142.867,70.059 C142.16,69.625 141.941,68.701 142.376,67.995 C143.507,66.157 145.468,65.059 147.618,65.059 L147.618,65.059 Z M92.992,68.059 C91.891,68.059 90.886,68.623 90.304,69.569 C90.021,70.029 89.529,70.282 89.026,70.282 C88.757,70.282 88.486,70.21 88.241,70.059 C87.534,69.625 87.315,68.701 87.75,67.995 C88.881,66.157 90.841,65.059 92.992,65.059 C95.143,65.059 97.103,66.157 98.234,67.996 C98.669,68.702 98.448,69.626 97.743,70.06 C97.037,70.492 96.114,70.275 95.679,69.568 C95.097,68.623 94.093,68.059 92.992,68.059 L92.992,68.059 Z M192.289,143.332 C192.289,144.367 191.448,145.209 190.413,145.209 C189.379,145.209 188.537,144.367 188.537,143.332 C188.537,142.299 189.379,141.457 190.413,141.457 C191.448,141.457 192.289,142.299 192.289,143.332 L192.289,143.332 Z M49.55,52.835 C49.55,51.801 50.392,50.96 51.426,50.96 C52.46,50.96 53.302,51.801 53.302,52.835 C53.302,53.87 52.46,54.712 51.426,54.712 C50.392,54.712 49.55,53.87 49.55,52.835 L49.55,52.835 Z M143.906,188.011 C142.99,186.469 141.7,185.179 140.158,184.263 C141.7,183.347 142.99,182.058 143.906,180.516 C144.822,182.058 146.112,183.347 147.654,184.263 C146.111,185.179 144.822,186.469 143.906,188.011 L143.906,188.011 Z M154.553,183.961 C154.483,183.619 154.292,183.325 154.033,183.111 C153.774,182.897 153.446,182.763 153.083,182.763 L153.08,182.763 C148.85,182.761 145.409,179.321 145.406,175.091 C145.406,175.089 145.406,175.087 145.406,175.086 C145.406,174.258 144.734,173.586 143.906,173.586 L143.906,173.586 C143.077,173.586 142.406,174.258 142.406,175.086 L142.406,175.091 C142.403,179.321 138.961,182.762 134.731,182.763 L134.727,182.763 C133.9,182.763 133.227,183.435 133.227,184.263 C133.227,184.678 133.396,185.053 133.667,185.324 C133.939,185.595 134.314,185.763 134.728,185.763 L134.731,185.763 C138.964,185.765 142.406,189.209 142.406,193.441 C142.406,194.27 143.077,194.941 143.906,194.941 C144.734,194.941 145.406,194.27 145.406,193.441 C145.406,189.209 148.848,185.765 153.08,185.763 L153.083,185.763 C153.911,185.763 154.583,185.092 154.583,184.263 C154.583,184.16 154.573,184.058 154.553,183.961 L154.553,183.961 Z M53.902,138.597 L53.902,138.597 L53.902,138.598 C53.902,138.633 53.894,138.665 53.891,138.699 C53.856,139.221 53.556,139.665 53.123,139.905 C52.908,140.024 52.664,140.098 52.402,140.098 C52.153,140.098 51.951,140.299 51.951,140.547 C51.951,141.376 51.279,142.047 50.451,142.047 C49.622,142.047 48.951,141.376 48.951,140.547 C48.951,140.299 48.748,140.098 48.5,140.098 C48.222,140.098 47.965,140.017 47.742,139.885 C47.383,139.673 47.117,139.321 47.031,138.9 C47.011,138.802 47,138.701 47,138.598 L47,138.597 C47,137.768 47.672,137.097 48.5,137.097 C48.748,137.097 48.951,136.894 48.951,136.646 C48.951,136.543 48.961,136.442 48.981,136.344 C49.121,135.66 49.726,135.146 50.451,135.146 C51.279,135.146 51.951,135.817 51.951,136.646 C51.951,136.894 52.153,137.097 52.402,137.097 C53.23,137.097 53.902,137.768 53.902,138.597 L53.902,138.597 Z M184.57,73.751 C184.164,73.217 183.689,72.742 183.156,72.337 C183.689,71.931 184.164,71.456 184.57,70.923 C184.975,71.456 185.45,71.931 185.984,72.337 C185.451,72.742 184.975,73.217 184.57,73.751 L184.57,73.751 Z M190.413,73.837 C191.242,73.837 191.913,73.166 191.913,72.337 C191.913,72.254 191.902,72.174 191.889,72.094 C191.821,71.679 191.587,71.319 191.252,71.092 C191.013,70.931 190.724,70.837 190.413,70.837 L190.412,70.837 C188.018,70.836 186.071,68.889 186.07,66.496 L186.07,66.493 C186.07,65.665 185.398,64.993 184.57,64.993 L184.569,64.993 C183.742,64.993 183.069,65.665 183.069,66.493 L183.069,66.496 C183.068,68.889 181.121,70.836 178.727,70.837 L178.726,70.837 C178.415,70.837 178.127,70.931 177.888,71.092 C177.552,71.319 177.318,71.679 177.25,72.094 C177.238,72.174 177.226,72.254 177.226,72.337 C177.226,73.166 177.898,73.837 178.726,73.837 L178.727,73.837 C181.122,73.838 183.07,75.786 183.07,78.18 C183.07,79.009 183.742,79.68 184.57,79.68 C185.398,79.68 186.07,79.009 186.07,78.18 C186.07,75.786 188.017,73.838 190.412,73.837 L190.413,73.837 Z"/>
</svg>
