<svg xmlns="http://www.w3.org/2000/svg" width="240" height="200" viewBox="0 0 240 200">
  <path fill="#34B2DC" fill-rule="evenodd" d="M123.208,101.461 C120.245,101.461 117.835,99.052 117.835,96.09 C117.835,93.127 120.245,90.717 123.208,90.717 C126.17,90.717 128.579,93.127 128.579,96.09 C128.579,99.052 126.17,101.461 123.208,101.461 L123.208,101.461 Z M161.043,97.59 C161.871,97.59 162.543,96.918 162.543,96.09 C162.543,95.262 161.871,94.59 161.043,94.59 L131.437,94.59 C131.22,93.397 130.753,92.292 130.087,91.331 L151.021,70.397 C151.607,69.811 151.607,68.861 151.021,68.275 C150.436,67.69 149.486,67.69 148.9,68.275 L127.966,89.209 C127.006,88.543 125.901,88.076 124.708,87.859 L124.707,58.256 C124.707,57.428 124.035,56.756 123.207,56.756 C122.379,56.756 121.707,57.428 121.707,58.256 L121.708,87.858 C120.515,88.076 119.409,88.543 118.449,89.209 L97.515,68.277 C96.929,67.691 95.979,67.691 95.394,68.277 C94.808,68.863 94.808,69.813 95.394,70.399 L116.327,91.331 C115.66,92.292 115.193,93.398 114.977,94.592 L85.373,94.592 C84.545,94.592 83.873,95.264 83.873,96.092 C83.873,96.92 84.545,97.592 85.373,97.592 L114.978,97.592 C115.195,98.785 115.662,99.89 116.329,100.85 L95.394,121.783 C94.809,122.369 94.809,123.318 95.394,123.905 C95.687,124.198 96.071,124.344 96.455,124.344 C96.839,124.344 97.223,124.198 97.516,123.905 L118.451,102.971 C119.411,103.636 120.516,104.103 121.709,104.319 L121.709,133.926 C121.709,134.754 122.381,135.426 123.209,135.426 C124.037,135.426 124.709,134.754 124.709,133.926 L124.709,104.318 C125.902,104.102 127.007,103.635 127.966,102.969 L148.901,123.905 C149.194,124.198 149.578,124.344 149.962,124.344 C150.346,124.344 150.73,124.198 151.023,123.905 C151.608,123.318 151.608,122.369 151.023,121.783 L130.087,100.848 C130.753,99.888 131.22,98.782 131.437,97.59 L161.043,97.59 Z M134.282,145.141 C134.439,145.954 133.908,146.741 133.095,146.899 C129.86,147.524 126.534,147.842 123.208,147.842 C94.671,147.842 71.455,124.626 71.455,96.09 C71.455,77.89 81.194,60.815 96.872,51.529 C97.584,51.112 98.505,51.343 98.928,52.056 C99.35,52.769 99.114,53.689 98.401,54.112 C83.631,62.858 74.455,78.945 74.455,96.09 C74.455,122.972 96.325,144.842 123.208,144.842 C126.343,144.842 129.478,144.543 132.524,143.953 C133.337,143.794 134.124,144.327 134.282,145.141 L134.282,145.141 Z M147.174,141.968 C146.954,142.084 146.714,142.139 146.48,142.139 C145.94,142.139 145.418,141.847 145.15,141.334 C144.767,140.601 145.049,139.694 145.785,139.31 C161.93,130.858 171.959,114.298 171.959,96.09 C171.959,69.208 150.089,47.338 123.208,47.338 C119.075,47.338 114.968,47.856 111.003,48.876 C110.207,49.087 109.383,48.6 109.178,47.798 C108.971,46.996 109.454,46.178 110.255,45.972 C114.463,44.888 118.822,44.338 123.208,44.338 C151.744,44.338 174.959,67.554 174.959,96.09 C174.959,115.418 164.312,132.997 147.174,141.968 L147.174,141.968 Z M169.146,44.562 C171.475,38.815 175.655,34.284 179.311,33.542 C181.107,33.176 182.685,33.706 184.138,35.161 C184.139,35.162 184.14,35.162 184.141,35.163 C185.591,36.615 186.12,38.193 185.756,39.987 C185.014,43.644 180.482,47.822 174.735,50.151 C168.54,52.662 166.422,55.731 165.715,57.749 L163.633,55.668 C163.632,55.667 163.632,55.666 163.631,55.666 L161.548,53.581 C163.566,52.875 166.634,50.757 169.146,44.562 L169.146,44.562 Z M161.509,57.788 C161.51,57.789 161.512,57.789 161.513,57.79 L166.583,62.86 C166.875,63.153 167.26,63.299 167.644,63.299 C168.027,63.299 168.412,63.153 168.705,62.86 C168.998,62.567 169.144,62.183 169.144,61.799 C169.144,61.415 168.998,61.031 168.705,60.738 C168.393,60.427 168.287,59.852 168.418,59.198 C168.586,58.368 169.623,55.461 175.863,52.932 C182.699,50.161 187.735,45.315 188.697,40.584 C189.26,37.806 188.416,35.196 186.26,33.039 C186.258,33.038 186.256,33.037 186.255,33.036 C184.099,30.881 181.489,30.04 178.715,30.602 C173.984,31.561 169.136,36.599 166.366,43.435 C163.836,49.676 160.927,50.711 160.097,50.879 C159.446,51.013 158.872,50.905 158.56,50.594 C157.973,50.008 157.024,50.008 156.438,50.594 C155.853,51.179 155.853,52.129 156.438,52.715 L161.509,57.788 Z M207.108,100.647 C204,102.707 197.838,102.459 192.128,100.042 C185.97,97.438 182.304,98.109 180.377,99.037 L180.377,96.09 L180.377,96.089 L180.377,93.144 C182.304,94.069 185.972,94.74 192.127,92.138 C197.84,89.721 204,89.472 207.107,91.533 C208.635,92.545 209.377,94.035 209.377,96.09 C209.377,98.144 208.635,99.635 207.108,100.647 L207.108,100.647 Z M212.377,96.09 C212.377,93.039 211.128,90.599 208.766,89.032 C204.742,86.367 197.752,86.501 190.959,89.374 C184.753,92 181.967,90.672 181.262,90.206 C180.708,89.838 180.377,89.357 180.377,88.917 L180.377,88.916 C180.377,88.088 179.706,87.416 178.877,87.416 C178.049,87.416 177.377,88.087 177.377,88.915 L177.377,88.916 L177.377,96.09 L177.377,96.091 L177.377,103.264 C177.377,104.092 178.049,104.764 178.877,104.764 C179.705,104.764 180.377,104.092 180.377,103.264 C180.377,102.823 180.709,102.341 181.264,101.973 C181.971,101.504 184.757,100.182 190.959,102.806 C194.501,104.304 198.097,105.058 201.298,105.058 C204.236,105.058 206.84,104.423 208.765,103.148 C211.128,101.581 212.377,99.141 212.377,96.09 L212.377,96.09 Z M179.312,158.639 C175.656,157.897 171.476,153.365 169.147,147.618 C166.637,141.423 163.568,139.305 161.55,138.598 L163.632,136.515 C163.632,136.515 163.633,136.515 163.633,136.514 L165.716,134.431 C166.424,136.449 168.542,139.519 174.737,142.028 C180.483,144.358 185.014,148.538 185.757,152.193 C186.121,153.989 185.592,155.568 184.138,157.022 C184.138,157.022 184.137,157.023 184.137,157.024 C182.685,158.475 181.105,159.002 179.312,158.639 L179.312,158.639 Z M175.864,139.249 C169.623,136.719 168.588,133.812 168.42,132.981 C168.287,132.328 168.394,131.753 168.705,131.441 C168.998,131.148 169.144,130.765 169.144,130.381 C169.144,129.997 168.998,129.613 168.705,129.32 C168.119,128.734 167.17,128.734 166.584,129.32 L161.512,134.394 L156.439,139.465 C156.146,139.758 156,140.142 156,140.525 C156,140.909 156.146,141.293 156.439,141.586 C157.025,142.172 157.975,142.172 158.561,141.586 C158.872,141.276 159.447,141.17 160.1,141.301 C160.931,141.469 163.838,142.504 166.366,148.745 C169.137,155.581 173.984,160.619 178.715,161.579 C179.275,161.692 179.829,161.749 180.374,161.749 C182.527,161.749 184.537,160.865 186.258,159.145 C186.259,159.144 186.26,159.144 186.26,159.144 C188.418,156.984 189.26,154.375 188.696,151.597 C187.737,146.867 182.7,142.021 175.864,139.249 L175.864,139.249 Z M127.766,179.989 C126.754,181.518 125.263,182.26 123.208,182.26 C121.154,182.26 119.664,181.518 118.651,179.989 C116.591,176.88 116.84,170.721 119.257,165.011 C121.861,158.855 121.189,155.188 120.263,153.26 L123.209,153.26 L123.21,153.26 L126.155,153.26 C125.228,155.189 124.557,158.856 127.161,165.01 C129.577,170.722 129.826,176.882 127.766,179.989 L127.766,179.989 Z M129.093,154.144 C129.46,153.59 129.941,153.26 130.38,153.26 L130.381,153.26 L130.382,153.26 C131.21,153.26 131.881,152.589 131.882,151.761 C131.883,150.933 131.211,150.261 130.383,150.26 L130.378,150.26 L123.209,150.26 L123.208,150.26 L116.035,150.26 C115.207,150.26 114.535,150.932 114.535,151.76 C114.535,152.588 115.207,153.26 116.035,153.26 C116.476,153.26 116.958,153.591 117.325,154.147 C117.794,154.853 119.117,157.64 116.493,163.841 C113.619,170.634 113.484,177.623 116.151,181.648 C117.717,184.011 120.157,185.26 123.208,185.26 C126.26,185.26 128.7,184.011 130.267,181.648 C132.933,177.625 132.799,170.635 129.925,163.841 C127.3,157.638 128.624,154.851 129.093,154.144 L129.093,154.144 Z M67.105,158.639 C65.313,159.004 63.732,158.475 62.279,157.024 C62.279,157.023 62.278,157.022 62.278,157.022 C60.825,155.568 60.296,153.99 60.66,152.194 C61.403,148.538 65.934,144.359 71.681,142.03 C77.876,139.521 79.993,136.451 80.7,134.433 L82.784,136.516 C82.784,136.517 82.785,136.517 82.785,136.517 L84.867,138.6 C82.849,139.308 79.781,141.426 77.271,147.62 C74.94,153.366 70.76,157.898 67.105,158.639 L67.105,158.639 Z M86.318,141.303 C86.971,141.168 87.544,141.276 87.856,141.588 C88.442,142.174 89.392,142.174 89.978,141.588 C90.564,141.003 90.564,140.053 89.978,139.467 C89.976,139.465 89.974,139.463 89.973,139.461 L84.905,134.396 C84.905,134.395 84.904,134.395 84.904,134.395 L79.837,129.327 L79.832,129.322 C79.246,128.736 78.297,128.736 77.711,129.322 C77.125,129.908 77.125,130.857 77.711,131.443 C78.023,131.755 78.129,132.331 77.997,132.983 C77.828,133.815 76.793,136.721 70.554,139.25 C63.718,142.021 58.681,146.866 57.72,151.598 C57.156,154.376 57.999,156.985 60.156,159.144 C60.156,159.144 60.157,159.144 60.158,159.145 C61.88,160.865 63.89,161.749 66.043,161.749 C66.587,161.749 67.141,161.692 67.701,161.579 C72.432,160.619 77.278,155.583 80.05,148.747 C82.58,142.506 85.488,141.471 86.318,141.303 L86.318,141.303 Z M54.289,100.044 C48.577,102.46 42.42,102.708 39.308,100.649 C37.781,99.636 37.039,98.145 37.039,96.09 C37.039,94.036 37.781,92.546 39.309,91.534 C42.418,89.473 48.579,89.722 54.288,92.14 C60.447,94.744 64.112,94.073 66.039,93.146 L66.039,96.092 L66.039,99.038 C64.11,98.11 60.442,97.44 54.289,100.044 L54.289,100.044 Z M65.153,101.975 C65.708,102.343 66.039,102.824 66.039,103.264 C66.039,104.092 66.711,104.764 67.539,104.764 C68.367,104.764 69.039,104.092 69.039,103.264 L69.039,96.092 L69.039,88.918 C69.039,88.09 68.367,87.418 67.539,87.418 C66.711,87.418 66.039,88.09 66.039,88.918 C66.039,89.358 65.707,89.841 65.152,90.209 C64.445,90.678 61.658,92.001 55.458,89.376 C48.665,86.502 41.676,86.368 37.651,89.033 C35.288,90.599 34.039,93.039 34.039,96.089 L34.039,96.09 C34.039,99.142 35.288,101.583 37.651,103.149 C39.577,104.425 42.18,105.06 45.118,105.06 C48.318,105.06 51.915,104.306 55.458,102.808 C61.659,100.182 64.447,101.507 65.153,101.975 L65.153,101.975 Z M67.104,33.543 C70.76,34.286 74.94,38.816 77.269,44.564 C79.78,50.758 82.848,52.876 84.866,53.583 L82.783,55.666 C82.782,55.666 82.782,55.666 82.782,55.667 L80.7,57.75 C79.992,55.732 77.874,52.664 71.679,50.153 C65.932,47.823 61.4,43.643 60.66,39.987 C60.296,38.193 60.824,36.615 62.275,35.163 C62.276,35.162 62.277,35.162 62.278,35.161 C63.73,33.708 65.308,33.177 67.104,33.543 L67.104,33.543 Z M70.552,52.933 C76.792,55.463 77.828,58.37 77.997,59.201 C78.127,59.854 78.021,60.428 77.71,60.738 C77.125,61.323 77.125,62.273 77.71,62.86 C78.003,63.153 78.388,63.299 78.771,63.299 C79.155,63.299 79.54,63.153 79.833,62.86 L84.904,57.788 L84.905,57.788 L89.977,52.715 C90.27,52.422 90.416,52.038 90.416,51.654 C90.416,51.271 90.27,50.887 89.977,50.594 C89.391,50.008 88.442,50.008 87.856,50.594 C87.545,50.906 86.97,51.012 86.316,50.88 C85.485,50.711 82.578,49.676 80.049,43.437 C77.279,36.601 72.431,31.563 67.7,30.603 C64.925,30.042 62.317,30.882 60.161,33.036 C60.16,33.037 60.158,33.038 60.156,33.039 C58,35.196 57.156,37.805 57.72,40.583 C58.679,45.315 63.715,50.161 70.552,52.933 L70.552,52.933 Z M100.508,57.973 C100.107,57.247 100.371,56.335 101.097,55.935 C107.828,52.22 115.475,50.256 123.208,50.256 C148.479,50.256 169.04,70.817 169.04,96.09 C169.04,96.918 168.368,97.59 167.54,97.59 C166.712,97.59 166.04,96.918 166.04,96.09 C166.04,72.471 146.825,53.256 123.208,53.256 C115.979,53.256 108.835,55.091 102.546,58.562 C101.821,58.963 100.908,58.699 100.508,57.973 L100.508,57.973 Z M147.348,133.31 C147.775,134.019 147.548,134.94 146.838,135.368 C139.727,139.656 131.556,141.922 123.208,141.922 C97.936,141.922 77.374,121.36 77.374,96.09 C77.374,95.262 78.046,94.59 78.874,94.59 C79.702,94.59 80.374,95.262 80.374,96.09 C80.374,119.707 99.589,138.922 123.208,138.922 C131.01,138.922 138.646,136.805 145.289,132.8 C145.997,132.371 146.92,132.6 147.348,133.31 L147.348,133.31 Z M118.649,12.192 C119.662,10.664 121.152,9.922 123.207,9.922 C125.262,9.922 126.752,10.664 127.764,12.192 C129.824,15.301 129.575,21.461 127.158,27.172 C124.555,33.327 125.227,36.994 126.153,38.922 L123.207,38.922 L120.26,38.922 C121.187,36.994 121.859,33.327 119.255,27.171 C116.838,21.461 116.59,15.301 118.649,12.192 L118.649,12.192 Z M117.323,38.035 C116.955,38.591 116.473,38.922 116.033,38.922 C115.205,38.922 114.533,39.594 114.533,40.422 C114.533,41.25 115.205,41.922 116.033,41.922 L123.207,41.922 L130.38,41.922 C131.208,41.922 131.88,41.25 131.88,40.422 C131.88,39.594 131.208,38.922 130.38,38.922 C129.941,38.922 129.459,38.591 129.091,38.036 C128.622,37.329 127.298,34.541 129.922,28.341 C132.797,21.548 132.932,14.559 130.265,10.534 C128.698,8.171 126.258,6.922 123.207,6.922 C120.156,6.922 117.715,8.171 116.149,10.534 C113.482,14.558 113.617,21.547 116.491,28.341 C119.115,34.541 117.792,37.329 117.323,38.035 L117.323,38.035 Z M88.779,188.609 C87.863,187.067 86.574,185.777 85.032,184.861 C86.574,183.945 87.863,182.655 88.779,181.113 C89.695,182.655 90.985,183.945 92.527,184.861 C90.985,185.777 89.695,187.067 88.779,188.609 L88.779,188.609 Z M97.958,183.361 L97.954,183.361 C93.724,183.359 90.282,179.919 90.279,175.689 L90.279,175.684 C90.279,174.856 89.607,174.184 88.779,174.184 L88.779,174.184 C87.951,174.184 87.279,174.856 87.279,175.684 C87.279,175.685 87.279,175.687 87.279,175.689 C87.276,179.919 83.835,183.359 79.605,183.361 L79.603,183.361 C78.774,183.361 78.103,184.033 78.103,184.861 C78.103,185.69 78.774,186.361 79.603,186.361 L79.605,186.361 C83.838,186.363 87.279,189.808 87.279,194.039 C87.279,194.867 87.951,195.539 88.779,195.539 C89.607,195.539 90.279,194.867 90.279,194.039 C90.279,189.808 93.721,186.363 97.954,186.361 L97.957,186.361 C98.371,186.361 98.746,186.193 99.018,185.922 C99.289,185.65 99.458,185.275 99.458,184.861 C99.458,184.033 98.785,183.361 97.958,183.361 L97.958,183.361 Z M20.366,51.756 C20.366,52.17 20.197,52.545 19.926,52.816 C19.654,53.088 19.279,53.256 18.865,53.256 L18.865,53.256 C18.213,53.257 17.684,53.787 17.684,54.438 C17.684,55.266 17.012,55.938 16.184,55.938 C15.355,55.938 14.684,55.266 14.684,54.438 C14.684,53.787 14.154,53.257 13.501,53.256 L13.501,53.256 C13.087,53.256 12.712,53.088 12.44,52.816 C12.169,52.545 12,52.17 12,51.756 C12,50.928 12.673,50.256 13.5,50.256 L13.502,50.256 C14.152,50.255 14.682,49.728 14.684,49.077 C14.684,49.076 14.683,49.075 14.683,49.074 C14.683,48.246 15.355,47.574 16.183,47.574 L16.184,47.574 L16.184,47.574 C17.012,47.574 17.684,48.246 17.684,49.074 C17.684,49.075 17.684,49.076 17.684,49.077 C17.686,49.728 18.215,50.255 18.864,50.256 L18.866,50.256 C19.693,50.256 20.366,50.928 20.366,51.756 L20.366,51.756 Z M227.944,136.258 C227.937,136.269 227.932,136.282 227.924,136.294 C227.655,136.692 227.198,136.955 226.681,136.955 C226.432,136.955 226.229,137.156 226.229,137.404 C226.229,138.232 225.558,138.904 224.729,138.904 C223.901,138.904 223.229,138.232 223.229,137.404 C223.229,137.156 223.027,136.955 222.779,136.955 C221.952,136.955 221.279,136.283 221.279,135.455 C221.279,134.627 221.951,133.955 222.779,133.955 C223.027,133.955 223.229,133.753 223.229,133.504 C223.229,133.4 223.24,133.3 223.26,133.202 C223.4,132.519 224.005,132.004 224.729,132.004 C225.558,132.004 226.229,132.676 226.229,133.504 C226.229,133.753 226.432,133.955 226.681,133.955 C227.509,133.955 228.181,134.627 228.181,135.455 C228.181,135.508 228.17,135.557 228.165,135.607 C228.16,135.657 228.16,135.709 228.15,135.758 C228.113,135.939 228.04,136.107 227.944,136.258 L227.944,136.258 Z M164.337,9.93 C164.742,10.463 165.218,10.939 165.751,11.344 C165.217,11.749 164.742,12.224 164.337,12.758 C163.932,12.224 163.457,11.749 162.923,11.344 C163.457,10.939 163.932,10.463 164.337,9.93 L164.337,9.93 Z M158.493,12.844 L158.494,12.844 C160.889,12.844 162.837,14.792 162.837,17.188 C162.837,18.016 163.509,18.688 164.337,18.688 C165.165,18.688 165.837,18.016 165.837,17.188 C165.837,14.792 167.785,12.844 170.18,12.844 L170.181,12.844 C171.009,12.844 171.681,12.172 171.681,11.344 C171.681,10.516 171.009,9.844 170.181,9.844 L170.18,9.844 C167.785,9.843 165.839,7.897 165.837,5.503 L165.837,5.5 C165.837,4.672 165.165,4 164.337,4 L164.337,4 C163.509,4 162.837,4.672 162.837,5.5 L162.837,5.503 C162.835,7.897 160.889,9.843 158.494,9.844 L158.493,9.844 C157.665,9.844 156.993,10.516 156.993,11.344 C156.993,12.172 157.665,12.844 158.493,12.844 L158.493,12.844 Z"/>
</svg>
