<svg xmlns="http://www.w3.org/2000/svg" width="240" height="200" viewBox="0 0 240 200">
  <path fill="#868998" fill-rule="evenodd" d="M188.975,149.399 C188.975,148.57 189.647,147.899 190.475,147.899 L193.805,147.899 C194.633,147.899 195.305,148.57 195.305,149.399 C195.305,150.228 194.633,150.899 193.805,150.899 L190.475,150.899 C189.647,150.899 188.975,150.228 188.975,149.399 L188.975,149.399 Z M131.61,173.168 C135.087,172.165 138.47,170.902 141.767,169.39 L153.201,169.39 C154.03,169.39 154.701,168.719 154.701,167.89 C154.701,167.061 154.03,166.39 153.201,166.39 L147.618,166.39 C150.816,164.567 153.927,162.485 156.956,160.145 L170.684,160.145 C171.512,160.145 172.184,159.474 172.184,158.645 C172.184,157.816 171.512,157.145 170.684,157.145 L160.627,157.145 C162.871,155.211 165.069,153.133 167.221,150.899 L183.26,150.899 C184.088,150.899 184.76,150.228 184.76,149.399 C184.76,148.57 184.088,147.899 183.26,147.899 L169.998,147.899 C171.765,145.921 173.501,143.843 175.206,141.654 L187.008,141.654 C187.836,141.654 188.508,140.983 188.508,140.154 C188.508,139.325 187.836,138.654 187.008,138.654 L177.469,138.654 C178.94,136.653 180.388,134.574 181.813,132.409 L204.135,132.409 C204.963,132.409 205.635,131.738 205.635,130.909 C205.635,130.08 204.963,129.409 204.135,129.409 L183.893,129.409 C185.592,127.098 187.389,125.027 189.248,123.163 L193.572,123.163 C194.4,123.163 195.072,122.492 195.072,121.663 C195.072,120.834 194.4,120.163 193.572,120.163 L192.49,120.163 C195.462,117.636 198.53,115.583 201.568,113.918 L213.526,113.918 C214.354,113.918 215.026,113.247 215.026,112.418 C215.026,111.588 214.354,110.918 213.526,110.918 L207.937,110.918 C215.952,107.728 222.982,106.962 226.289,106.785 C226.08,108.174 225.84,109.553 225.559,110.918 L219.975,110.918 C219.147,110.918 218.475,111.588 218.475,112.418 C218.475,113.247 219.147,113.918 219.975,113.918 L224.865,113.918 C224.34,116.036 223.721,118.116 223.026,120.163 L211.724,120.163 C210.896,120.163 210.224,120.834 210.224,121.663 C210.224,122.492 210.896,123.163 211.724,123.163 L221.942,123.163 C221.121,125.29 220.219,127.376 219.221,129.409 L211.748,129.409 C210.92,129.409 210.248,130.08 210.248,130.909 C210.248,131.738 210.92,132.409 211.748,132.409 L217.677,132.409 C216.507,134.553 215.239,136.637 213.879,138.654 L195.1,138.654 C194.272,138.654 193.6,139.325 193.6,140.154 C193.6,140.983 194.272,141.654 195.1,141.654 L211.751,141.654 C210.133,143.826 208.402,145.908 206.572,147.899 L199.975,147.899 C199.147,147.899 198.475,148.57 198.475,149.399 C198.475,150.228 199.147,150.899 199.975,150.899 L203.654,150.899 C201.38,153.123 198.972,155.21 196.441,157.145 L178.724,157.145 C177.896,157.145 177.224,157.816 177.224,158.645 C177.224,159.474 177.896,160.145 178.724,160.145 L192.245,160.145 C188.661,162.529 184.865,164.616 180.899,166.39 L161.377,166.39 C160.549,166.39 159.877,167.061 159.877,167.89 C159.877,168.719 160.549,169.39 161.377,169.39 L173.108,169.39 C165.557,171.833 157.512,173.168 149.158,173.168 L131.61,173.168 Z M90.651,173.119 C89.543,173.103 88.439,173.086 87.343,173.077 C87.381,171.39 87.488,169.768 87.684,168.211 C87.686,168.203 87.686,168.195 87.687,168.187 C88.995,157.832 94.294,150.473 110.14,147.587 C110.955,147.439 111.495,146.658 111.347,145.841 C111.198,145.026 110.406,144.488 109.603,144.636 C92.589,147.734 86.824,156.257 85.048,165.691 C57.855,152.819 40.387,125.358 40.387,95.168 L40.387,86.585 C40.387,86.52 40.376,86.458 40.368,86.395 C40.364,86.363 40.364,86.331 40.358,86.3 C40.225,85.607 39.618,85.085 38.887,85.085 C38.868,85.085 38.85,85.089 38.831,85.09 C7.853,84.762 4.231,80.43 4.012,67.329 C7.794,67.298 11.403,67.161 14.631,67.04 C25.427,66.632 33.957,66.308 38.127,70.324 C40.434,72.545 41.555,76.237 41.555,81.612 C41.555,81.633 41.56,81.653 41.561,81.673 C41.59,82.37 42.089,82.946 42.753,83.082 C42.85,83.102 42.952,83.112 43.055,83.112 C43.883,83.112 44.555,82.441 44.555,81.612 C44.555,81.607 44.555,81.601 44.555,81.595 C44.557,76.23 45.679,72.543 47.982,70.325 C52.151,66.308 60.681,66.633 71.478,67.039 C74.707,67.161 78.315,67.298 82.097,67.328 C81.876,80.459 78.208,84.801 46.843,85.095 C46.809,85.092 46.777,85.085 46.742,85.085 C46.009,85.085 45.401,85.61 45.27,86.306 C45.268,86.318 45.268,86.332 45.266,86.345 C45.254,86.423 45.242,86.503 45.242,86.585 C45.242,86.591 45.243,86.598 45.243,86.605 C45.243,86.607 45.242,86.608 45.242,86.61 C45.242,86.613 45.243,86.615 45.243,86.618 C45.261,96.667 53.239,96.668 57.076,96.668 L227.12,96.668 C227.075,99.06 226.931,101.428 226.674,103.764 C220.114,104.042 195.297,106.669 179.812,130.012 C179.784,130.049 179.759,130.086 179.735,130.125 C179.683,130.202 179.629,130.274 179.578,130.352 C161.87,157.444 140.674,171.399 114.809,173.003 C116.788,172.043 118.623,170.803 120.26,169.191 C125.387,164.141 127.879,156.17 127.879,144.822 C127.879,143.994 127.207,143.322 126.379,143.322 C125.551,143.322 124.879,143.994 124.879,144.822 C124.879,155.325 122.68,162.597 118.154,167.054 C111.674,173.438 100.982,173.275 90.651,173.119 L90.651,173.119 Z M216.108,140.702 C217.234,139.052 218.286,137.351 219.29,135.617 C220.842,139.247 224.447,141.796 228.637,141.796 C234.241,141.796 238.799,137.237 238.799,131.633 C238.799,130.804 238.127,130.133 237.299,130.133 C236.471,130.133 235.799,130.804 235.799,131.633 C235.799,135.584 232.586,138.796 228.637,138.796 C224.688,138.796 221.475,135.584 221.475,131.633 C221.475,131.62 221.471,131.607 221.471,131.594 C222.974,128.624 224.306,125.554 225.439,122.389 C225.526,122.233 225.586,122.061 225.612,121.877 C227.429,116.692 228.726,111.269 229.455,105.667 C229.497,105.528 229.527,105.384 229.527,105.232 C229.527,105.207 229.521,105.184 229.52,105.159 C229.925,101.882 230.158,98.552 230.158,95.168 C230.158,94.338 229.487,93.668 228.658,93.668 L141.658,93.668 L141.658,90.919 C141.658,90.089 140.986,89.419 140.158,89.419 C139.33,89.419 138.658,90.089 138.658,90.919 L138.658,93.668 L57.076,93.668 C52.643,93.668 48.919,93.205 48.332,88.076 C78.512,87.67 85.109,83.552 85.109,65.835 C85.109,65.006 84.437,64.335 83.609,64.335 C79.334,64.335 75.398,64.185 71.592,64.043 C59.633,63.59 50.991,63.263 45.901,68.163 C44.693,69.327 43.756,70.778 43.055,72.499 C42.353,70.778 41.416,69.327 40.208,68.164 C35.118,63.263 26.476,63.591 14.518,64.043 C10.711,64.186 6.776,64.335 2.5,64.335 C1.672,64.335 1,65.006 1,65.835 C1,83.319 7.865,87.628 37.387,88.069 L37.387,95.168 C37.387,108.147 40.496,120.641 46.142,131.777 C46.065,135.66 42.888,138.796 38.986,138.796 C35.037,138.796 31.824,135.584 31.824,131.633 C31.824,130.804 31.152,130.133 30.324,130.133 C29.496,130.133 28.824,130.804 28.824,131.633 C28.824,135.584 25.611,138.796 21.662,138.796 C17.713,138.796 14.5,135.584 14.5,131.633 C14.5,130.804 13.828,130.133 13,130.133 C12.172,130.133 11.5,130.804 11.5,131.633 C11.5,137.237 16.058,141.796 21.662,141.796 C25.328,141.796 28.537,139.839 30.324,136.921 C32.112,139.839 35.32,141.796 38.986,141.796 C43.139,141.796 46.714,139.29 48.289,135.712 C50.666,139.821 53.399,143.716 56.46,147.353 C56.321,151.182 53.172,154.255 49.311,154.255 C45.362,154.255 42.149,151.043 42.149,147.092 C42.149,146.263 41.477,145.592 40.649,145.592 L40.648,145.592 L40.648,145.592 C39.82,145.592 39.148,146.263 39.148,147.092 C39.148,151.043 35.934,154.255 31.984,154.255 C28.035,154.255 24.822,151.043 24.822,147.092 C24.822,146.263 24.15,145.592 23.322,145.592 C22.494,145.592 21.822,146.263 21.822,147.092 C21.822,152.696 26.38,157.255 31.984,157.255 C35.651,157.255 38.86,155.297 40.648,152.378 C42.435,155.297 45.644,157.255 49.311,157.255 C53.826,157.255 57.658,154.294 58.978,150.212 C66.091,157.9 74.742,164.26 84.598,168.79 C84.398,170.711 84.326,172.65 84.326,174.569 C84.326,175.399 84.998,176.069 85.826,176.069 C87.402,176.069 89,176.095 90.606,176.119 C92.248,176.144 93.901,176.169 95.546,176.169 C99.5,176.169 103.415,176.019 107.094,175.381 C109.301,175.69 111.534,175.899 113.773,176.025 C113.871,176.045 113.971,176.056 114.073,176.056 C114.099,176.056 114.125,176.056 114.152,176.054 C114.177,176.053 114.202,176.05 114.227,176.049 C115.614,176.12 117.002,176.168 118.387,176.168 L149.158,176.168 C160.694,176.168 171.665,173.727 181.607,169.362 C181.84,169.318 182.05,169.217 182.231,169.08 C187.719,166.614 192.895,163.574 197.656,160.003 C197.866,159.906 198.047,159.761 198.19,159.584 C201.724,156.888 205.022,153.905 208.067,150.676 C208.289,150.541 208.471,150.349 208.597,150.12 C208.71,149.998 208.829,149.882 208.941,149.759 C210.116,154.072 214.056,157.255 218.736,157.255 C224.34,157.255 228.898,152.696 228.898,147.092 C228.898,146.263 228.226,145.592 227.398,145.592 C226.57,145.592 225.898,146.263 225.898,147.092 C225.898,151.043 222.685,154.255 218.736,154.255 C214.787,154.255 211.574,151.043 211.574,147.092 C211.574,146.984 211.561,146.878 211.539,146.776 C213.005,145.008 214.384,143.169 215.697,141.279 C215.877,141.123 216.019,140.927 216.108,140.702 L216.108,140.702 Z M205.634,121.663 C205.634,122.492 204.962,123.163 204.134,123.163 L200.599,123.163 C199.771,123.163 199.099,122.492 199.099,121.663 C199.099,120.834 199.771,120.163 200.599,120.163 L204.134,120.163 C204.962,120.163 205.634,120.834 205.634,121.663 L205.634,121.663 Z M124.408,68.871 C124.408,64.115 128.277,60.246 133.033,60.246 C135.912,60.246 138.556,61.677 140.154,64.024 C141.708,61.745 144.323,60.246 147.283,60.246 C150.484,60.246 153.406,62.004 154.909,64.836 C155.562,66.068 155.908,67.462 155.908,68.871 C155.908,69.7 155.236,70.371 154.408,70.371 C153.58,70.371 152.908,69.7 152.908,68.871 C152.908,67.939 152.689,67.054 152.259,66.242 C151.278,64.394 149.371,63.246 147.283,63.246 C144.181,63.246 141.658,65.769 141.658,68.871 C141.658,68.95 141.647,69.026 141.635,69.103 C141.647,69.179 141.658,69.255 141.658,69.335 L141.658,72.043 C141.658,72.872 140.986,73.543 140.158,73.543 C139.33,73.543 138.658,72.872 138.658,72.043 L138.658,69.335 C138.658,69.255 138.67,69.179 138.682,69.103 C138.67,69.026 138.658,68.95 138.658,68.871 C138.658,67.939 138.439,67.054 138.009,66.242 C137.028,64.394 135.121,63.246 133.033,63.246 C129.931,63.246 127.408,65.769 127.408,68.871 C127.408,69.7 126.736,70.371 125.908,70.371 C125.08,70.371 124.408,69.7 124.408,68.871 L124.408,68.871 Z M161.697,117.438 C162.617,117.438 163.365,118.186 163.365,119.105 C163.365,120.024 162.617,120.772 161.697,120.772 C160.778,120.772 160.031,120.024 160.031,119.105 C160.031,118.186 160.778,117.438 161.697,117.438 L161.697,117.438 Z M161.697,123.772 C164.271,123.772 166.365,121.678 166.365,119.105 C166.365,116.532 164.271,114.438 161.697,114.438 C159.124,114.438 157.031,116.532 157.031,119.105 C157.031,121.678 159.124,123.772 161.697,123.772 L161.697,123.772 Z M141.658,78.585 L141.658,84.585 C141.658,85.414 140.986,86.085 140.158,86.085 C139.33,86.085 138.658,85.414 138.658,84.585 L138.658,78.585 C138.658,77.755 139.33,77.085 140.158,77.085 C140.986,77.085 141.658,77.755 141.658,78.585 L141.658,78.585 Z M220.902,48.82 C221.818,50.362 223.107,51.652 224.649,52.568 C223.107,53.484 221.818,54.774 220.902,56.316 C219.986,54.774 218.696,53.484 217.154,52.568 C218.696,51.652 219.986,50.362 220.902,48.82 L220.902,48.82 Z M211.724,54.068 L211.727,54.068 C215.959,54.069 219.402,57.514 219.402,61.746 C219.402,62.575 220.074,63.246 220.902,63.246 C221.73,63.246 222.402,62.575 222.402,61.746 C222.402,57.514 225.844,54.069 230.075,54.068 L230.078,54.068 C230.906,54.068 231.578,53.397 231.578,52.568 C231.578,52.464 231.568,52.363 231.548,52.266 C231.477,51.923 231.287,51.629 231.028,51.416 C230.768,51.202 230.44,51.068 230.078,51.068 L230.075,51.068 C225.845,51.066 222.402,47.623 222.402,43.39 C222.402,42.562 221.73,41.89 220.902,41.89 C220.074,41.89 219.402,42.562 219.402,43.39 C219.402,47.623 215.958,51.066 211.727,51.068 L211.724,51.068 C211.362,51.068 211.034,51.202 210.775,51.416 C210.515,51.629 210.325,51.923 210.255,52.266 C210.235,52.363 210.224,52.464 210.224,52.568 C210.224,53.397 210.896,54.068 211.724,54.068 L211.724,54.068 Z M89.117,27.45 L89.117,27.45 C89.117,26.621 89.789,25.95 90.617,25.95 C90.866,25.95 91.068,25.748 91.068,25.5 C91.068,24.671 91.74,24 92.568,24 C92.568,24 92.568,24 92.569,24 C92.569,24 92.569,24 92.569,24 C93.397,24 94.069,24.671 94.069,25.5 C94.069,25.748 94.271,25.95 94.52,25.95 C95.348,25.95 96.02,26.621 96.02,27.45 C96.02,28.175 95.505,28.78 94.821,28.92 C94.724,28.94 94.622,28.95 94.519,28.95 C94.27,28.95 94.068,29.152 94.068,29.4 C94.068,30.229 93.396,30.9 92.568,30.9 C91.74,30.9 91.068,30.229 91.068,29.4 C91.068,29.152 90.866,28.95 90.617,28.95 C90.358,28.95 90.119,28.878 89.906,28.763 C89.489,28.537 89.195,28.123 89.135,27.631 C89.128,27.571 89.117,27.512 89.117,27.45 L89.117,27.45 Z M7.992,108.418 C8.525,108.012 9.001,107.537 9.406,107.003 C9.811,107.537 10.287,108.012 10.82,108.418 C10.287,108.823 9.811,109.298 9.406,109.832 C9.001,109.298 8.525,108.823 7.992,108.418 L7.992,108.418 Z M15.248,109.918 L15.25,109.918 C16.078,109.918 16.75,109.247 16.75,108.418 C16.75,108.314 16.739,108.212 16.719,108.115 C16.649,107.773 16.459,107.479 16.2,107.265 C15.94,107.051 15.612,106.918 15.25,106.918 L15.248,106.918 C12.853,106.917 10.906,104.968 10.906,102.574 C10.906,101.746 10.234,101.074 9.406,101.074 C8.578,101.074 7.906,101.746 7.906,102.574 C7.906,104.968 5.959,106.917 3.564,106.918 L3.562,106.918 C3.2,106.918 2.872,107.051 2.612,107.265 C2.353,107.479 2.163,107.773 2.092,108.115 C2.072,108.212 2.062,108.314 2.062,108.418 C2.062,109.247 2.734,109.918 3.562,109.918 L3.564,109.918 C5.959,109.919 7.906,111.867 7.906,114.261 C7.906,115.09 8.578,115.761 9.406,115.761 C10.234,115.761 10.906,115.09 10.906,114.261 C10.906,111.867 12.853,109.919 15.248,109.918 L15.248,109.918 Z"/>
</svg>
