<svg xmlns="http://www.w3.org/2000/svg" width="240" height="200" viewBox="0 0 240 200">
  <path fill="#868998" fill-rule="evenodd" d="M119.871,33.827 C121.559,35.108 123.348,35.705 125.5,35.705 C127.652,35.705 129.441,35.108 131.129,33.827 C131.788,33.327 131.917,32.386 131.416,31.726 C130.915,31.065 129.976,30.937 129.314,31.438 C128.489,32.064 127.391,32.705 125.5,32.705 C123.609,32.705 122.511,32.064 121.686,31.438 C121.024,30.937 120.085,31.065 119.584,31.726 C119.083,32.386 119.212,33.327 119.871,33.827 L119.871,33.827 Z M151.279,52.844 C155.104,52.844 157.047,54.71 158.762,56.356 C159.987,57.533 161.01,58.515 162.667,58.88 L162.667,54.525 C159.807,54.109 158.157,52.54 156.684,51.126 C155.127,49.631 153.897,48.451 151.279,48.451 C148.661,48.451 147.432,49.631 145.875,51.126 C144.161,52.772 142.219,54.638 138.395,54.638 C134.568,54.638 132.625,52.771 130.91,51.126 C129.354,49.631 128.124,48.451 125.506,48.451 C122.887,48.451 121.656,49.631 120.1,51.126 C118.385,52.772 116.441,54.638 112.615,54.638 C108.789,54.638 106.846,52.772 105.131,51.126 C103.574,49.631 102.344,48.451 99.725,48.451 C97.104,48.451 95.875,49.631 94.317,51.126 C92.844,52.541 91.194,54.109 88.333,54.525 L88.333,58.88 C89.99,58.515 91.014,57.533 92.239,56.356 C93.954,54.71 95.897,52.844 99.725,52.844 C103.551,52.844 105.494,54.71 107.209,56.356 C108.766,57.851 109.996,59.032 112.615,59.032 C115.234,59.032 116.465,57.851 118.021,56.356 C119.736,54.71 121.68,52.844 125.506,52.844 C129.331,52.844 131.273,54.71 132.988,56.356 C134.545,57.851 135.775,59.032 138.395,59.032 C141.012,59.032 142.24,57.851 143.797,56.357 C145.511,54.711 147.454,52.844 151.279,52.844 L151.279,52.844 Z M88.333,45.167 L88.333,51.473 C89.985,51.107 91.017,50.136 92.239,48.962 C93.954,47.317 95.897,45.45 99.725,45.45 C103.551,45.45 105.494,47.315 107.209,48.962 C108.766,50.456 109.996,51.638 112.615,51.638 C115.234,51.638 116.465,50.456 118.021,48.962 C119.736,47.315 121.68,45.45 125.506,45.45 C129.331,45.45 131.273,47.315 132.988,48.962 C134.545,50.456 135.775,51.638 138.395,51.638 C141.012,51.638 142.24,50.456 143.797,48.963 C145.511,47.317 147.454,45.45 151.279,45.45 C155.104,45.45 157.047,47.315 158.762,48.962 C159.984,50.136 161.016,51.107 162.667,51.473 L162.667,45.167 C162.667,37.096 160.023,29.232 155.192,22.817 C154.515,23.96 154.119,25.289 154.119,26.711 C154.119,27.539 153.447,28.211 152.619,28.211 C151.791,28.211 151.119,27.539 151.119,26.711 C151.119,22.478 147.677,19.034 143.445,19.033 L143.443,19.033 C142.615,19.033 141.943,18.361 141.943,17.533 C141.943,16.705 142.615,16.033 143.443,16.033 L143.445,16.033 C144.824,16.033 146.116,15.661 147.236,15.021 C140.889,10.425 133.416,8 125.5,8 C105.006,8 88.333,24.673 88.333,45.167 L88.333,45.167 Z M152.619,13.785 C152.115,14.634 151.501,15.406 150.79,16.082 C150.741,16.132 150.692,16.18 150.638,16.221 C150.097,16.716 149.506,17.156 148.872,17.533 C150.414,18.449 151.704,19.739 152.619,21.281 C153.005,20.631 153.457,20.027 153.967,19.475 C154.019,19.405 154.079,19.341 154.145,19.28 C154.803,18.602 155.551,18.017 156.367,17.533 C154.825,16.617 153.535,15.327 152.619,13.785 L152.619,13.785 Z M172.666,116.379 C172.666,121.802 168.255,126.213 162.833,126.213 C157.413,126.213 153.002,121.804 153,116.383 C153,116.382 153,116.382 153,116.381 L153,56.051 C152.494,55.918 151.93,55.845 151.279,55.845 C148.917,55.845 147.683,56.809 146.322,58.095 C146.325,58.136 146.334,58.175 146.334,58.217 L146.334,73.008 C146.334,73.836 145.662,74.508 144.834,74.508 C144.006,74.508 143.334,73.836 143.334,73.008 L143.334,60.631 C142.081,61.437 140.54,62.032 138.395,62.032 C137.765,62.032 137.202,61.966 136.666,61.874 L136.666,185.131 C136.666,188.9 139.731,191.965 143.5,191.965 C147.268,191.965 150.332,188.9 150.332,185.131 C150.332,181.363 147.268,178.299 143.5,178.299 C142.672,178.299 142,177.627 142,176.799 C142,175.971 142.672,175.299 143.5,175.299 C148.922,175.299 153.332,179.709 153.332,185.131 C153.332,190.554 148.922,194.965 143.5,194.965 C138.078,194.965 133.668,190.556 133.666,185.135 C133.666,185.134 133.666,185.133 133.666,185.133 L133.666,60.768 C132.584,60.113 131.718,59.295 130.91,58.52 C129.686,57.345 128.654,56.373 127,56.008 L127,105.047 C127,105.875 126.328,106.547 125.5,106.547 C124.672,106.547 124,105.875 124,105.047 L124,56.01 C122.352,56.377 121.321,57.347 120.1,58.52 C119.289,59.298 118.42,60.119 117.333,60.775 L117.333,185.133 C117.333,190.555 112.922,194.965 107.5,194.965 C102.077,194.965 97.666,190.555 97.666,185.133 C97.666,179.71 102.077,175.299 107.5,175.299 C108.328,175.299 109,175.971 109,176.799 C109,177.627 108.328,178.299 107.5,178.299 C103.731,178.299 100.666,181.364 100.666,185.133 C100.666,188.901 103.731,191.965 107.5,191.965 C111.268,191.965 114.333,188.901 114.333,185.133 L114.333,61.877 C113.801,61.967 113.241,62.032 112.615,62.032 C110.465,62.032 108.92,61.435 107.666,60.626 L107.666,73.008 C107.666,73.836 106.994,74.508 106.166,74.508 C105.338,74.508 104.666,73.836 104.666,73.008 L104.666,58.217 C104.666,58.173 104.675,58.132 104.679,58.09 C103.319,56.806 102.085,55.845 99.725,55.845 C99.072,55.845 98.506,55.919 97.999,56.052 L97.999,116.381 C97.999,121.803 93.588,126.213 88.166,126.213 C82.744,126.213 78.333,121.803 78.333,116.381 C78.333,110.958 82.744,106.547 88.166,106.547 C88.994,106.547 89.666,107.219 89.666,108.047 C89.666,108.875 88.994,109.547 88.166,109.547 C84.398,109.547 81.333,112.612 81.333,116.381 C81.333,120.149 84.398,123.213 88.166,123.213 C91.934,123.213 94.999,120.149 94.999,116.381 L94.999,57.877 C94.775,58.084 94.55,58.297 94.317,58.52 C92.603,60.167 90.659,62.032 86.833,62.032 C86.005,62.032 85.333,61.36 85.333,60.532 L85.333,45.167 C85.333,23.018 103.352,5 125.5,5 C134.155,5 142.635,7.832 149.544,12.996 C150.527,11.705 151.119,10.1 151.119,8.355 C151.119,7.527 151.791,6.855 152.619,6.855 C153.447,6.855 154.119,7.527 154.119,8.355 C154.119,12.588 157.563,16.032 161.795,16.033 L161.797,16.033 C162.625,16.033 163.297,16.705 163.297,17.533 C163.297,18.361 162.625,19.033 161.797,19.033 L161.795,19.033 C160.086,19.034 158.511,19.602 157.234,20.55 C162.68,27.567 165.667,36.249 165.667,45.167 L165.667,60.532 C165.667,61.36 164.995,62.032 164.167,62.032 C160.341,62.032 158.398,60.166 156.684,58.52 C156.451,58.296 156.225,58.082 156,57.875 L156,116.379 C156,120.148 159.065,123.213 162.833,123.213 C166.601,123.213 169.666,120.148 169.666,116.379 C169.666,112.611 166.601,109.547 162.833,109.547 C162.005,109.547 161.333,108.875 161.333,108.047 C161.333,107.219 162.005,106.547 162.833,106.547 C168.255,106.547 172.666,110.957 172.666,116.379 L172.666,116.379 Z M146.334,81.842 C146.334,81.014 145.662,80.342 144.834,80.342 C144.006,80.342 143.334,81.014 143.334,81.842 L143.334,141.008 C143.334,141.836 144.006,142.508 144.834,142.508 C145.662,142.508 146.334,141.836 146.334,141.008 L146.334,81.842 Z M106.166,142.508 C106.994,142.508 107.666,141.836 107.666,141.008 L107.666,81.842 C107.666,81.014 106.994,80.342 106.166,80.342 C105.338,80.342 104.666,81.014 104.666,81.842 L104.666,141.008 C104.666,141.836 105.338,142.508 106.166,142.508 L106.166,142.508 Z M144.834,148.717 C144.006,148.717 143.334,149.389 143.334,150.217 L143.334,153.633 C143.334,154.461 144.006,155.133 144.834,155.133 C145.662,155.133 146.334,154.461 146.334,153.633 L146.334,150.217 C146.334,149.389 145.662,148.717 144.834,148.717 L144.834,148.717 Z M104.666,153.633 C104.666,154.461 105.338,155.133 106.166,155.133 C106.994,155.133 107.666,154.461 107.666,153.633 L107.666,150.217 C107.666,149.389 106.994,148.717 106.166,148.717 C105.338,148.717 104.666,149.389 104.666,150.217 L104.666,153.633 Z M125.5,112.715 C124.672,112.715 124,113.387 124,114.215 L124,172.383 C124,173.211 124.672,173.883 125.5,173.883 C126.328,173.883 127,173.211 127,172.383 L127,114.215 C127,113.387 126.328,112.715 125.5,112.715 L125.5,112.715 Z M125.5,182.715 C124.672,182.715 124,183.387 124,184.215 L124,193.465 C124,194.293 124.672,194.965 125.5,194.965 C126.328,194.965 127,194.293 127,193.465 L127,184.215 C127,183.387 126.328,182.715 125.5,182.715 L125.5,182.715 Z M140.084,31.883 C140.912,31.883 141.584,31.211 141.584,30.383 L141.584,28.883 C141.584,28.055 140.912,27.383 140.084,27.383 C139.256,27.383 138.584,28.055 138.584,28.883 L138.584,30.383 C138.584,31.211 139.256,31.883 140.084,31.883 L140.084,31.883 Z M110.916,31.883 C111.744,31.883 112.416,31.211 112.416,30.383 L112.416,28.883 C112.416,28.055 111.744,27.383 110.916,27.383 C110.088,27.383 109.416,28.055 109.416,28.883 L109.416,30.383 C109.416,31.211 110.088,31.883 110.916,31.883 L110.916,31.883 Z M184.675,65.612 C183.641,65.612 182.799,66.453 182.799,67.487 C182.799,68.522 183.641,69.364 184.675,69.364 C185.709,69.364 186.551,68.522 186.551,67.487 C186.551,66.453 185.709,65.612 184.675,65.612 L184.675,65.612 Z M70.5,165.924 C69.466,165.924 68.624,166.764 68.624,167.799 C68.624,168.834 69.466,169.676 70.5,169.676 C71.534,169.676 72.376,168.834 72.376,167.799 C72.376,166.764 71.534,165.924 70.5,165.924 L70.5,165.924 Z M176.992,148.877 C177.05,148.817 177.108,148.759 177.168,148.701 C177.108,148.644 177.05,148.585 176.992,148.525 C176.935,148.585 176.877,148.644 176.817,148.701 C176.877,148.759 176.935,148.817 176.992,148.877 L176.992,148.877 Z M182.394,148.701 L182.394,148.701 L182.394,148.702 C182.394,149.53 181.722,150.202 180.894,150.202 C179.57,150.202 178.492,151.279 178.492,152.601 C178.492,153.43 177.82,154.101 176.992,154.101 C176.164,154.101 175.492,153.43 175.492,152.601 C175.492,151.279 174.415,150.202 173.092,150.202 C172.263,150.202 171.592,149.53 171.592,148.702 L171.592,148.701 C171.592,148.653 171.602,148.607 171.606,148.559 C171.654,148.061 171.941,147.638 172.355,147.402 C172.574,147.278 172.823,147.201 173.092,147.201 C174.415,147.201 175.492,146.124 175.492,144.801 C175.492,143.972 176.164,143.301 176.992,143.301 C177.821,143.301 178.492,143.972 178.492,144.801 C178.492,146.124 179.57,147.201 180.894,147.201 C181.36,147.201 181.771,147.418 182.046,147.752 C182.138,147.863 182.219,147.983 182.276,148.118 C182.352,148.297 182.394,148.494 182.394,148.701 L182.394,148.701 Z M60.901,62.482 L60.901,62.482 C60.901,63.31 60.229,63.982 59.401,63.982 C59.152,63.982 58.95,64.184 58.95,64.432 C58.95,65.261 58.278,65.932 57.45,65.932 C56.622,65.932 55.95,65.261 55.95,64.432 C55.95,64.184 55.748,63.982 55.5,63.982 C54.672,63.982 54,63.31 54,62.482 C54,61.654 54.672,60.982 55.5,60.982 C55.748,60.982 55.95,60.78 55.95,60.532 C55.95,59.704 56.622,59.032 57.45,59.032 C58.278,59.032 58.95,59.704 58.95,60.532 C58.95,60.78 59.152,60.982 59.401,60.982 C60.229,60.982 60.901,61.654 60.901,62.482 L60.901,62.482 Z"/>
</svg>
